SplineFontDB: 3.2
FontName: Sudoers-Bold
FullName: Sudoers Bold
FamilyName: Sudoers
Weight: Bold

StartChar: .notdef
Encoding: 1114112 -1 0
Width: 448
Flags: W
LayerCount: 2
UndoRedoHistory
Layer: 1
Undoes
UndoOperation
Index: 0
Type: 1
WasModified: 0
WasOrder2: 1
Layer: 2
Width: 448
VWidth: 1024
LBearingChange: 0
UnicodeEnc: 0
InstructionsLength: 0
SplineSet
34 -30 m 1,0,-1
 34 670 l 1,1,-1
 414 670 l 1,2,-1
 414 -30 l 1,3,-1
 34 -30 l 1,0,-1
93 581 m 1,4,5
 190 576 190 576 239 562 c 128,-1,6
 288 548 288 548 302 530 c 128,-1,7
 316 512 316 512 316 488 c 0,8,9
 316 462 316 462 305 444 c 128,-1,10
 294 426 294 426 269 398 c 0,11,12
 244 371 244 371 227.5 348 c 128,-1,13
 211 325 211 325 198.5 287 c 128,-1,14
 186 249 186 249 185 195 c 1,15,-1
 255 192 l 1,16,17
 256 256 256 256 275 294 c 128,-1,18
 294 332 294 332 330 371 c 0,19,20
 360 405 360 405 374 430 c 128,-1,21
 388 455 388 455 388 494 c 0,22,23
 388 566 388 566 322.5 603 c 128,-1,24
 257 640 257 640 96 645 c 1,25,-1
 93 581 l 1,4,5
270 7 m 128,-1,27
 288 24 288 24 288 54 c 256,28,29
 288 84 288 84 269.5 101 c 128,-1,30
 251 118 251 118 224 118 c 256,31,32
 197 118 197 118 178.5 101 c 128,-1,33
 160 84 160 84 160 54 c 256,34,35
 160 24 160 24 178 7 c 128,-1,36
 196 -10 196 -10 224 -10 c 256,37,26
 252 -10 252 -10 270 7 c 128,-1,27
EndSplineSet
EndUndoOperation
EndUndoes
Redoes
EndRedoes
EndUndoRedoHistory
Fore
SplineSet
23.5 -40.5 m 1
 23.5 680.5 l 1
 424.5 680.5 l 1
 424.5 -40.5 l 1
 23.5 -40.5 l 1
310.292616065 536.438309113 m 0
 326.5 515.600244053 326.5 515.600244053 326.5 487.323113999 c 0
 326.5 459.045983945 326.5 459.045983945 314.484750053 439.384665849 c 0
 301.504403109 418.144098124 301.504403109 418.144098124 276.82879921 391.248931014 c 0
 252.153195312 364.353763904 252.153195312 364.353763904 236.314525345 342.275617889 c 0
 220.475855377 320.197471874 220.475855377 320.197471874 209.072463395 285.531160248 c 0
 197.669071413 250.864848622 197.669071413 250.864848622 195.800290114 205.046929276 c 1
 244.800025203 202.94694063 l 1
 247.168661073 261.818080614 247.168661073 261.818080614 266.208081016 299.896920502 c 0
 285.24750096 337.975760389 285.24750096 337.975760389 322.202513139 378.030086988 c 0
 351.398661728 411.130968503 351.398661728 411.130968503 364.449330864 434.435731746 c 0
 377.5 457.740494988 377.5 457.740494988 377.5 494 c 0
 377.5 559.871527833 377.5 559.871527833 316.877271143 594.116428103 c 0
 256.254542287 628.361328373 256.254542287 628.361328373 106.00294068 634.146081834 c 1
 103.976491513 590.915166278 l 1
 194.378619547 585.671261127 194.378619547 585.671261127 244.278284158 571.414214096 c 0
 294.177948769 557.157167064 294.177948769 557.157167064 310.292616065 536.438309113 c 0
277.5 54 m 0
 277.5 79.3913892862 277.5 79.3913892862 262.205608876 93.4456946431 c 0
 246.911217753 107.5 246.911217753 107.5 224 107.5 c 0
 201.088782247 107.5 201.088782247 107.5 185.794391124 93.4456946431 c 0
 170.5 79.3913892862 170.5 79.3913892862 170.5 54 c 0
 170.5 28.523201139 170.5 28.523201139 185.335812368 14.5116005695 c 0
 200.171624735 0.5 200.171624735 0.5 224 0.5 c 0
 247.828375265 0.5 247.828375265 0.5 262.664187632 14.5116005695 c 0
 277.5 28.523201139 277.5 28.523201139 277.5 54 c 0
EndSplineSet
EndChar

StartChar: A
Encoding: 65 65 3
Width: 490
GlyphClass: 2
Flags: W
LayerCount: 2
UndoRedoHistory
Layer: 1
Undoes
UndoOperation
Index: 0
Type: 1
WasModified: 1
WasOrder2: 1
Layer: 2
Width: 448
VWidth: 1024
LBearingChange: 0
UnicodeEnc: 0
InstructionsLength: 0
SplineSet
338 0 m 1,0,1
 330 92 330 92 315 192 c 1,2,-1
 133 192 l 1,3,4
 118 92 118 92 110 0 c 1,5,-1
 35 0 l 1,6,7
 50 187 50 187 90 353.5 c 128,-1,8
 130 520 130 520 192 643 c 1,9,-1
 256 643 l 1,10,11
 318 520 318 520 358 353.5 c 128,-1,12
 398 187 398 187 413 0 c 1,13,-1
 338 0 l 1,0,1
304 256 m 1,14,15
 272 429 272 429 224 551 c 1,16,17
 176 429 176 429 144 256 c 1,18,-1
 304 256 l 1,14,15
EndSplineSet
EndUndoOperation
EndUndoes
Redoes
EndRedoes
EndUndoRedoHistory
Fore
SplineSet
131.00390625 -0 m 1,0,-1
 35 -0 l 1,1,2
 50.9697265625 192.741210938 50.9697265625 192.741210938 91.208984375 354.916992188 c 128,-1,3
 131.494017702 517.092773438 131.494017702 517.092773438 200.33103099 637.215820312 c 2,4,5
 201.935716073 629.608398438 201.935716073 629.608398438 203.539326351 643 c 1,6,-1
 288.212528531 643 l 1,7,8
 289.817213614 629.608398438 289.817213614 629.608398438 291.421898697 637.215820312 c 2,9,10
 360.258911985 517.092773438 360.258911985 517.092773438 400.548828125 354.918945312 c 128,-1,11
 440.77734375 192.811523438 440.77734375 192.811523438 456.752929688 0 c 1,12,-1
 360.749023438 0 l 1,13,14
 351.455177547 91.7998046875 351.455177547 91.7998046875 336.065033068 181.5 c 1,15,-1
 155.687896619 181.5 l 1,16,17
 140.299901752 91.8271484375 140.299901752 91.8271484375 131.00390625 -0 c 1,0,-1
245.875927441 521.321289062 m 1,18,19
 202.387134516 412.69921875 202.387134516 412.69921875 171.756243567 266.5 c 1,20,-1
 319.99668612 266.5 l 1,21,22
 289.365795171 412.69921875 289.365795171 412.69921875 245.875927441 521.321289062 c 1,18,19
EndSplineSet
Substitution2: "'sups' Superscript in Latin lookup 9 subtable" A.sups
Substitution2: "'aalt' Access All Alternates in Latin lookup 0 subtable" A.sups
EndChar

StartChar: Aogonek
Encoding: 260 260 10
Width: 490
GlyphClass: 2
Flags: W
LayerCount: 2
UndoRedoHistory
Layer: 1
Undoes
UndoOperation
Index: 0
Type: 1
WasModified: 1
WasOrder2: 1
Layer: 2
Width: 448
VWidth: 1024
LBearingChange: 0
UnicodeEnc: 0
InstructionsLength: 0
SplineSet
430 -181 m 1,0,1
 402 -197 402 -197 366 -197 c 0,2,3
 325 -197 325 -197 303.5 -176 c 128,-1,4
 282 -155 282 -155 282 -118 c 0,5,6
 282 -58 282 -58 344 0 c 1,7,-1
 338 0 l 1,8,9
 330 92 330 92 315 192 c 1,10,-1
 133 192 l 1,11,12
 118 92 118 92 110 0 c 1,13,-1
 35 0 l 1,14,15
 50 187 50 187 90 353.5 c 128,-1,16
 130 520 130 520 192 643 c 1,17,-1
 256 643 l 1,18,19
 318 520 318 520 358 353.5 c 128,-1,20
 398 187 398 187 413 0 c 1,21,22
 382 -34 382 -34 367 -59.5 c 128,-1,23
 352 -85 352 -85 352 -108 c 0,24,25
 352 -136 352 -136 380 -136 c 0,26,27
 395 -136 395 -136 413 -128 c 1,28,-1
 430 -181 l 1,0,1
304 256 m 1,29,30
 272 429 272 429 224 551 c 1,31,32
 176 429 176 429 144 256 c 1,33,-1
 304 256 l 1,29,30
EndSplineSet
EndUndoOperation
EndUndoes
Redoes
EndRedoes
EndUndoRedoHistory
Fore
SplineSet
467.57421875 -179.623046875 m 2,0,1
 437.165039062 -197 437.165039062 -197 398.375976562 -197 c 0,2,3
 353.102539062 -197 353.102539062 -197 325.686443906 -173.010742188 c 0,4,5
 298.030014195 -148.918945312 298.030014195 -148.918945312 298.030014195 -107.5 c 0,6,7
 298.030014195 -47.7177734375 298.030014195 -47.7177734375 359.953125 9.16015625 c 1,8,9
 352.3046875 92.0595703125 352.3046875 92.0595703125 336.651345606 181.5 c 1,10,-1
 153.431640625 181.5 l 1,11,12
 139.450195312 91.8271484375 139.450195312 91.8271484375 131.00390625 -0 c 1,13,-1
 35 -0 l 1,14,15
 50.9697265625 192.741210938 50.9697265625 192.741210938 91.208984375 354.916992188 c 128,-1,16
 131.44921875 517.092773438 131.44921875 517.092773438 198.372481922 637.215820312 c 2,17,18
 200.007253066 629.608398438 200.007253066 629.608398438 201.640929253 643 c 1,19,-1
 287.901659819 643 l 1,20,21
 289.536430963 629.608398438 289.536430963 629.608398438 291.171202107 637.215820312 c 2,22,23
 360.303710938 517.133789062 360.303710938 517.133789062 400.548828125 355.015625 c 128,-1,24
 440.77734375 192.963867188 440.77734375 192.963867188 456.208007812 6.7978515625 c 1,25,26
 422.876953125 -29.7578125 422.876953125 -29.7578125 408.876953125 -53.55859375 c 128,-1,27
 394.875976562 -77.359375 394.875976562 -77.359375 394.875976562 -97.5 c 0,28,29
 394.875976562 -108.010742188 394.875976562 -108.010742188 399.244140625 -111.505859375 c 128,-1,30
 403.612304688 -115 403.612304688 -115 414.37890625 -115 c 128,-1,31
 425.14453125 -115 425.14453125 -115 441.120117188 -107.899414062 c 2,32,33
 446.461914062 -95.025390625 446.461914062 -95.025390625 451.803710938 -103.151367188 c 1,34,35
 463.389648438 -128.7734375 463.389648438 -128.7734375 474.975585938 -175.39453125 c 1,36,37
 471.275390625 -167.008789062 471.275390625 -167.008789062 467.57421875 -179.623046875 c 2,0,1
244.771294536 521.321289062 m 1,38,39
 200.467135102 412.69921875 200.467135102 412.69921875 169.261949009 266.5 c 1,40,-1
 320.28173502 266.5 l 1,41,42
 289.076548927 412.69921875 289.076548927 412.69921875 244.771294536 521.321289062 c 1,38,39
EndSplineSet
EndChar

StartChar: Aringacute
Encoding: 506 506 12
Width: 490
GlyphClass: 2
Flags: W
LayerCount: 2
UndoRedoHistory
Layer: 1
Undoes
UndoOperation
Index: 0
Type: 1
WasModified: 1
WasOrder2: 1
Layer: 2
Width: 448
VWidth: 1024
LBearingChange: 0
UnicodeEnc: 0
InstructionsLength: 0
SplineSet
338 0 m 1,0,1
 330 92 330 92 315 192 c 1,2,-1
 133 192 l 1,3,4
 118 92 118 92 110 0 c 1,5,-1
 35 0 l 1,6,7
 49 170 49 170 84 325 c 128,-1,8
 119 480 119 480 172 601 c 1,9,10
 148 615 148 615 134.5 638.5 c 128,-1,11
 121 662 121 662 121 690 c 0,12,13
 121 727 121 727 144 755 c 128,-1,14
 167 783 167 783 204 790 c 1,15,-1
 240 896 l 1,16,-1
 340 896 l 1,17,-1
 270 782 l 1,18,19
 296 769 296 769 311.5 744.5 c 128,-1,20
 327 720 327 720 327 690 c 0,21,22
 327 662 327 662 313.5 638.5 c 128,-1,23
 300 615 300 615 276 601 c 1,24,25
 329 480 329 480 364 325 c 128,-1,26
 399 170 399 170 413 0 c 1,27,-1
 338 0 l 1,0,1
192.5 722.5 m 128,-1,29
 180 709 180 709 180 690 c 256,30,31
 180 671 180 671 192.5 657.5 c 128,-1,32
 205 644 205 644 224 644 c 256,33,34
 243 644 243 644 255.5 657.5 c 128,-1,35
 268 671 268 671 268 690 c 256,36,37
 268 709 268 709 255.5 722.5 c 128,-1,38
 243 736 243 736 224 736 c 256,39,28
 205 736 205 736 192.5 722.5 c 128,-1,29
304 256 m 1,40,41
 272 429 272 429 224 551 c 1,42,43
 176 429 176 429 144 256 c 1,44,-1
 304 256 l 1,40,41
EndSplineSet
EndUndoOperation
EndUndoes
Redoes
EndRedoes
EndUndoRedoHistory
Fore
SplineSet
456.801757812 0 m 1,0,-1
 360.7734375 0 l 1,1,2
 351.47959161 91.7998046875 351.47959161 91.7998046875 336.089447131 181.5 c 1,3,-1
 155.712310682 181.5 l 1,4,5
 140.324315815 91.8271484375 140.324315815 91.8271484375 131.028320312 -0 c 1,6,-1
 35 -0 l 1,7,8
 49.9931640625 176.596679688 49.9931640625 176.596679688 84.5927734375 325.249023438 c 128,-1,9
 119.193359375 473.901367188 119.193359375 473.901367188 174.146305231 589.251953125 c 1,10,11
 151.187378196 603.282226562 151.187378196 603.282226562 136.084206871 626.452148438 c 0,12,13
 121.900390625 649.622070312 121.900390625 649.622070312 121.900390625 679.5 c 0,14,15
 121.900390625 720.256835938 121.900390625 720.256835938 147.855480167 749.982421875 c 0,16,17
 174.729924789 779.70703125 174.729924789 779.70703125 215.051264974 788.515625 c 1,18,19
 235.139385674 831.7578125 235.139385674 831.7578125 255.22858118 896 c 1,20,21
 324.727674851 885.5 324.727674851 885.5 391.168945312 896 c 1,22,23
 353.442187029 825.150390625 353.442187029 825.150390625 312.657605538 775.30078125 c 1,24,25
 336.637598097 761.630859375 336.637598097 761.630859375 351.976151896 739.602539062 c 0,26,27
 369.900390625 712.541992188 369.900390625 712.541992188 369.900390625 680.620117188 c 0,28,29
 369.900390625 649.653320312 369.900390625 649.653320312 355.716476136 626.482421875 c 0,30,31
 340.614379616 603.311523438 340.614379616 603.311523438 317.655452582 589.28125 c 1,32,33
 372.608398438 473.924804688 372.608398438 473.924804688 407.211914062 325.266601562 c 128,-1,34
 441.8046875 176.654296875 441.8046875 176.654296875 456.801757812 0 c 1,0,-1
219.533205227 704.694335938 m 128,-1,36
 209.030202793 694.388671875 209.030202793 694.388671875 209.030202793 679.5 c 128,-1,37
 209.030202793 664.611328125 209.030202793 664.611328125 219.533205227 654.305664062 c 128,-1,38
 230.035132854 644 230.035132854 644 245.900341503 644 c 128,-1,39
 261.765550153 644 261.765550153 644 272.268552586 654.305664062 c 128,-1,40
 282.770480214 664.611328125 282.770480214 664.611328125 282.770480214 679.5 c 128,-1,41
 282.770480214 694.388671875 282.770480214 694.388671875 272.268552586 704.694335938 c 128,-1,42
 261.765550153 715 261.765550153 715 245.900341503 715 c 128,-1,35
 230.035132854 715 230.035132854 715 219.533205227 704.694335938 c 128,-1,36
245.900341503 521.321289062 m 1,43,44
 202.411548579 412.69921875 202.411548579 412.69921875 171.78065763 266.5 c 1,45,-1
 320.020025377 266.5 l 1,46,47
 289.389134428 412.69921875 289.389134428 412.69921875 245.900341503 521.321289062 c 1,43,44
EndSplineSet
EndChar

StartChar: AE
Encoding: 198 198 14
Width: 490
GlyphClass: 2
Flags: W
LayerCount: 2
UndoRedoHistory
Layer: 1
Undoes
UndoOperation
Index: 0
Type: 1
WasModified: 1
WasOrder2: 1
Layer: 2
Width: 448
VWidth: 1024
LBearingChange: 0
UnicodeEnc: 0
InstructionsLength: 0
SplineSet
271 64 m 1,0,-1
 458 64 l 1,1,-1
 458 0 l 1,2,-1
 199 0 l 1,3,-1
 199 192 l 1,4,-1
 79 192 l 1,5,6
 64 92 64 92 56 0 c 1,7,-1
 -18 0 l 1,8,9
 -3 186 -3 186 36.5 352 c 128,-1,10
 76 518 76 518 136 640 c 1,11,-1
 448 640 l 1,12,-1
 448 576 l 1,13,-1
 271 576 l 1,14,-1
 271 320 l 1,15,-1
 394 320 l 1,16,-1
 394 256 l 1,17,-1
 271 256 l 1,18,-1
 271 64 l 1,0,-1
199 256 m 1,19,-1
 199 576 l 1,20,-1
 181 576 l 1,21,22
 125 449 125 449 90 256 c 1,23,-1
 199 256 l 1,19,-1
EndSplineSet
EndUndoOperation
EndUndoes
Redoes
EndRedoes
EndUndoRedoHistory
Fore
SplineSet
436.881835938 245.5 m 1,0,-1
 313.881835938 245.5 l 1,1,-1
 313.881835938 85 l 1,2,-1
 500.881835938 85 l 1,3,4
 500.881835938 53 500.881835938 53 500.881835938 0 c 1,5,-1
 220.881835938 0 l 1,6,-1
 220.881835938 181.5 l 1,7,-1
 103.269605093 181.5 l 1,8,9
 86.8986174107 91.8271484375 86.8986174107 91.8271484375 77.0087890625 -0 c 1,10,-1
 -18 -0 l 1,11,12
 -2.025390625 191.737304688 -2.025390625 191.737304688 37.7060546875 353.377929688 c 128,-1,13
 77.5096267104 515.017578125 77.5096267104 515.017578125 148.369006165 634.124023438 c 2,14,15
 150.061334291 626.561523438 150.061334291 626.561523438 151.752518951 640 c 1,16,-1
 490.881835938 640 l 1,17,18
 490.881835938 587 490.881835938 587 490.881835938 555 c 1,19,-1
 313.881835938 555 l 1,20,-1
 313.881835938 330.5 l 1,21,-1
 436.881835938 330.5 l 1,22,-1
 436.881835938 245.5 l 1,0,-1
120.31409363 266.5 m 1,23,-1
 220.881835938 266.5 l 1,24,-1
 220.881835938 565.5 l 1,25,26
 159.452611921 445.291992188 159.452611921 445.291992188 120.31409363 266.5 c 1,23,-1
EndSplineSet
EndChar

StartChar: B
Encoding: 66 66 16
Width: 490
Flags: W
LayerCount: 2
UndoRedoHistory
Layer: 1
Undoes
UndoOperation
Index: 0
Type: 1
WasModified: 1
WasOrder2: 1
Layer: 2
Width: 448
VWidth: 1024
LBearingChange: 0
UnicodeEnc: 0
InstructionsLength: 0
SplineSet
382.5 260.5 m 128,-1,1
 411 224 411 224 411 168 c 0,2,3
 411 88 411 88 357 44 c 128,-1,4
 303 0 303 0 212 0 c 2,5,-1
 60 0 l 1,6,-1
 60 640 l 1,7,-1
 192 640 l 2,8,9
 286 640 286 640 338 598.5 c 128,-1,10
 390 557 390 557 390 476 c 0,11,12
 390 387 390 387 304 312 c 1,13,0
 354 297 354 297 382.5 260.5 c 128,-1,1
132 576 m 1,14,-1
 132 336 l 1,15,-1
 242 336 l 1,16,17
 276 361 276 361 294 399 c 128,-1,18
 312 437 312 437 312 476 c 0,19,20
 312 527 312 527 283 551.5 c 128,-1,21
 254 576 254 576 184 576 c 2,22,-1
 132 576 l 1,14,-1
202 64 m 2,23,24
 275 64 275 64 305 90 c 128,-1,25
 335 116 335 116 335 170 c 0,26,27
 335 219 335 219 304 245.5 c 128,-1,28
 273 272 273 272 202 272 c 2,29,-1
 132 272 l 1,30,-1
 132 64 l 1,31,-1
 202 64 l 2,23,24
EndSplineSet
EndUndoOperation
EndUndoes
Redoes
EndRedoes
EndUndoRedoHistory
Fore
SplineSet
422.280273438 268.639648438 m 0,0,1
 453 230.546875 453 230.546875 453 172.829101562 c 0,2,3
 453 90.54296875 453 90.54296875 395.6171875 45.271484375 c 128,-1,4
 338.233398438 0 338.233398438 0 226.43922341 0 c 2,5,-1
 60 0 l 1,6,7
 60 320 60 320 60 640 c 1,8,-1
 202.5 640 l 2,9,10
 319.411779641 640 319.411779641 640 376.586914062 597.180664062 c 0,11,12
 432 554.362304688 432 554.362304688 432 470.811523438 c 128,-1,13
 432 387.260742188 432 387.260742188 355.553710938 316.236328125 c 1,14,15
 396.845703125 300.178710938 396.845703125 300.178710938 422.280273438 268.639648438 c 0,0,1
313.732058618 401.604492188 m 0,16,17
 333 434.911132812 333 434.911132812 333 469.791015625 c 0,18,19
 333 513.70703125 333 513.70703125 302.841348437 534.353515625 c 0,20,21
 272.11661761 555 272.11661761 555 194.5 555 c 2,22,-1
 153 555 l 1,23,-1
 153 346.5 l 1,24,-1
 258.158694429 346.5 l 1,25,26
 293.896869065 368.297851562 293.896869065 368.297851562 313.732058618 401.604492188 c 0,16,17
153 85 m 1,27,-1
 214.469611705 85 l 2,28,29
 297.162796321 85 297.162796321 85 329.130075707 106.846679688 c 0,30,31
 356 128.692382812 356 128.692382812 356 175.137695312 c 0,32,33
 356 216.822265625 356 216.822265625 327.957661592 239.161132812 c 0,34,35
 294.817968091 261.5 294.817968091 261.5 214.469611705 261.5 c 2,36,-1
 153 261.5 l 1,37,-1
 153 85 l 1,27,-1
EndSplineSet
Substitution2: "'sups' Superscript in Latin lookup 9 subtable" B.sups
Substitution2: "'aalt' Access All Alternates in Latin lookup 0 subtable" B.sups
EndChar

StartChar: C
Encoding: 67 67 17
Width: 490
GlyphClass: 2
Flags: W
LayerCount: 2
UndoRedoHistory
Layer: 1
Undoes
UndoOperation
Index: 0
Type: 1
WasModified: 1
WasOrder2: 1
Layer: 2
Width: 448
VWidth: 1024
LBearingChange: 0
UnicodeEnc: 0
InstructionsLength: 0
SplineSet
148.5 23 m 128,-1,1
 102 55 102 55 81 126 c 128,-1,2
 60 197 60 197 60 319 c 256,3,4
 60 441 60 441 81 512 c 128,-1,5
 102 583 102 583 148.5 615 c 128,-1,6
 195 647 195 647 274 647 c 0,7,8
 328 647 328 647 378 635 c 5,9,-1
 364 574 l 5,10,11
 320 583 320 583 280 583 c 0,12,13
 216 583 216 583 186 557 c 128,-1,14
 156 531 156 531 147 478 c 128,-1,15
 138 425 138 425 138 319 c 256,16,17
 138 213 138 213 147 160 c 128,-1,18
 156 107 156 107 186 81 c 128,-1,19
 216 55 216 55 280 55 c 0,20,21
 325 55 325 55 370 66 c 1,22,-1
 384 5 l 1,23,24
 333 -9 333 -9 274 -9 c 0,25,0
 195 -9 195 -9 148.5 23 c 128,-1,1
EndSplineSet
EndUndoOperation
EndUndoes
Redoes
EndRedoes
EndUndoRedoHistory
Fore
SplineSet
81.7412109375 128.078125 m 128,-1,1
 60 199.3046875 60 199.3046875 60 319 c 128,-1,2
 60 438.6953125 60 438.6953125 81.7412109375 509.921875 c 128,-1,3
 103.482421875 581.147460938 103.482421875 581.147460938 152.860351562 614.073242188 c 0,4,5
 206.253053202 647 206.253053202 647 305.5 647 c 0,6,7
 360.750976562 647 360.750976562 647 411.956054688 634.7109375 c 2,8,9
 417.008789062 622.998046875 417.008789062 622.998046875 422.061523438 632.28515625 c 1,10,11
 412.751953125 581.220703125 412.751953125 581.220703125 403.442382812 551.15625 c 1,12,13
 398.415039062 541.684570312 398.415039062 541.684570312 393.387695312 553.212890625 c 2,14,15
 350.428710938 562 350.428710938 562 311.5 562 c 0,16,17
 240.27518955 562 240.27518955 562 207.622051237 539.534179688 c 0,18,19
 176.223632812 516.98046875 176.223632812 516.98046875 167.612304688 468.366210938 c 128,-1,20
 159 419.752929688 159 419.752929688 159 319 c 128,-1,21
 159 218.247070312 159 218.247070312 167.612304688 169.633789062 c 128,-1,22
 176.223632812 121.01953125 176.223632812 121.01953125 207.622051237 98.4658203125 c 0,23,24
 240.27518955 76 240.27518955 76 311.5 76 c 0,25,26
 355.227539062 76 355.227539062 76 399.001953125 86.7001953125 c 2,27,28
 404.177734375 98.4658203125 404.177734375 98.4658203125 409.353515625 89.23046875 c 1,29,30
 418.669921875 59.1337890625 418.669921875 59.1337890625 427.987304688 8.037109375 c 1,31,32
 423.134765625 17.205078125 423.134765625 17.205078125 418.282226562 5.373046875 c 2,33,34
 365.922851562 -9 365.922851562 -9 305.5 -9 c 0,35,36
 206.253053202 -9 206.253053202 -9 152.860351562 23.9267578125 c 0,37,0
 103.482421875 56.8525390625 103.482421875 56.8525390625 81.7412109375 128.078125 c 128,-1,1
EndSplineSet
Substitution2: "'sups' Superscript in Latin lookup 9 subtable" C.sups
Substitution2: "'aalt' Access All Alternates in Latin lookup 0 subtable" C.sups
EndChar

StartChar: Ccedilla
Encoding: 199 199 20
Width: 490
GlyphClass: 2
Flags: W
LayerCount: 2
UndoRedoHistory
Layer: 1
Undoes
UndoOperation
Index: 0
Type: 1
WasModified: 1
WasOrder2: 1
Layer: 2
Width: 448
VWidth: 1024
LBearingChange: 0
UnicodeEnc: 0
InstructionsLength: 0
SplineSet
384 5 m 1,0,1
 354 -3 354 -3 322 -6 c 1,2,3
 319 -93 319 -93 278 -142.5 c 128,-1,4
 237 -192 237 -192 128 -192 c 1,5,-1
 126 -128 l 1,6,7
 174 -126 174 -126 200.5 -115 c 128,-1,8
 227 -104 227 -104 239.5 -79 c 128,-1,9
 252 -54 252 -54 254 -8 c 1,10,11
 183 -4 183 -4 140.5 29.5 c 128,-1,12
 98 63 98 63 79 133 c 128,-1,13
 60 203 60 203 60 319 c 0,14,15
 60 441 60 441 81 512 c 128,-1,16
 102 583 102 583 148.5 615 c 128,-1,17
 195 647 195 647 274 647 c 0,18,19
 328 647 328 647 378 635 c 1,20,-1
 364 574 l 1,21,22
 320 583 320 583 280 583 c 0,23,24
 216 583 216 583 186 557 c 128,-1,25
 156 531 156 531 147 478 c 128,-1,26
 138 425 138 425 138 319 c 256,27,28
 138 213 138 213 147 160 c 128,-1,29
 156 107 156 107 186 81 c 128,-1,30
 216 55 216 55 280 55 c 0,31,32
 325 55 325 55 370 66 c 1,33,-1
 384 5 l 1,0,1
EndSplineSet
EndUndoOperation
EndUndoes
Redoes
EndRedoes
EndUndoRedoHistory
Fore
SplineSet
268.039513572 -7.22265625 m 1,0,1
 187.096395156 -1.435546875 187.096395156 -1.435546875 144.5078125 30.537109375 c 0,2,3
 99.2724609375 65.0849609375 99.2724609375 65.0849609375 79.6357421875 135.178710938 c 128,-1,4
 60 205.271484375 60 205.271484375 60 321.9921875 c 128,-1,5
 60 438.712890625 60 438.712890625 81.7412109375 509.93359375 c 128,-1,6
 103.482421875 581.153320312 103.482421875 581.153320312 152.860351562 614.076171875 c 0,7,8
 206.252394716 647 206.252394716 647 305.5 647 c 0,9,10
 360.750976562 647 360.750976562 647 411.956054688 634.7109375 c 2,11,12
 417.008789062 622.998046875 417.008789062 622.998046875 422.061523438 632.28515625 c 1,13,14
 412.751953125 581.220703125 412.751953125 581.220703125 403.442382812 551.15625 c 1,15,16
 398.415039062 541.684570312 398.415039062 541.684570312 393.387695312 553.212890625 c 2,17,18
 350.428710938 562 350.428710938 562 311.5 562 c 0,19,20
 240.273572563 562 240.273572563 562 207.621354182 539.418945312 c 0,21,22
 176.223632812 516.75 176.223632812 516.75 167.612304688 467.887695312 c 128,-1,23
 159 419.025390625 159 419.025390625 159 317.7578125 c 128,-1,24
 159 216.489257812 159 216.489257812 167.612304688 167.626953125 c 128,-1,25
 176.223632812 118.765625 176.223632812 118.765625 207.621354182 96.0966796875 c 0,26,27
 240.273572563 73.515625 240.273572563 73.515625 311.5 73.515625 c 0,28,29
 355.227539062 73.515625 355.227539062 73.515625 399.001953125 83.8251953125 c 2,30,31
 404.177734375 92.345703125 404.177734375 92.345703125 409.353515625 86.2626953125 c 1,32,33
 418.678710938 55.80078125 418.678710938 55.80078125 428.00390625 7.9658203125 c 1,34,35
 391.643554688 -1.73046875 391.643554688 -1.73046875 363.571289062 -5 c 1,36,37
 358.6640625 -89.1015625 358.6640625 -89.1015625 317.58984375 -138.69140625 c 0,38,39
 266.861571706 -192 266.861571706 -192 138.5 -192 c 2,40,-1
 128.323242188 -192 l 1,41,42
 127.001953125 -139.220703125 127.001953125 -139.220703125 125.680664062 -107.44140625 c 1,43,44
 130.868164062 -96.7255859375 130.868164062 -96.7255859375 136.056640625 -107.008789062 c 2,45,46
 182.194335938 -105.086914062 182.194335938 -105.086914062 210.827384147 -95.1943359375 c 128,-1,47
 239.603831842 -85.3017578125 239.603831842 -85.3017578125 252.170903325 -64.484375 c 128,-1,48
 264.737974808 -43.6669921875 264.737974808 -43.6669921875 268.039513572 -7.22265625 c 1,0,1
EndSplineSet
EndChar

StartChar: D
Encoding: 68 68 23
Width: 490
GlyphClass: 2
Flags: W
LayerCount: 2
UndoRedoHistory
Layer: 1
Undoes
UndoOperation
Index: 0
Type: 1
WasModified: 1
WasOrder2: 1
Layer: 2
Width: 448
VWidth: 1024
LBearingChange: 0
UnicodeEnc: 0
InstructionsLength: 0
SplineSet
180 640 m 2,0,1
 257 640 257 640 304 607 c 128,-1,2
 351 574 351 574 372.5 503.5 c 128,-1,3
 394 433 394 433 394 317 c 256,4,5
 394 201 394 201 372.5 132 c 128,-1,6
 351 63 351 63 304.5 31.5 c 128,-1,7
 258 0 258 0 181 0 c 2,8,-1
 60 0 l 1,9,-1
 60 640 l 1,10,-1
 180 640 l 2,0,1
174 64 m 2,11,12
 237 64 237 64 267.5 89.5 c 128,-1,13
 298 115 298 115 307 166.5 c 128,-1,14
 316 218 316 218 316 317 c 0,15,16
 316 418 316 418 306.5 471 c 128,-1,17
 297 524 297 524 266.5 550 c 128,-1,18
 236 576 236 576 174 576 c 2,19,-1
 132 576 l 1,20,-1
 132 64 l 1,21,-1
 174 64 l 2,11,12
EndSplineSet
EndUndoOperation
EndUndoes
Redoes
EndRedoes
EndUndoRedoHistory
Fore
SplineSet
60 640 m 1,0,-1
 190.5 640 l 2,1,2
 287.413971013 640 287.413971013 640 341.654296875 606.119140625 c 0,3,4
 391.493164062 572.23828125 391.493164062 572.23828125 413.74609375 501.584960938 c 128,-1,5
 436 430.932617188 436 430.932617188 436 317.095703125 c 128,-1,6
 436 203.2265625 436 203.2265625 413.716796875 133.986328125 c 128,-1,7
 391.434570312 64.74609375 391.434570312 64.74609375 342.077148438 32.373046875 c 0,8,9
 288.505142858 0 288.505142858 0 191.706652234 0 c 2,10,-1
 60 0 l 1,11,12
 60 320 60 320 60 640 c 1,0,-1
153 85 m 1,13,-1
 184.5 85 l 2,14,15
 254.683529171 85 254.683529171 85 287.963092049 107.072265625 c 0,16,17
 319.815429688 129.116210938 319.815429688 129.116210938 328.408203125 176.1796875 c 128,-1,18
 337 223.2421875 337 223.2421875 337 318.07421875 c 128,-1,19
 337 412.907226562 337 412.907226562 327.913085938 461.435546875 c 128,-1,20
 318.825195312 509.963867188 318.825195312 509.963867188 286.663348481 532.51171875 c 0,21,22
 253.408531401 555 253.408531401 555 184.5 555 c 2,23,-1
 153 555 l 1,24,25
 153 320 153 320 153 85 c 1,13,-1
EndSplineSet
Substitution2: "'sups' Superscript in Latin lookup 9 subtable" D.sups
Substitution2: "'aalt' Access All Alternates in Latin lookup 0 subtable" D.sups
EndChar

StartChar: Eth
Encoding: 208 208 24
Width: 490
GlyphClass: 2
Flags: W
LayerCount: 2
UndoRedoHistory
Layer: 1
Undoes
UndoOperation
Index: 0
Type: 1
WasModified: 1
WasOrder2: 1
Layer: 2
Width: 448
VWidth: 1024
LBearingChange: 0
UnicodeEnc: 0
InstructionsLength: 0
SplineSet
180 640 m 2,0,1
 257 640 257 640 304 607 c 128,-1,2
 351 574 351 574 372.5 503.5 c 128,-1,3
 394 433 394 433 394 317 c 256,4,5
 394 201 394 201 372.5 132 c 128,-1,6
 351 63 351 63 304.5 31.5 c 128,-1,7
 258 0 258 0 181 0 c 2,8,-1
 60 0 l 1,9,-1
 60 256 l 1,10,-1
 5 256 l 1,11,-1
 5 320 l 1,12,-1
 60 320 l 1,13,-1
 60 640 l 1,14,-1
 180 640 l 2,0,1
174 64 m 2,15,16
 237 64 237 64 267.5 89.5 c 128,-1,17
 298 115 298 115 307 166.5 c 128,-1,18
 316 218 316 218 316 317 c 0,19,20
 316 418 316 418 306.5 471 c 128,-1,21
 297 524 297 524 266.5 550 c 128,-1,22
 236 576 236 576 174 576 c 2,23,-1
 132 576 l 1,24,-1
 132 320 l 1,25,-1
 236 320 l 1,26,-1
 236 256 l 1,27,-1
 132 256 l 1,28,-1
 132 64 l 1,29,-1
 174 64 l 2,15,16
EndSplineSet
EndUndoOperation
EndUndoes
Redoes
EndRedoes
EndUndoRedoHistory
Fore
SplineSet
60 640 m 1,0,-1
 190.5 640 l 2,1,2
 287.413971013 640 287.413971013 640 341.654296875 606.119140625 c 0,3,4
 391.493164062 572.23828125 391.493164062 572.23828125 413.74609375 501.584960938 c 128,-1,5
 436 430.932617188 436 430.932617188 436 317.095703125 c 128,-1,6
 436 203.2265625 436 203.2265625 413.716796875 133.986328125 c 128,-1,7
 391.434570312 64.74609375 391.434570312 64.74609375 342.077148438 32.373046875 c 0,8,9
 288.505142858 0 288.505142858 0 191.706652234 0 c 2,10,-1
 60 0 l 1,11,-1
 60 245.5 l 1,12,-1
 15.5 245.5 l 1,13,-1
 5 245.5 l 1,14,-1
 5 330.5 l 1,15,-1
 15.5 330.5 l 1,16,-1
 60 330.5 l 1,17,-1
 60 640 l 1,0,-1
153 85 m 1,18,-1
 184.5 85 l 2,19,20
 254.683529171 85 254.683529171 85 287.963092049 107.072265625 c 0,21,22
 319.815429688 129.116210938 319.815429688 129.116210938 328.408203125 176.1796875 c 128,-1,23
 337 223.2421875 337 223.2421875 337 318.07421875 c 128,-1,24
 337 412.907226562 337 412.907226562 327.913085938 461.435546875 c 128,-1,25
 318.825195312 509.963867188 318.825195312 509.963867188 286.663348481 532.51171875 c 0,26,27
 253.408531401 555 253.408531401 555 184.5 555 c 2,28,-1
 153 555 l 1,29,-1
 153 330.5 l 1,30,-1
 270.742373549 330.5 l 1,31,-1
 270.742373549 245.5 l 1,32,-1
 153 245.5 l 1,33,-1
 153 85 l 1,18,-1
EndSplineSet
EndChar

StartChar: E
Encoding: 69 69 27
Width: 490
GlyphClass: 2
Flags: W
LayerCount: 2
UndoRedoHistory
Layer: 1
Undoes
UndoOperation
Index: 0
Type: 1
WasModified: 1
WasOrder2: 1
Layer: 2
Width: 448
VWidth: 1024
LBearingChange: 0
UnicodeEnc: 0
InstructionsLength: 0
SplineSet
384 0 m 1,0,-1
 60 0 l 1,1,-1
 60 640 l 1,2,-1
 374 640 l 1,3,-1
 374 576 l 1,4,-1
 132 576 l 1,5,-1
 132 320 l 1,6,-1
 320 320 l 1,7,-1
 320 256 l 1,8,-1
 132 256 l 1,9,-1
 132 64 l 1,10,-1
 384 64 l 1,11,-1
 384 0 l 1,0,-1
EndSplineSet
EndUndoOperation
EndUndoes
Redoes
EndRedoes
EndUndoRedoHistory
Fore
SplineSet
426 85 m 1,0,1
 426 53 426 53 426 0 c 1,2,-1
 60 0 l 1,3,4
 60 320 60 320 60 640 c 1,5,-1
 416 640 l 1,6,7
 416 587 416 587 416 555 c 1,8,-1
 153 555 l 1,9,-1
 153 330.5 l 1,10,-1
 362 330.5 l 1,11,-1
 362 245.5 l 1,12,-1
 153 245.5 l 1,13,-1
 153 85 l 1,14,-1
 426 85 l 1,0,1
EndSplineSet
Substitution2: "'sups' Superscript in Latin lookup 9 subtable" E.sups
Substitution2: "'aalt' Access All Alternates in Latin lookup 0 subtable" E.sups
EndChar

StartChar: Eogonek
Encoding: 280 280 36
Width: 490
GlyphClass: 2
Flags: W
LayerCount: 2
UndoRedoHistory
Layer: 1
Undoes
UndoOperation
Index: 0
Type: 1
WasModified: 1
WasOrder2: 1
Layer: 2
Width: 448
VWidth: 1024
LBearingChange: 0
UnicodeEnc: 0
InstructionsLength: 0
SplineSet
401 -181 m 1,0,1
 373 -197 373 -197 337 -197 c 0,2,3
 296 -197 296 -197 274.5 -176 c 128,-1,4
 253 -155 253 -155 253 -118 c 0,5,6
 253 -58 253 -58 315 0 c 1,7,-1
 60 0 l 1,8,-1
 60 640 l 1,9,-1
 374 640 l 1,10,-1
 374 576 l 1,11,-1
 132 576 l 1,12,-1
 132 320 l 1,13,-1
 320 320 l 1,14,-1
 320 256 l 1,15,-1
 132 256 l 1,16,-1
 132 64 l 1,17,-1
 384 64 l 1,18,-1
 384 0 l 1,19,20
 353 -34 353 -34 338 -59.5 c 128,-1,21
 323 -85 323 -85 323 -108 c 0,22,23
 323 -136 323 -136 351 -136 c 0,24,25
 366 -136 366 -136 384 -128 c 1,26,-1
 401 -181 l 1,0,1
EndSplineSet
EndUndoOperation
EndUndoes
Redoes
EndRedoes
EndUndoRedoHistory
Fore
SplineSet
437.698242188 -179.623046875 m 2,0,1
 407.2890625 -197 407.2890625 -197 368.5 -197 c 0,2,3
 323.225585938 -197 323.225585938 -197 294.485292711 -173.010742188 c 0,4,5
 265.443273722 -148.918945312 265.443273722 -148.918945312 265.443273722 -107.5 c 0,6,7
 265.443273722 -52.541015625 265.443273722 -52.541015625 321.286234176 0 c 1,8,-1
 60 0 l 1,9,10
 60 320 60 320 60 640 c 1,11,-1
 416 640 l 1,12,13
 416 587 416 587 416 555 c 1,14,-1
 153 555 l 1,15,-1
 153 330.5 l 1,16,-1
 362 330.5 l 1,17,-1
 362 245.5 l 1,18,-1
 153 245.5 l 1,19,-1
 153 85 l 1,20,-1
 426 85 l 1,21,22
 426 56.2177734375 426 56.2177734375 426 6.4345703125 c 1,23,24
 393.000976562 -29.7578125 393.000976562 -29.7578125 379 -53.55859375 c 128,-1,25
 365 -77.359375 365 -77.359375 365 -97.5 c 0,26,27
 365 -108.010742188 365 -108.010742188 369.368164062 -111.505859375 c 128,-1,28
 373.736328125 -115 373.736328125 -115 384.501953125 -115 c 128,-1,29
 395.268554688 -115 395.268554688 -115 411.244140625 -107.899414062 c 2,30,31
 416.584960938 -95.025390625 416.584960938 -95.025390625 421.926757812 -103.151367188 c 1,32,33
 433.512695312 -128.7734375 433.512695312 -128.7734375 445.098632812 -175.39453125 c 1,34,35
 441.3984375 -167.008789062 441.3984375 -167.008789062 437.698242188 -179.623046875 c 2,0,1
EndSplineSet
EndChar

StartChar: F
Encoding: 70 70 37
Width: 490
GlyphClass: 2
Flags: W
LayerCount: 2
UndoRedoHistory
Layer: 1
Undoes
UndoOperation
Index: 0
Type: 1
WasModified: 1
WasOrder2: 1
Layer: 2
Width: 448
VWidth: 1024
LBearingChange: 0
UnicodeEnc: 0
InstructionsLength: 0
SplineSet
132 0 m 1,0,-1
 60 0 l 1,1,-1
 60 640 l 1,2,-1
 384 640 l 1,3,-1
 384 576 l 1,4,-1
 132 576 l 1,5,-1
 132 320 l 1,6,-1
 320 320 l 1,7,-1
 320 256 l 1,8,-1
 132 256 l 1,9,-1
 132 0 l 1,0,-1
EndSplineSet
EndUndoOperation
EndUndoes
Redoes
EndRedoes
EndUndoRedoHistory
Fore
SplineSet
153 245.5 m 1,0,-1
 153 0 l 1,1,-1
 60 0 l 1,2,3
 60 320 60 320 60 640 c 1,4,-1
 426 640 l 1,5,6
 426 587 426 587 426 555 c 1,7,-1
 153 555 l 1,8,-1
 153 330.5 l 1,9,-1
 362 330.5 l 1,10,-1
 362 245.5 l 1,11,-1
 153 245.5 l 1,0,-1
EndSplineSet
Substitution2: "'sups' Superscript in Latin lookup 9 subtable" F.sups
Substitution2: "'aalt' Access All Alternates in Latin lookup 0 subtable" F.sups
EndChar

StartChar: G
Encoding: 71 71 38
Width: 490
GlyphClass: 2
Flags: W
LayerCount: 2
UndoRedoHistory
Layer: 1
Undoes
UndoOperation
Index: 0
Type: 1
WasModified: 1
WasOrder2: 1
Layer: 2
Width: 448
VWidth: 1024
LBearingChange: 0
UnicodeEnc: 0
InstructionsLength: 0
SplineSet
265 321 m 1,0,-1
 388 320 l 1,1,-1
 388 7 l 1,2,3
 361 -1 361 -1 328 -5 c 128,-1,4
 295 -9 295 -9 268 -9 c 0,5,6
 189 -9 189 -9 142.5 23 c 128,-1,7
 96 55 96 55 75 126 c 128,-1,8
 54 197 54 197 54 319 c 256,9,10
 54 441 54 441 75 512 c 128,-1,11
 96 583 96 583 142.5 615 c 128,-1,12
 189 647 189 647 268 647 c 0,13,14
 328 647 328 647 385 632 c 1,15,-1
 371 571 l 1,16,17
 320 583 320 583 274 583 c 0,18,19
 210 583 210 583 180 557 c 128,-1,20
 150 531 150 531 141 478 c 128,-1,21
 132 425 132 425 132 319 c 256,22,23
 132 213 132 213 141 160 c 128,-1,24
 150 107 150 107 180 81 c 128,-1,25
 210 55 210 55 274 55 c 0,26,27
 291 55 291 55 316 58 c 1,28,-1
 316 255 l 1,29,-1
 267 257 l 1,30,-1
 265 321 l 1,0,-1
EndSplineSet
EndUndoOperation
EndUndoes
Redoes
EndRedoes
EndUndoRedoHistory
Fore
SplineSet
281.539431527 342.088867188 m 1,0,1
 357.83203125 352.001953125 357.83203125 352.001953125 430 340.915039062 c 1,2,3
 430 185.786132812 430 185.786132812 430 9.658203125 c 1,4,5
 367.030273438 -9 367.030273438 -9 298.035151959 -9 c 0,6,7
 199.958500206 -9 199.958500206 -9 146.860351562 23.9267578125 c 0,8,9
 97.482421875 56.8525390625 97.482421875 56.8525390625 75.7412109375 128.078125 c 128,-1,10
 54 199.3046875 54 199.3046875 54 319 c 128,-1,11
 54 438.6953125 54 438.6953125 75.7412109375 509.921875 c 128,-1,12
 97.482421875 581.147460938 97.482421875 581.147460938 146.860351562 614.073242188 c 0,13,14
 199.958500206 647 199.958500206 647 298.035151959 647 c 0,15,16
 360.866210938 647 360.866210938 647 419.17578125 631.655273438 c 2,17,18
 424.09375 619.861328125 424.09375 619.861328125 429.01171875 629.067382812 c 1,19,20
 419.692382812 577.962890625 419.692382812 577.962890625 410.374023438 547.858398438 c 1,21,22
 405.231445312 538.568359375 405.231445312 538.568359375 400.08984375 550.278320312 c 2,23,24
 350.2734375 562 350.2734375 562 305.188575613 562 c 0,25,26
 233.551881179 562 233.551881179 562 201.310245789 539.534179688 c 0,27,28
 170.223632812 516.98046875 170.223632812 516.98046875 161.612304688 468.366210938 c 128,-1,29
 153 419.752929688 153 419.752929688 153 319 c 128,-1,30
 153 218.247070312 153 218.247070312 161.612304688 169.633789062 c 128,-1,31
 170.223632812 121.01953125 170.223632812 121.01953125 201.310245789 98.4658203125 c 0,32,33
 233.551881179 76 233.551881179 76 305.188575613 76 c 0,34,35
 318.618164062 76 318.618164062 76 337 77.892578125 c 1,36,37
 337 177.15625 337 177.15625 337 255.419921875 c 1,38,39
 317.532226562 266.713867188 317.532226562 266.713867188 296.324803758 257.008789062 c 1,40,41
 290.509154156 267.708007812 290.509154156 267.708007812 284.694668848 257.407226562 c 1,42,43
 283.117050188 310.248046875 283.117050188 310.248046875 281.539431527 342.088867188 c 1,0,1
EndSplineSet
Substitution2: "'sups' Superscript in Latin lookup 9 subtable" G.sups
Substitution2: "'aalt' Access All Alternates in Latin lookup 0 subtable" G.sups
EndChar

StartChar: H
Encoding: 72 72 43
Width: 490
GlyphClass: 2
Flags: W
LayerCount: 2
UndoRedoHistory
Layer: 1
Undoes
UndoOperation
Index: 0
Type: 1
WasModified: 1
WasOrder2: 1
Layer: 2
Width: 448
VWidth: 1024
LBearingChange: 0
UnicodeEnc: 0
InstructionsLength: 0
SplineSet
132 0 m 1,0,-1
 60 0 l 1,1,-1
 60 640 l 1,2,-1
 132 640 l 1,3,-1
 132 320 l 1,4,-1
 316 320 l 1,5,-1
 316 640 l 1,6,-1
 388 640 l 1,7,-1
 388 0 l 1,8,-1
 316 0 l 1,9,-1
 316 256 l 1,10,-1
 132 256 l 1,11,-1
 132 0 l 1,0,-1
EndSplineSet
EndUndoOperation
EndUndoes
Redoes
EndRedoes
EndUndoRedoHistory
Fore
SplineSet
153 245.5 m 1,0,-1
 153 0 l 1,1,-1
 60 0 l 1,2,3
 60 320 60 320 60 640 c 1,4,-1
 153 640 l 1,5,-1
 153 330.5 l 1,6,-1
 337 330.5 l 1,7,-1
 337 640 l 1,8,-1
 430 640 l 1,9,10
 430 320 430 320 430 0 c 1,11,-1
 337 0 l 1,12,-1
 337 245.5 l 1,13,-1
 153 245.5 l 1,0,-1
EndSplineSet
Substitution2: "'sups' Superscript in Latin lookup 9 subtable" H.sups
Substitution2: "'aalt' Access All Alternates in Latin lookup 0 subtable" H.sups
EndChar

StartChar: Hbar
Encoding: 294 294 44
Width: 490
GlyphClass: 2
Flags: W
LayerCount: 2
UndoRedoHistory
Layer: 1
Undoes
UndoOperation
Index: 0
Type: 1
WasModified: 1
WasOrder2: 1
Layer: 2
Width: 448
VWidth: 1024
LBearingChange: 0
UnicodeEnc: 0
InstructionsLength: 0
SplineSet
388 500 m 1,0,-1
 438 500 l 1,1,-1
 438 440 l 1,2,-1
 388 440 l 1,3,-1
 388 0 l 1,4,-1
 316 0 l 1,5,-1
 316 256 l 1,6,-1
 132 256 l 1,7,-1
 132 0 l 1,8,-1
 60 0 l 1,9,-1
 60 440 l 1,10,-1
 10 440 l 1,11,-1
 10 500 l 1,12,-1
 60 500 l 1,13,-1
 60 640 l 1,14,-1
 132 640 l 1,15,-1
 132 500 l 1,16,-1
 316 500 l 1,17,-1
 316 640 l 1,18,-1
 388 640 l 1,19,-1
 388 500 l 1,0,-1
132 320 m 1,20,-1
 316 320 l 1,21,-1
 316 440 l 1,22,-1
 132 440 l 1,23,-1
 132 320 l 1,20,-1
EndSplineSet
EndUndoOperation
EndUndoes
Redoes
EndRedoes
EndUndoRedoHistory
Fore
SplineSet
153 500 m 1,0,-1
 337 500 l 1,1,2
 337 559.5 337 559.5 337 640 c 1,3,-1
 430 640 l 1,4,5
 430 564.2109375 430 564.2109375 430 504.448242188 c 1,6,-1
 469.5 504.448242188 l 1,7,-1
 480 504.448242188 l 1,8,9
 480 460.620117188 480 460.620117188 480 426.021484375 c 1,10,-1
 469.5 426.021484375 l 1,11,-1
 430 426.021484375 l 1,12,13
 430 216.409179688 430 216.409179688 430 0 c 1,14,-1
 337 0 l 1,15,-1
 337 245.5 l 1,16,-1
 153 245.5 l 1,17,-1
 153 0 l 1,18,-1
 60 0 l 1,19,20
 60 216.409179688 60 216.409179688 60 426.021484375 c 1,21,-1
 20.5 426.021484375 l 1,22,-1
 10 426.021484375 l 1,23,24
 10 460.620117188 10 460.620117188 10 504.448242188 c 1,25,-1
 20.5 504.448242188 l 1,26,-1
 60 504.448242188 l 1,27,28
 60 564.2109375 60 564.2109375 60 640 c 1,29,-1
 153 640 l 1,30,31
 153 559.5 153 559.5 153 500 c 1,0,-1
337 429.5 m 1,32,-1
 153 429.5 l 1,33,-1
 153 330.5 l 1,34,-1
 337 330.5 l 1,35,-1
 337 429.5 l 1,32,-1
EndSplineSet
EndChar

StartChar: I
Encoding: 73 73 46
Width: 469
GlyphClass: 2
Flags: W
LayerCount: 2
UndoRedoHistory
Layer: 1
Undoes
UndoOperation
Index: 0
Type: 1
WasModified: 1
WasOrder2: 1
Layer: 2
Width: 448
VWidth: 1024
LBearingChange: 0
UnicodeEnc: 0
InstructionsLength: 0
SplineSet
301.200195312 0 m 1,0,-1
 152.799804688 0 l 1,1,-1
 152.799804688 54 l 1,2,-1
 184 67 l 1,3,-1
 186 574 l 1,4,-1
 155.200195312 586 l 1,5,-1
 155.200195312 640 l 1,6,-1
 298.799804688 640 l 1,7,-1
 298.799804688 586 l 1,8,-1
 267 575 l 1,9,-1
 265 71 l 1,10,-1
 301.200195312 54 l 1,11,-1
 301.200195312 0 l 1,0,-1
EndSplineSet
EndUndoOperation
EndUndoes
Redoes
EndRedoes
EndUndoRedoHistory
Fore
SplineSet
322.200195312 71.1005859375 m 1,0,1
 322.200195312 46.005859375 322.200195312 46.005859375 322.200195312 0 c 1,2,-1
 152.799804688 0 l 1,3,4
 152.799804688 26.578125 152.799804688 26.578125 152.799804688 52.0380859375 c 1,5,6
 156.034179688 46.228515625 156.034179688 46.228515625 159.268554688 54 c 1,7,8
 171.6484375 49.4921875 171.6484375 49.4921875 184.02734375 64.7080078125 c 1,9,10
 185 320.55078125 185 320.55078125 185.971679688 576.262695312 c 1,11,12
 173.932617188 591.10546875 173.932617188 591.10546875 161.893554688 586 c 1,13,14
 158.546875 593.803710938 158.546875 593.803710938 155.200195312 587.895507812 c 1,15,16
 155.200195312 613.4296875 155.200195312 613.4296875 155.200195312 640 c 1,17,-1
 319.799804688 640 l 1,18,19
 319.799804688 613.435546875 319.799804688 613.435546875 319.799804688 587.774414062 c 1,20,21
 316.264648438 593.845703125 316.264648438 593.845703125 312.729492188 586 c 1,22,23
 300.349609375 591.642578125 300.349609375 591.642578125 287.970703125 577.443359375 c 1,24,25
 286.998046875 342.921875 286.998046875 342.921875 286.026367188 88.072265625 c 1,26,27
 301.090820312 91.4150390625 301.090820312 91.4150390625 316.154296875 73.9375 c 1,28,29
 319.176757812 82.9375 319.176757812 82.9375 322.200195312 71.1005859375 c 1,0,1
EndSplineSet
Substitution2: "'sups' Superscript in Latin lookup 9 subtable" I.sups
Substitution2: "'aalt' Access All Alternates in Latin lookup 0 subtable" I.sups
EndChar

StartChar: IJ
Encoding: 306 306 47
Width: 490
GlyphClass: 2
Flags: W
LayerCount: 2
UndoRedoHistory
Layer: 1
Undoes
UndoOperation
Index: 0
Type: 1
WasModified: 1
WasOrder2: 1
Layer: 2
Width: 448
VWidth: 1024
LBearingChange: 0
UnicodeEnc: 0
InstructionsLength: 0
SplineSet
6 0 m 1,0,-1
 6 54 l 1,1,-1
 66 64 l 1,2,-1
 66 576 l 1,3,-1
 10 586 l 1,4,-1
 10 640 l 1,5,-1
 194 640 l 1,6,-1
 194 586 l 1,7,-1
 138 576 l 1,8,-1
 138 64 l 1,9,-1
 230 64 l 2,10,11
 282 64 282 64 302 92.5 c 128,-1,12
 322 121 322 121 322 177 c 2,13,-1
 322 576 l 1,14,-1
 238 576 l 1,15,-1
 238 640 l 1,16,-1
 394 640 l 1,17,-1
 394 181 l 2,18,19
 394 88 394 88 350 44 c 128,-1,20
 306 0 306 0 230 0 c 2,21,-1
 6 0 l 1,0,-1
EndSplineSet
EndUndoOperation
EndUndoes
Redoes
EndRedoes
EndUndoRedoHistory
Fore
SplineSet
261.5 0 m 2,0,-1
 6 0 l 1,1,2
 6 47.1748046875 6 47.1748046875 6 73.3759765625 c 1,3,4
 36 88.849609375 36 88.849609375 66 83.373046875 c 1,5,6
 66 340.864257812 66 340.864257812 66 577.545898438 c 1,7,8
 42.322265625 592.107421875 42.322265625 592.107421875 18.64453125 586 c 1,9,10
 14.322265625 593.860351562 14.322265625 593.860351562 10 587.114257812 c 1,11,12
 10 613.342773438 10 613.342773438 10 640 c 1,13,-1
 215 640 l 1,14,15
 215 613.342773438 215 613.342773438 215 587.114257812 c 1,16,17
 210.677734375 593.860351562 210.677734375 593.860351562 206.35546875 586 c 1,18,19
 182.677734375 592.107421875 182.677734375 592.107421875 159 577.546875 c 1,20,21
 159 341.689453125 159 341.689453125 159 85 c 1,22,-1
 261.5 85 l 2,23,24
 308.041992188 85 308.041992188 85 325.521484375 108.841796875 c 128,-1,25
 343 132.684570312 343 132.684570312 343 183.116210938 c 2,26,27
 343 366.959960938 343 366.959960938 343 555 c 1,28,-1
 259 555 l 1,29,30
 259 587 259 587 259 640 c 1,31,-1
 436 640 l 1,32,33
 436 409.762695312 436 409.762695312 436 185.416015625 c 2,34,35
 436 91.162109375 436 91.162109375 388.922851562 45.5810546875 c 128,-1,36
 341.846679688 0 341.846679688 0 261.5 0 c 2,0,-1
EndSplineSet
EndChar

StartChar: Iogonek
Encoding: 302 302 55
Width: 490
GlyphClass: 2
Flags: W
LayerCount: 2
UndoRedoHistory
Layer: 1
Undoes
UndoOperation
Index: 0
Type: 1
WasModified: 1
WasOrder2: 1
Layer: 2
Width: 448
VWidth: 1024
LBearingChange: 0
UnicodeEnc: 0
InstructionsLength: 0
SplineSet
393 -181 m 1,0,1
 365 -197 365 -197 329 -197 c 0,2,3
 288 -197 288 -197 266.5 -176 c 128,-1,4
 245 -155 245 -155 245 -118 c 0,5,6
 245 -58 245 -58 307 0 c 1,7,-1
 72 0 l 1,8,-1
 72 54 l 1,9,-1
 188 64 l 1,10,-1
 188 576 l 1,11,-1
 76 586 l 1,12,-1
 76 640 l 1,13,-1
 372 640 l 1,14,-1
 372 586 l 1,15,-1
 260 576 l 1,16,-1
 260 64 l 1,17,-1
 376 54 l 1,18,-1
 376 0 l 1,19,20
 345 -34 345 -34 330 -59.5 c 128,-1,21
 315 -85 315 -85 315 -108 c 0,22,23
 315 -136 315 -136 343 -136 c 0,24,25
 358 -136 358 -136 376 -128 c 1,26,-1
 393 -181 l 1,0,1
EndSplineSet
EndUndoOperation
EndUndoes
Redoes
EndRedoes
EndUndoRedoHistory
Fore
SplineSet
429.698242188 -179.623046875 m 2,0,1
 399.2890625 -197 399.2890625 -197 360.5 -197 c 0,2,3
 315.225585938 -197 315.225585938 -197 285.635220622 -173.010742188 c 0,4,5
 255.703016403 -148.918945312 255.703016403 -148.918945312 255.703016403 -107.5 c 0,6,7
 255.703016403 -52.541015625 255.703016403 -52.541015625 313.257654638 0 c 1,8,-1
 72 0 l 1,9,10
 72 27.3154296875 72 27.3154296875 72 54 c 1,11,12
 130 49.38671875 130 49.38671875 188 64.375 c 1,13,14
 188 319.984375 188 319.984375 188 575.625 c 1,15,16
 132 590.583007812 132 590.583007812 76 586 c 1,17,18
 76 612.673828125 76 612.673828125 76 640 c 1,19,-1
 414 640 l 1,20,21
 414 612.673828125 414 612.673828125 414 586 c 1,22,23
 358 590.583007812 358 590.583007812 299.390737681 575.625 c 1,24,25
 299.390737681 319.984375 299.390737681 319.984375 299.390737681 64.375 c 1,26,27
 360 49.38671875 360 49.38671875 418 54 c 1,28,29
 418 30.521484375 418 30.521484375 418 6.4345703125 c 1,30,31
 385.000976562 -29.7578125 385.000976562 -29.7578125 371 -53.55859375 c 128,-1,32
 357 -77.359375 357 -77.359375 357 -97.5 c 0,33,34
 357 -108.010742188 357 -108.010742188 361.368164062 -111.505859375 c 128,-1,35
 365.736328125 -115 365.736328125 -115 376.501953125 -115 c 128,-1,36
 387.268554688 -115 387.268554688 -115 403.244140625 -107.899414062 c 2,37,38
 408.584960938 -95.025390625 408.584960938 -95.025390625 413.926757812 -103.151367188 c 1,39,40
 425.512695312 -128.7734375 425.512695312 -128.7734375 437.098632812 -175.39453125 c 1,41,42
 433.3984375 -167.008789062 433.3984375 -167.008789062 429.698242188 -179.623046875 c 2,0,1
EndSplineSet
EndChar

StartChar: J
Encoding: 74 74 57
Width: 490
GlyphClass: 2
Flags: W
LayerCount: 2
UndoRedoHistory
Layer: 1
Undoes
UndoOperation
Index: 0
Type: 1
WasModified: 1
WasOrder2: 1
Layer: 2
Width: 448
VWidth: 1024
LBearingChange: 0
UnicodeEnc: 0
InstructionsLength: 0
SplineSet
130 137 m 1,0,1
 140 96 140 96 161.5 76 c 128,-1,2
 183 56 183 56 224 56 c 0,3,4
 276 56 276 56 296 84.5 c 128,-1,5
 316 113 316 113 316 169 c 2,6,-1
 316 576 l 1,7,-1
 162 576 l 1,8,-1
 162 640 l 1,9,-1
 388 640 l 1,10,-1
 388 173 l 2,11,12
 388 80 388 80 344 36 c 128,-1,13
 300 -8 300 -8 224 -8 c 0,14,15
 90 -8 90 -8 62 120 c 1,16,-1
 130 137 l 1,0,1
EndSplineSet
EndUndoOperation
EndUndoes
Redoes
EndRedoes
EndUndoRedoHistory
Fore
SplineSet
180.73046875 94.51953125 m 0,0,1
 202.552044882 77 202.552044882 77 246.931139602 77 c 0,2,3
 302.947126633 77 302.947126633 77 321.458984375 100.859375 c 0,4,5
 338.9375 124.71875 338.9375 124.71875 338.9375 175.186523438 c 2,6,7
 338.9375 363.02734375 338.9375 363.02734375 338.9375 555 c 1,8,-1
 163.9375 555 l 1,9,10
 163.9375 587 163.9375 587 163.9375 640 c 1,11,-1
 431.9375 640 l 1,12,13
 431.9375 405.833007812 431.9375 405.833007812 431.9375 177.489257812 c 2,14,15
 431.9375 83.1982421875 431.9375 83.1982421875 384.861328125 37.5986328125 c 128,-1,16
 337.784179688 -8 337.784179688 -8 246.931139602 -8 c 0,17,18
 173.751953125 -8 173.751953125 -8 132.524414062 18.9931640625 c 0,19,20
 80.650390625 52.9560546875 80.650390625 52.9560546875 64.1796875 128.249023438 c 2,21,22
 63.08984375 143.732421875 63.08984375 143.732421875 62 138.215820312 c 1,23,24
 106.069335938 159.733398438 106.069335938 159.733398438 150.137695312 160.25 c 1,25,26
 151.388671875 165.622070312 151.388671875 165.622070312 152.639648438 149.993164062 c 2,27,28
 161.896484375 112.0390625 161.896484375 112.0390625 180.73046875 94.51953125 c 0,0,1
EndSplineSet
Substitution2: "'sups' Superscript in Latin lookup 9 subtable" J.sups
Substitution2: "'aalt' Access All Alternates in Latin lookup 0 subtable" J.sups
EndChar

StartChar: K
Encoding: 75 75 59
Width: 490
GlyphClass: 2
Flags: W
LayerCount: 2
UndoRedoHistory
Layer: 1
Undoes
UndoOperation
Index: 0
Type: 1
WasModified: 1
WasOrder2: 1
Layer: 2
Width: 448
VWidth: 1024
LBearingChange: 0
UnicodeEnc: 0
InstructionsLength: 0
SplineSet
350.5 267 m 128,-1,1
 383 225 383 225 388 151 c 2,2,-1
 399 0 l 1,3,-1
 324 0 l 1,4,-1
 316 146 l 2,5,6
 312 210 312 210 287 235.5 c 128,-1,7
 262 261 262 261 199 261 c 2,8,-1
 132 261 l 1,9,-1
 132 0 l 1,10,-1
 60 0 l 1,11,-1
 60 640 l 1,12,-1
 132 640 l 1,13,-1
 132 325 l 1,14,-1
 180 325 l 1,15,16
 241 399 241 399 274.5 468 c 128,-1,17
 308 537 308 537 325 640 c 1,18,-1
 400 640 l 1,19,20
 383 535 383 535 350 463 c 128,-1,21
 317 391 317 391 255 321 c 1,22,0
 318 309 318 309 350.5 267 c 128,-1,1
EndSplineSet
EndUndoOperation
EndUndoes
Redoes
EndRedoes
EndUndoRedoHistory
Fore
SplineSet
441.79296875 -0 m 1,0,-1
 345.559570312 -0 l 1,1,2
 340.767420848 81.8525390625 340.767420848 81.8525390625 335.975271384 149.567382812 c 2,3,4
 331.758574452 207.2578125 331.758574452 207.2578125 306.970271586 228.87890625 c 128,-1,5
 282.18087262 250.5 282.18087262 250.5 216.415965095 250.5 c 2,6,-1
 153 250.5 l 1,7,-1
 153 0 l 1,8,-1
 60 0 l 1,9,10
 60 320 60 320 60 640 c 1,11,-1
 153 640 l 1,12,-1
 153 335.5 l 1,13,-1
 189.4699962 335.5 l 1,14,15
 254.404433078 404.051757812 254.404433078 404.051757812 290.794516034 468.623046875 c 128,-1,16
 327.18459899 533.194335938 327.18459899 533.194335938 345.965306023 631.219726562 c 2,17,18
 346.777574887 625.110351562 346.777574887 625.110351562 347.58984375 640 c 1,19,-1
 443.837890625 640 l 1,20,21
 442.8515625 624.120117188 442.8515625 624.120117188 441.865234375 628.19921875 c 2,22,23
 424.638671875 525.185546875 424.638671875 525.185546875 392.584960938 457.470703125 c 128,-1,24
 360.530273438 389.755859375 360.530273438 389.755859375 300.785860933 327.073242188 c 1,25,26
 360.112304688 312.680664062 360.112304688 312.680664062 390.30859375 274.897460938 c 0,27,28
 424.760742188 231.7890625 424.760742188 231.7890625 429.971679688 157.1171875 c 0,29,-1
 441.79296875 -0 l 1,0,-1
EndSplineSet
Substitution2: "'sups' Superscript in Latin lookup 9 subtable" K.sups
Substitution2: "'aalt' Access All Alternates in Latin lookup 0 subtable" K.sups
EndChar

StartChar: L
Encoding: 76 76 61
Width: 490
GlyphClass: 2
Flags: W
LayerCount: 2
UndoRedoHistory
Layer: 1
Undoes
UndoOperation
Index: 0
Type: 1
WasModified: 1
WasOrder2: 1
Layer: 2
Width: 448
VWidth: 1024
LBearingChange: 0
UnicodeEnc: 0
InstructionsLength: 0
SplineSet
384 0 m 1,0,-1
 60 0 l 1,1,-1
 60 640 l 1,2,-1
 132 640 l 1,3,-1
 132 64 l 1,4,-1
 384 64 l 1,5,-1
 384 0 l 1,0,-1
EndSplineSet
EndUndoOperation
EndUndoes
Redoes
EndRedoes
EndUndoRedoHistory
Fore
SplineSet
426 85 m 1,0,1
 426 53 426 53 426 0 c 1,2,-1
 60 0 l 1,3,4
 60 320 60 320 60 640 c 1,5,-1
 153 640 l 1,6,7
 153 362.5 153 362.5 153 85 c 1,8,-1
 426 85 l 1,0,1
EndSplineSet
Substitution2: "'sups' Superscript in Latin lookup 9 subtable" L.sups
Substitution2: "'aalt' Access All Alternates in Latin lookup 0 subtable" L.sups
EndChar

StartChar: Lslash
Encoding: 321 321 66
Width: 490
GlyphClass: 2
Flags: W
LayerCount: 2
UndoRedoHistory
Layer: 1
Undoes
UndoOperation
Index: 0
Type: 1
WasModified: 1
WasOrder2: 1
Layer: 2
Width: 448
VWidth: 1024
LBearingChange: 0
UnicodeEnc: 0
InstructionsLength: 0
SplineSet
132 244 m 1,0,-1
 132 64 l 1,1,-1
 384 64 l 1,2,-1
 384 0 l 1,3,-1
 60 0 l 1,4,-1
 60 193 l 1,5,-1
 -3 148 l 1,6,-1
 -39 200 l 1,7,-1
 60 271 l 1,8,-1
 60 640 l 1,9,-1
 132 640 l 1,10,-1
 132 322 l 1,11,-1
 227 390 l 1,12,-1
 263 338 l 1,13,-1
 132 244 l 1,0,-1
EndSplineSet
EndUndoOperation
EndUndoes
Redoes
EndRedoes
EndUndoRedoHistory
Fore
SplineSet
164.602976294 243.12890625 m 1,0,1
 164.602976294 171.298828125 164.602976294 171.298828125 164.602976294 85 c 1,2,-1
 430.009765625 85 l 1,3,4
 430.009765625 53 430.009765625 53 430.009765625 0 c 1,5,-1
 64.009765625 0 l 1,6,7
 64.009765625 95.990234375 64.009765625 95.990234375 64.009765625 177.28125 c 1,8,9
 36.4765625 163.377929688 36.4765625 163.377929688 8.9423828125 139.196289062 c 1,10,11
 -15.029296875 177.400390625 -15.029296875 177.400390625 -39 206.24609375 c 1,12,13
 12.5048828125 244.48828125 12.5048828125 244.48828125 64.009765625 277.775390625 c 1,14,15
 64.009765625 454.474609375 64.009765625 454.474609375 64.009765625 640 c 1,16,-1
 157.009765625 640 l 1,17,18
 157.009765625 486.873046875 157.009765625 486.873046875 157.009765625 343.159179688 c 1,19,20
 207.620912233 372.791992188 207.620912233 372.791992188 258.230923451 403.205078125 c 1,21,22
 286.103613644 369.571289062 286.103613644 369.571289062 313.018554688 336.473632812 c 1,23,24
 239.115948917 292.451171875 239.115948917 292.451171875 164.602976294 243.12890625 c 1,0,1
EndSplineSet
EndChar

StartChar: M
Encoding: 77 77 67
Width: 490
GlyphClass: 2
Flags: W
LayerCount: 2
UndoRedoHistory
Layer: 1
Undoes
UndoOperation
Index: 0
Type: 1
WasModified: 1
WasOrder2: 1
Layer: 2
Width: 448
VWidth: 1024
LBearingChange: 0
UnicodeEnc: 0
InstructionsLength: 0
SplineSet
14 0 m 1,0,1
 19 356 19 356 39 640 c 1,2,-1
 126 640 l 1,3,-1
 223 271 l 1,4,-1
 225 271 l 1,5,-1
 322 640 l 1,6,-1
 409 640 l 1,7,8
 429 356 429 356 434 0 c 1,9,-1
 362 0 l 1,10,11
 362 219 362 219 350 510 c 1,12,-1
 348 510 l 1,13,-1
 252 150 l 1,14,-1
 196 150 l 1,15,-1
 99 510 l 1,16,-1
 97 510 l 1,17,18
 86 243 86 243 86 0 c 1,19,-1
 14 0 l 1,0,1
EndSplineSet
EndUndoOperation
EndUndoes
Redoes
EndRedoes
EndUndoRedoHistory
Fore
SplineSet
14 0 m 1,0,1
 19.1533203125 355.291015625 19.1533203125 355.291015625 39.861328125 640 c 1,2,-1
 144.747070312 640 l 1,3,4
 194.948299216 458.501953125 194.948299216 458.501953125 245.1484375 298.00390625 c 1,5,6
 295.349666404 458.501953125 295.349666404 458.501953125 345.549804688 640 c 1,7,-1
 450.435546875 640 l 1,8,9
 471.143554688 355.291015625 471.143554688 355.291015625 476.296875 0 c 1,10,-1
 383.1484375 0 l 1,11,12
 383.1484375 15.75 383.1484375 15.75 383.1484375 10.5 c 2,13,14
 383.1484375 205.251953125 383.1484375 205.251953125 373.640625 457.212890625 c 1,15,16
 328.5234375 314.106445312 328.5234375 314.106445312 284.188189338 150 c 1,17,18
 245.160064338 160.5 245.160064338 160.5 206.132996324 150 c 1,19,20
 161.272426471 314.325195312 161.272426471 314.325195312 115.70703125 457.650390625 c 1,21,22
 107.147460938 224.71484375 107.147460938 224.71484375 107.1484375 10.5 c 2,23,24
 107.1484375 15.75 107.1484375 15.75 107.1484375 0 c 1,25,-1
 14 0 l 1,0,1
EndSplineSet
Substitution2: "'sups' Superscript in Latin lookup 9 subtable" M.sups
Substitution2: "'aalt' Access All Alternates in Latin lookup 0 subtable" M.sups
EndChar

StartChar: N
Encoding: 78 78 68
Width: 490
GlyphClass: 2
Flags: W
LayerCount: 2
UndoRedoHistory
Layer: 1
Undoes
UndoOperation
Index: 0
Type: 1
WasModified: 1
WasOrder2: 1
Layer: 2
Width: 448
VWidth: 1024
LBearingChange: 0
UnicodeEnc: 0
InstructionsLength: 0
SplineSet
316 132 m 1,0,-1
 316 640 l 1,1,-1
 388 640 l 1,2,-1
 388 0 l 1,3,-1
 306 0 l 1,4,-1
 162 384 l 1,5,-1
 132 506 l 1,6,-1
 132 0 l 1,7,-1
 60 0 l 1,8,-1
 60 640 l 1,9,-1
 142 640 l 1,10,-1
 286 256 l 1,11,-1
 316 132 l 1,0,-1
EndSplineSet
EndUndoOperation
EndUndoes
Redoes
EndRedoes
EndUndoRedoHistory
Fore
SplineSet
153 429.8203125 m 1,0,1
 153 225.41015625 153 225.41015625 153 0 c 1,2,-1
 60 0 l 1,3,4
 60 320 60 320 60 640 c 1,5,-1
 159.778320312 640 l 1,6,7
 243.033325596 433.794921875 243.033325596 433.794921875 326.288330879 248.58984375 c 1,8,9
 326.372526438 237.782226562 326.372526438 237.782226562 326.456721996 247.974609375 c 1,10,11
 331.728914916 218.267578125 331.728914916 218.267578125 337 209.560546875 c 1,12,13
 337 414.280273438 337 414.280273438 337 640 c 1,14,-1
 430 640 l 1,15,16
 430 320 430 320 430 0 c 1,17,18
 380.110351562 10.5 380.110351562 10.5 329.310508288 -0 c 1,19,20
 246.059934349 206.196289062 246.059934349 206.196289062 162.808252575 391.392578125 c 1,21,22
 157.724609375 421.106445312 157.724609375 421.106445312 153 429.8203125 c 1,0,1
EndSplineSet
Substitution2: "'sups' Superscript in Latin lookup 9 subtable" N.sups
Substitution2: "'aalt' Access All Alternates in Latin lookup 0 subtable" N.sups
EndChar

StartChar: Eng
Encoding: 330 330 72
Width: 490
Flags: W
LayerCount: 2
UndoRedoHistory
Layer: 1
Undoes
UndoOperation
Index: 0
Type: 1
WasModified: 1
WasOrder2: 1
Layer: 2
Width: 448
VWidth: 1024
LBearingChange: 0
UnicodeEnc: 0
InstructionsLength: 0
SplineSet
316 640 m 1,0,-1
 388 640 l 1,1,-1
 388 -5 l 2,2,3
 388 -77 388 -77 361 -122.5 c 128,-1,4
 334 -168 334 -168 268 -196 c 1,5,-1
 239 -136 l 1,6,7
 284 -117 284 -117 300 -91.5 c 128,-1,8
 316 -66 316 -66 316 -13 c 2,9,-1
 316 3 l 1,10,-1
 166 384 l 1,11,-1
 132 513 l 1,12,-1
 132 0 l 1,13,-1
 60 0 l 1,14,-1
 60 640 l 1,15,-1
 142 640 l 1,16,-1
 292 259 l 1,17,-1
 316 167 l 1,18,-1
 316 640 l 1,0,-1
EndSplineSet
EndUndoOperation
EndUndoes
Redoes
EndRedoes
EndUndoRedoHistory
Fore
SplineSet
337 238.354492188 m 1,0,1
 337 428.677734375 337 428.677734375 337 640 c 1,2,-1
 430 640 l 1,3,4
 430 322.75 430 322.75 430 5.5 c 2,5,6
 430 -69.380859375 430 -69.380859375 401.385742188 -117.6015625 c 128,-1,7
 372.770507812 -165.823242188 372.770507812 -165.823242188 299.106754372 -195.170898438 c 2,8,9
 293.890451354 -186.622070312 293.890451354 -186.622070312 288.674148335 -199.072265625 c 1,10,11
 267.032417166 -149.09765625 267.032417166 -149.09765625 245.389578267 -120.123046875 c 1,12,13
 251.166392928 -107.47265625 251.166392928 -107.47265625 256.94320759 -115.822265625 c 2,14,15
 304.521341154 -98.1123046875 304.521341154 -98.1123046875 320.760670577 -75.2958984375 c 128,-1,16
 337 -52.4794921875 337 -52.4794921875 337 -2.5 c 2,17,18
 337 15.0009765625 337 15.0009765625 337 11.5029296875 c 1,19,20
 252.210982809 211.865234375 252.210982809 211.865234375 167.421965617 391.228515625 c 1,21,22
 159.764224533 427.341796875 159.764224533 427.341796875 153 442.455078125 c 1,23,24
 153 231.727539062 153 231.727539062 153 0 c 1,25,-1
 60 0 l 1,26,27
 60 320 60 320 60 640 c 1,28,-1
 159.65234375 640 l 1,29,30
 246.343334244 435.379882812 246.343334244 435.379882812 333.033217008 251.758789062 c 1,31,32
 335.017162369 234.556640625 335.017162369 234.556640625 337 238.354492188 c 1,0,1
EndSplineSet
EndChar

StartChar: O
Encoding: 79 79 74
Width: 490
GlyphClass: 2
Flags: W
LayerCount: 2
UndoRedoHistory
Layer: 1
Undoes
UndoOperation
Index: 0
Type: 1
WasModified: 1
WasOrder2: 1
Layer: 2
Width: 448
VWidth: 1024
LBearingChange: 0
UnicodeEnc: 0
InstructionsLength: 0
SplineSet
37 319 m 0,1,2
 37 486 37 486 83.5 568 c 128,-1,3
 130 650 130 650 224 650 c 0,4,5
 320 650 320 650 365.5 568.5 c 128,-1,6
 411 487 411 487 411 319 c 0,7,8
 411 154 411 154 365.5 72 c 128,-1,9
 320 -10 320 -10 224 -10 c 0,10,0
 37 -10 37 -10 37 319 c 0,1,2
289 82 m 128,-1,12
 313 108 313 108 324 165 c 128,-1,13
 335 222 335 222 335 319 c 0,14,15
 335 417 335 417 324 474.5 c 128,-1,16
 313 532 313 532 289 558 c 128,-1,17
 265 584 265 584 224 584 c 256,18,19
 183 584 183 584 159 558 c 128,-1,20
 135 532 135 532 124 474.5 c 128,-1,21
 113 417 113 417 113 319 c 0,22,23
 113 222 113 222 124 165 c 128,-1,24
 135 108 135 108 159 82 c 128,-1,25
 183 56 183 56 224 56 c 256,26,11
 265 56 265 56 289 82 c 128,-1,12
EndSplineSet
EndUndoOperation
EndUndoes
Redoes
EndRedoes
EndUndoRedoHistory
Fore
SplineSet
245 -10 m 0,0,1
 37 -10 37 -10 37 319.03125 c 0,2,3
 37 483.56640625 37 483.56640625 84.859375 565.361328125 c 0,4,5
 134.3828125 650 134.3828125 650 246.167448405 650 c 0,6,7
 357.6640625 650 357.6640625 650 406.174804688 565.787109375 c 0,8,9
 453 484.499023438 453 484.499023438 453 320.491210938 c 128,-1,10
 453 156.484375 453 156.484375 406.1875 74.720703125 c 0,11,12
 357.682617188 -10 357.682617188 -10 245 -10 c 0,0,1
179.032481238 99.248046875 m 0,13,14
 203.472033302 77 203.472033302 77 245 77 c 128,-1,15
 286.527966698 77 286.527966698 77 310.967518762 99.248046875 c 0,16,17
 334.75390625 121.49609375 334.75390625 121.49609375 345.376953125 174.262695312 c 128,-1,18
 356 227.029296875 356 227.029296875 356 319.524414062 c 128,-1,19
 356 412.020507812 356 412.020507812 345.374023438 465.264648438 c 128,-1,20
 334.748046875 518.509765625 334.748046875 518.509765625 310.963062852 540.754882812 c 0,21,22
 286.527966698 563 286.527966698 563 245 563 c 128,-1,23
 203.472033302 563 203.472033302 563 179.036937148 540.754882812 c 0,24,25
 155.251953125 518.509765625 155.251953125 518.509765625 144.625976562 465.264648438 c 128,-1,26
 134 412.020507812 134 412.020507812 134 319.524414062 c 128,-1,27
 134 227.029296875 134 227.029296875 144.623046875 174.262695312 c 128,-1,28
 155.24609375 121.49609375 155.24609375 121.49609375 179.032481238 99.248046875 c 0,13,14
EndSplineSet
Substitution2: "'sups' Superscript in Latin lookup 9 subtable" O.sups
Substitution2: "'aalt' Access All Alternates in Latin lookup 0 subtable" O.sups
EndChar

StartChar: Oslash
Encoding: 216 216 82
Width: 490
GlyphClass: 2
Flags: W
LayerCount: 2
UndoRedoHistory
Layer: 1
Undoes
UndoOperation
Index: 0
Type: 1
WasModified: 1
WasOrder2: 1
Layer: 2
Width: 448
VWidth: 1024
LBearingChange: 0
UnicodeEnc: 0
InstructionsLength: 0
SplineSet
414 626 m 1,0,-1
 375 549 l 1,1,2
 411 467 411 467 411 319 c 0,3,4
 411 154 411 154 365.5 72 c 128,-1,5
 320 -10 320 -10 224 -10 c 0,6,7
 157 -10 157 -10 116 30 c 1,8,-1
 93 -16 l 1,9,-1
 34 15 l 1,10,-1
 73 93 l 1,11,12
 37 175 37 175 37 319 c 0,13,14
 37 486 37 486 83.5 568 c 128,-1,15
 130 650 130 650 224 650 c 0,16,17
 290 650 290 650 333 611 c 1,18,-1
 355 656 l 1,19,-1
 414 626 l 1,0,-1
120 187 m 1,21,-1
 299 545 l 1,22,23
 274 584 274 584 224 584 c 0,24,25
 183 584 183 584 159 558 c 128,-1,26
 135 532 135 532 124 474.5 c 128,-1,27
 113 417 113 417 113 319 c 0,28,20
 113 237 113 237 120 187 c 1,21,-1
328 453 m 1,30,-1
 149 95 l 1,31,32
 174 56 174 56 224 56 c 0,33,34
 265 56 265 56 289 82 c 128,-1,35
 313 108 313 108 324 165 c 128,-1,36
 335 222 335 222 335 319 c 0,37,29
 335 403 335 403 328 453 c 1,30,-1
EndSplineSet
EndUndoOperation
EndUndoes
Redoes
EndRedoes
EndUndoRedoHistory
Fore
SplineSet
421.578125 541.826171875 m 1,0,1
 456.495117188 460.936523438 456.495117188 460.936523438 456.495117188 319.177734375 c 0,2,3
 456.495117188 156.55859375 456.495117188 156.55859375 409.682617188 74.7587890625 c 0,4,5
 361.176757812 -10 361.176757812 -10 248.488042897 -10 c 0,6,7
 177.489556449 -10 177.489556449 -10 133.27734375 23.583984375 c 1,8,9
 124.834960938 17.19921875 124.834960938 17.19921875 116.392578125 -10.185546875 c 1,10,11
 113.994140625 -4.482421875 113.994140625 -4.482421875 111.595703125 -19.779296875 c 1,12,13
 72.7978515625 9.56640625 72.7978515625 9.56640625 34 19.751953125 c 1,14,15
 54.7119140625 67.673828125 54.7119140625 67.673828125 75.4228515625 100.080078125 c 1,16,17
 40.4873046875 180.069335938 40.4873046875 180.069335938 40.4873046875 315.060546875 c 0,18,19
 40.4873046875 316.965820312 40.4873046875 316.965820312 40.4951171875 318.881835938 c 0,20,21
 40.4951171875 483.491210938 40.4951171875 483.491210938 88.3544921875 565.323242188 c 0,22,23
 137.877929688 650 137.877929688 650 248.488042897 650 c 0,24,25
 318.605320946 650 318.605320946 650 364.422851562 617.102539062 c 1,26,27
 372.489257812 623.102539062 372.489257812 623.102539062 380.555664062 650.1015625 c 1,28,29
 382.900390625 644.3984375 382.900390625 644.3984375 385.24609375 659.6953125 c 1,30,31
 424.172851562 630.90625 424.172851562 630.90625 463.099609375 621.311523438 c 1,32,33
 442.338867188 573.763671875 442.338867188 573.763671875 421.578125 541.826171875 c 1,0,1
319.458957117 533.665039062 m 1,34,35
 295.053124005 563 295.053124005 563 248.488042897 563 c 0,36,37
 207.372336881 563 207.372336881 563 183.180464256 539.793945312 c 128,-1,38
 158.988591631 516.587890625 158.988591631 516.587890625 148.12109375 461.041992188 c 0,39,40
 137.495117188 405.49609375 137.495117188 405.49609375 137.495117188 308.5 c 0,41,42
 137.495117188 253.705078125 137.495117188 253.705078125 140.6484375 213.2890625 c 1,43,44
 229.004403882 362.977539062 229.004403882 362.977539062 319.458957117 533.665039062 c 1,34,35
177.516025788 106.334960938 m 1,45,46
 201.777380427 76.9921875 201.777380427 76.9921875 246.967158815 76.9921875 c 0,47,48
 247.724843633 76.9921875 247.724843633 76.9921875 248.488042897 77 c 0,49,50
 289.602646024 77 289.602646024 77 313.797827317 100.209960938 c 128,-1,51
 337.994111498 123.418945312 337.994111498 123.418945312 348.872070312 178.465820312 c 0,52,53
 359.495117188 233.512695312 359.495117188 233.512695312 359.495117188 329.5 c 0,54,55
 359.495117188 385.7578125 359.495117188 385.7578125 356.326171875 426.681640625 c 1,56,57
 267.962858799 277.0078125 267.962858799 277.0078125 177.516025788 106.334960938 c 1,45,46
EndSplineSet
EndChar

StartChar: OE
Encoding: 338 338 85
Width: 490
GlyphClass: 2
Flags: W
LayerCount: 2
UndoRedoHistory
Layer: 1
Undoes
UndoOperation
Index: 0
Type: 1
WasModified: 1
WasOrder2: 1
Layer: 2
Width: 448
VWidth: 1024
LBearingChange: 0
UnicodeEnc: 0
InstructionsLength: 0
SplineSet
170 0 m 2,0,1
 -2 0 -2 0 -2 319 c 0,2,3
 -2 481 -2 481 40.5 560.5 c 128,-1,4
 83 640 83 640 170 640 c 2,5,-1
 438 640 l 1,6,-1
 438 576 l 1,7,-1
 270 576 l 1,8,-1
 270 320 l 1,9,-1
 400 320 l 1,10,-1
 400 256 l 1,11,-1
 270 256 l 1,12,-1
 270 64 l 1,13,-1
 448 64 l 1,14,-1
 448 0 l 1,15,-1
 170 0 l 2,0,1
198 64 m 1,16,-1
 198 576 l 1,17,-1
 170 576 l 2,18,19
 135 576 135 576 114 550.5 c 128,-1,20
 93 525 93 525 83.5 469.5 c 128,-1,21
 74 414 74 414 74 319 c 0,22,23
 74 225 74 225 83.5 170 c 128,-1,24
 93 115 93 115 114 89.5 c 128,-1,25
 135 64 135 64 170 64 c 2,26,-1
 198 64 l 1,16,-1
EndSplineSet
EndUndoOperation
EndUndoes
Redoes
EndRedoes
EndUndoRedoHistory
Fore
SplineSet
490 0 m 1,0,-1
 186.058604156 0 l 2,1,2
 -2 0 -2 0 -2 319.032226562 c 0,3,4
 -2 478.432617188 -2 478.432617188 41.7333984375 557.641601562 c 0,5,6
 87.2060546875 640 87.2060546875 640 201.5 640 c 2,7,-1
 480 640 l 1,8,9
 480 587 480 587 480 555 c 1,10,-1
 312 555 l 1,11,-1
 312 330.5 l 1,12,-1
 442 330.5 l 1,13,-1
 442 245.5 l 1,14,-1
 306.860948322 245.5 l 1,15,-1
 306.860948322 85 l 1,16,-1
 490 85 l 1,17,18
 490 53 490 53 490 0 c 1,0,-1
205.190197123 85 m 1,19,20
 205.190197123 320 205.190197123 320 219 555 c 1,21,-1
 201.5 555 l 2,22,23
 160.86969033 555 160.86969033 555 135.804560721 533.455078125 c 0,24,25
 113.380859375 511.909179688 113.380859375 511.909179688 104.190429688 460.513671875 c 128,-1,26
 95 409.1171875 95 409.1171875 95 319.525390625 c 128,-1,27
 95 229.932617188 95 229.932617188 104.1875 179.014648438 c 128,-1,28
 113.375976562 128.096679688 113.375976562 128.096679688 132.942811002 106.548828125 c 0,29,30
 153.210342302 85 153.210342302 85 186.058604156 85 c 2,31,-1
 205.190197123 85 l 1,19,20
EndSplineSet
EndChar

StartChar: P
Encoding: 80 80 86
Width: 490
GlyphClass: 2
Flags: W
LayerCount: 2
UndoRedoHistory
Layer: 1
Undoes
UndoOperation
Index: 0
Type: 1
WasModified: 1
WasOrder2: 1
Layer: 2
Width: 448
VWidth: 1024
LBearingChange: 0
UnicodeEnc: 0
InstructionsLength: 0
SplineSet
60 0 m 1,0,-1
 60 640 l 1,1,-1
 215 640 l 2,2,3
 301 640 301 640 351 581 c 128,-1,4
 401 522 401 522 401 414 c 256,5,6
 401 306 401 306 351 249 c 128,-1,7
 301 192 301 192 215 192 c 2,8,-1
 132 192 l 1,9,-1
 132 0 l 1,10,-1
 60 0 l 1,0,-1
208 256 m 2,11,12
 275 256 275 256 300 296 c 128,-1,13
 325 336 325 336 325 414 c 0,14,15
 325 494 325 494 299.5 535 c 128,-1,16
 274 576 274 576 208 576 c 2,17,-1
 132 576 l 1,18,-1
 132 256 l 1,19,-1
 208 256 l 2,11,12
EndSplineSet
EndUndoOperation
EndUndoes
Redoes
EndRedoes
EndUndoRedoHistory
Fore
SplineSet
153 0 m 1,0,-1
 60 0 l 1,1,2
 60 320 60 320 60 640 c 1,3,-1
 225.5 640 l 2,4,5
 337.362304688 640 337.362304688 640 390.181640625 579.069335938 c 128,-1,6
 443 518.138671875 443 518.138671875 443 408.794921875 c 128,-1,7
 443 299.3515625 443 299.3515625 390.126953125 240.42578125 c 128,-1,8
 337.25390625 181.5 337.25390625 181.5 225.5 181.5 c 2,9,-1
 153 181.5 l 1,10,-1
 153 0 l 1,0,-1
153 266.5 m 1,11,-1
 218.5 266.5 l 2,12,13
 295.135621212 266.5 295.135621212 266.5 322.58984375 300.323242188 c 0,14,15
 346 336.46484375 346 336.46484375 346 409.791015625 c 128,-1,16
 346 483.118164062 346 483.118164062 322.077148438 520.231445312 c 0,17,18
 293.831545754 555 293.831545754 555 218.5 555 c 2,19,-1
 153 555 l 1,20,-1
 153 266.5 l 1,11,-1
EndSplineSet
Substitution2: "'sups' Superscript in Latin lookup 9 subtable" P.sups
Substitution2: "'aalt' Access All Alternates in Latin lookup 0 subtable" P.sups
EndChar

StartChar: Thorn
Encoding: 222 222 87
Width: 490
Flags: W
LayerCount: 2
UndoRedoHistory
Layer: 1
Undoes
UndoOperation
Index: 0
Type: 1
WasModified: 1
WasOrder2: 1
Layer: 2
Width: 448
VWidth: 1024
LBearingChange: 0
UnicodeEnc: 0
InstructionsLength: 0
SplineSet
215 512 m 2,0,1
 300 512 300 512 350.5 461 c 128,-1,2
 401 410 401 410 401 318 c 256,3,4
 401 226 401 226 351 177 c 128,-1,5
 301 128 301 128 215 128 c 2,6,-1
 132 128 l 1,7,-1
 132 0 l 1,8,-1
 60 0 l 1,9,-1
 60 640 l 1,10,-1
 132 640 l 1,11,-1
 132 512 l 1,12,-1
 215 512 l 2,0,1
208 192 m 2,13,14
 275 192 275 192 301 223.5 c 128,-1,15
 327 255 327 255 327 318 c 0,16,17
 327 383 327 383 300.5 415.5 c 128,-1,18
 274 448 274 448 208 448 c 2,19,-1
 132 448 l 1,20,-1
 132 192 l 1,21,-1
 208 192 l 2,13,14
EndSplineSet
EndUndoOperation
EndUndoes
Redoes
EndRedoes
EndUndoRedoHistory
Fore
SplineSet
153 516.06640625 m 1,0,-1
 235.919518204 516.06640625 l 2,1,2
 335.876953125 516.06640625 335.876953125 516.06640625 389.459960938 463.671875 c 128,-1,3
 443 411.319335938 443 411.319335938 443 318.063476562 c 128,-1,4
 443 224.717773438 443 224.717773438 389.84765625 174.283203125 c 128,-1,5
 336.784179688 123.93359375 336.784179688 123.93359375 235.919518204 123.93359375 c 2,6,-1
 153 123.93359375 l 1,7,8
 153 70.1640625 153 70.1640625 153 0 c 1,9,-1
 60 0 l 1,10,11
 60 320 60 320 60 640 c 1,12,-1
 153 640 l 1,13,14
 153 569.8359375 153 569.8359375 153 516.06640625 c 1,0,-1
153 202.5 m 1,15,-1
 227.913495757 202.5 l 2,16,17
 298.885410429 202.5 298.885410429 202.5 324.77734375 230.635742188 c 0,18,19
 348 258.770507812 348 258.770507812 348 319.017578125 c 128,-1,20
 348 379.264648438 348 379.264648438 324.2578125 408.381835938 c 0,21,22
 297.698133384 437.5 297.698133384 437.5 227.913495757 437.5 c 2,23,-1
 153 437.5 l 1,24,-1
 153 202.5 l 1,15,-1
EndSplineSet
EndChar

StartChar: Q
Encoding: 81 81 88
Width: 490
GlyphClass: 2
Flags: W
LayerCount: 2
UndoRedoHistory
Layer: 1
Undoes
UndoOperation
Index: 0
Type: 1
WasModified: 1
WasOrder2: 1
Layer: 2
Width: 448
VWidth: 1024
LBearingChange: 0
UnicodeEnc: 0
InstructionsLength: 0
SplineSet
248 -121 m 5,0,-1
 205 -121 l 5,1,2
 205 -121 205 -121 206 -9 c 1,3,4
 37 4 37 4 37 319 c 0,5,6
 37 486 37 486 83.5 568 c 128,-1,7
 130 650 130 650 224 650 c 0,8,9
 320 650 320 650 365.5 568.5 c 128,-1,10
 411 487 411 487 411 319 c 0,11,12
 411 166 411 166 354 56 c 0,13,14
 334 18 334 18 247 -8 c 1,15,16
 247 -8 247 -8 248 -121 c 5,0,-1
246 58 m 1,17,18
 252.30952381 51.6904761905 252.30952381 51.6904761905 289 82 c 0,19,20
 312 101 312 101 324 165 c 0,21,22
 335 222 335 222 335 319 c 0,23,24
 335 417 335 417 324 474.5 c 128,-1,25
 313 532 313 532 289 558 c 128,-1,26
 265 584 265 584 224 584 c 256,27,28
 183 584 183 584 159 558 c 128,-1,29
 135 532 135 532 124 474.5 c 128,-1,30
 113 417 113 417 113 319 c 0,31,32
 113 222 113 222 124.727539062 165.336425781 c 0,33,34
 135 114 135 114 169 78 c 0,35,36
 188 58 188 58 203 56 c 1,37,-1
 203 199 l 256,38,-1
 246 199 l 1,39,-1
 246 58 l 1,17,18
EndSplineSet
EndUndoOperation
EndUndoes
Redoes
EndRedoes
EndUndoRedoHistory
Fore
SplineSet
272.379157036 -121 m 1,0,-1
 223.328579561 -121 l 1,1,2
 217.285261455 -110.5 217.285261455 -110.5 211.243057326 -121 c 1,3,4
 211.818982756 -53.982421875 211.818982756 -53.982421875 212.394908187 -7.96484375 c 1,5,6
 37 12.7744140625 37 12.7744140625 37 317.262695312 c 0,7,8
 37 318.161132812 37 318.161132812 37.001953125 319.0625 c 0,9,10
 37.001953125 483.58203125 37.001953125 483.58203125 84.861328125 565.369140625 c 0,11,12
 134.384765625 650 134.384765625 650 246.169537059 650 c 0,13,14
 357.665039062 650 357.665039062 650 406.17578125 565.805664062 c 0,15,16
 453.001953125 484.536132812 453.001953125 484.536132812 453.001953125 319.104492188 c 0,17,18
 453.001953125 168.375976562 453.001953125 168.375976562 394.799804688 59.5439453125 c 0,19,20
 373.600585938 20.517578125 373.600585938 20.517578125 283.293890823 -5.244140625 c 1,21,22
 283.878728059 -52.6220703125 283.878728059 -52.6220703125 284.462451319 -121 c 1,23,-1
 272.379157036 -121 l 1,0,-1
209.06969076 61.025390625 m 1,24,25
 209.06969076 119.512695312 209.06969076 119.512695312 209.06969076 199 c 1,26,-1
 221.047157352 199 l 1,27,-1
 270.097734828 199 l 1,28,-1
 282.075201421 199 l 1,29,30
 282.075201421 119.251953125 282.075201421 119.251953125 282.075201421 60.50390625 c 1,31,32
 293.169285294 66.3037109375 293.169285294 66.3037109375 311.527604625 79.5986328125 c 0,33,34
 333.879882812 96.1689453125 333.879882812 96.1689453125 344.940429688 154.33984375 c 128,-1,35
 356.001953125 212.51171875 356.001953125 212.51171875 356.001953125 309.00390625 c 128,-1,36
 356.001953125 405.49609375 356.001953125 405.49609375 345.375 461.041992188 c 128,-1,37
 334.749023438 516.587890625 334.749023438 516.587890625 310.965046903 539.793945312 c 0,38,39
 286.529990196 563 286.529990196 563 245.002090538 563 c 128,-1,40
 203.473076905 563 203.473076905 563 179.038020198 539.793945312 c 0,41,42
 155.25390625 516.587890625 155.25390625 516.587890625 144.627929688 461.041992188 c 128,-1,43
 134.001953125 405.49609375 134.001953125 405.49609375 134.001953125 309.040039062 c 128,-1,44
 134.001953125 212.583984375 134.001953125 212.583984375 145.51171875 156.971679688 c 0,45,46
 155.208007812 108.51171875 155.208007812 108.51171875 190.969813788 74.7060546875 c 0,47,48
 200.464228573 65.9453125 200.464228573 65.9453125 209.06969076 61.025390625 c 1,24,25
EndSplineSet
Substitution2: "'sups' Superscript in Latin lookup 9 subtable" Q.sups
Substitution2: "'aalt' Access All Alternates in Latin lookup 0 subtable" Q.sups
EndChar

StartChar: R
Encoding: 82 82 89
Width: 490
GlyphClass: 2
Flags: W
LayerCount: 2
UndoRedoHistory
Layer: 1
Undoes
UndoOperation
Index: 0
Type: 1
WasModified: 1
WasOrder2: 1
Layer: 2
Width: 448
VWidth: 1024
LBearingChange: 0
UnicodeEnc: 0
InstructionsLength: 0
SplineSet
363 162 m 128,-1,1
 402 96 402 96 411 0 c 1,2,-1
 337 0 l 1,3,4
 327 96 327 96 289.5 152 c 128,-1,5
 252 208 252 208 182 241 c 1,6,-1
 132 241 l 1,7,-1
 132 0 l 1,8,-1
 60 0 l 1,9,-1
 60 640 l 1,10,-1
 215 640 l 2,11,12
 300 640 300 640 350.5 587.5 c 128,-1,13
 401 535 401 535 401 440 c 0,14,15
 401 360 401 360 364 313.5 c 128,-1,16
 327 267 327 267 261 255 c 1,17,0
 324 228 324 228 363 162 c 128,-1,1
132 576 m 1,18,-1
 132 305 l 1,19,-1
 208 305 l 2,20,21
 275 305 275 305 300 339 c 128,-1,22
 325 373 325 373 325 440 c 256,23,24
 325 507 325 507 299.5 541.5 c 128,-1,25
 274 576 274 576 208 576 c 2,26,-1
 132 576 l 1,18,-1
EndSplineSet
EndUndoOperation
EndUndoes
Redoes
EndRedoes
EndUndoRedoHistory
Fore
SplineSet
454.03125 0 m 1,0,-1
 359.036132812 0 l 1,1,2
 358.491348472 15.201171875 358.491348472 15.201171875 357.945476737 9.4013671875 c 2,3,4
 347.109596585 98.5888671875 347.109596585 98.5888671875 307.372961525 149.46484375 c 128,-1,5
 267.63523907 200.341796875 267.63523907 200.341796875 194.341628448 230.5 c 1,6,-1
 153 230.5 l 1,7,-1
 153 0 l 1,8,-1
 60 0 l 1,9,10
 60 320 60 320 60 640 c 1,11,-1
 233.728122675 640 l 2,12,13
 333.34862686 640 333.34862686 640 389.567382812 586.046875 c 0,14,15
 443 532.262695312 443 532.262695312 443 436.1875 c 0,16,17
 443 355.180664062 443 355.180664062 403.720703125 307.383789062 c 0,18,19
 372.5859375 269.498046875 372.5859375 269.498046875 318.023984715 253.768554688 c 1,20,21
 371.053710938 225.421875 371.053710938 225.421875 403.546875 172.180664062 c 0,22,23
 443.735351562 106.329101562 443.735351562 106.329101562 452.954101562 11.1259765625 c 2,24,25
 453.4921875 15.552734375 453.4921875 15.552734375 454.03125 0 c 1,0,-1
153 555 m 1,26,-1
 153 315.5 l 1,27,-1
 225.933683244 315.5 l 2,28,29
 294.624355514 315.5 294.624355514 315.5 319.572433619 344.69140625 c 128,-1,30
 344.520511724 373.8828125 344.520511724 373.8828125 344.520511724 434.771484375 c 128,-1,31
 344.520511724 495.64453125 344.520511724 495.64453125 319.024387097 525.322265625 c 128,-1,32
 293.528262469 555 293.528262469 555 225.933683244 555 c 2,33,-1
 153 555 l 1,26,-1
EndSplineSet
Substitution2: "'sups' Superscript in Latin lookup 9 subtable" R.sups
Substitution2: "'aalt' Access All Alternates in Latin lookup 0 subtable" R.sups
EndChar

StartChar: S
Encoding: 83 83 93
Width: 490
GlyphClass: 2
Flags: W
LayerCount: 2
UndoRedoHistory
Layer: 1
Undoes
UndoOperation
Index: 0
Type: 1
WasModified: 1
WasOrder2: 1
Layer: 2
Width: 448
VWidth: 1024
LBearingChange: 0
UnicodeEnc: 0
InstructionsLength: 0
SplineSet
51 18 m 1,1,-1
 70 82 l 1,2,3
 103 69 103 69 133 62.5 c 128,-1,4
 163 56 163 56 198 56 c 0,5,6
 262 56 262 56 288.5 79.5 c 128,-1,7
 315 103 315 103 315 143 c 0,8,9
 315 175 315 175 301 197 c 128,-1,10
 287 219 287 219 265.5 233 c 128,-1,11
 244 247 244 247 207 264 c 0,12,13
 159 287 159 287 130 307.5 c 128,-1,14
 101 328 101 328 80 366.5 c 128,-1,15
 59 405 59 405 59 465 c 0,16,17
 59 548 59 548 110 598 c 128,-1,18
 161 648 161 648 256 648 c 0,19,20
 286 648 286 648 318.5 643.5 c 128,-1,21
 351 639 351 639 376 630 c 1,22,-1
 360 566 l 1,23,24
 308 584 308 584 256 584 c 0,25,26
 186 584 186 584 160.5 553.5 c 128,-1,27
 135 523 135 523 135 468 c 0,28,29
 135 427 135 427 151.5 400 c 128,-1,30
 168 373 168 373 192 357 c 128,-1,31
 216 341 216 341 257 321 c 0,32,33
 301 300 301 300 327.5 281.5 c 128,-1,34
 354 263 354 263 372.5 231 c 128,-1,35
 391 199 391 199 391 149 c 0,36,37
 391 70 391 70 340.5 31 c 128,-1,38
 290 -8 290 -8 195 -8 c 0,39,0
 120 -8 120 -8 51 18 c 1,1,-1
EndSplineSet
EndUndoOperation
EndUndoes
Redoes
EndRedoes
EndUndoRedoHistory
Fore
SplineSet
147.944335938 83.2919921875 m 0,0,1
 177.536474735 77 177.536474735 77 217.451908685 77 c 0,2,3
 288.187858504 77 288.187858504 77 315.108398438 96.87890625 c 0,4,5
 338.349609375 116.7578125 338.349609375 116.7578125 338.349609375 150.786132812 c 0,6,7
 338.349609375 178.703125 338.349609375 178.703125 325.78125 197.751953125 c 128,-1,8
 313.212890625 216.801757812 313.212890625 216.801757812 289.516071041 229.5 c 0,9,10
 267.996495823 240.967773438 267.996495823 240.967773438 216.603648166 260.938476562 c 0,11,12
 166.5234375 280.908203125 166.5234375 280.908203125 136.16015625 301.610351562 c 128,-1,13
 105.796875 322.313476562 105.796875 322.313476562 83.625 361.51953125 c 128,-1,14
 61.349609375 400.909179688 61.349609375 400.909179688 61.349609375 461.364257812 c 0,15,16
 61.349609375 545.670898438 61.349609375 545.670898438 115.500976562 596.876953125 c 128,-1,17
 169.563476562 648 169.563476562 648 285.809966735 648 c 0,18,19
 320.581054688 648 320.581054688 648 353.98046875 643.375976562 c 128,-1,20
 387.37890625 638.750976562 387.37890625 638.750976562 413.40234375 629.3828125 c 2,21,22
 417.87109375 617.2734375 417.87109375 617.2734375 422.340820312 626.165039062 c 1,23,24
 411.797851562 573.494140625 411.797851562 573.494140625 401.254882812 541.823242188 c 1,25,26
 395.8359375 533.19921875 395.8359375 533.19921875 390.416992188 545.57421875 c 2,27,28
 340.077148438 563 340.077148438 563 285.809966735 563 c 0,29,30
 209.090154716 563 209.090154716 563 182.332542015 536.80859375 c 0,31,32
 158.349609375 510.618164062 158.349609375 510.618164062 158.349609375 461.2421875 c 0,33,34
 158.349609375 424.545898438 158.349609375 424.545898438 173.475585938 400.671875 c 0,35,36
 191.230645241 376.798828125 191.230645241 376.798828125 218.029692648 362.177734375 c 128,-1,37
 244.828740056 347.556640625 244.828740056 347.556640625 294.955527236 327.772460938 c 0,38,39
 340.140625 307.989257812 340.140625 307.989257812 367.95703125 289.258789062 c 128,-1,40
 395.7734375 270.528320312 395.7734375 270.528320312 415.561523438 237.515625 c 128,-1,41
 435.349609375 204.501953125 435.349609375 204.501953125 435.349609375 153.55859375 c 0,42,43
 435.349609375 72.3876953125 435.349609375 72.3876953125 381.389648438 32.193359375 c 128,-1,44
 327.4296875 -8 327.4296875 -8 213.916147062 -8 c 0,45,46
 130.931640625 -8 130.931640625 -8 60.1513671875 18.6708984375 c 2,47,48
 55.576171875 30.89453125 55.576171875 30.89453125 51 22.119140625 c 1,49,50
 63.5205078125 74.7939453125 63.5205078125 74.7939453125 76.041015625 106.46875 c 1,51,52
 118.90625 89.5830078125 118.90625 89.5830078125 147.944335938 83.2919921875 c 0,0,1
EndSplineSet
Substitution2: "'sups' Superscript in Latin lookup 9 subtable" S.sups
Substitution2: "'aalt' Access All Alternates in Latin lookup 0 subtable" S.sups
EndChar

StartChar: Scedilla
Encoding: 350 350 96
Width: 490
GlyphClass: 2
Flags: W
LayerCount: 2
UndoRedoHistory
Layer: 1
Undoes
UndoOperation
Index: 0
Type: 1
WasModified: 1
WasOrder2: 1
Layer: 2
Width: 448
VWidth: 1024
LBearingChange: 0
UnicodeEnc: 0
InstructionsLength: 0
SplineSet
266 -1 m 1,1,2
 261 -81 261 -81 219 -126.5 c 128,-1,3
 177 -172 177 -172 73 -172 c 1,4,-1
 71 -108 l 1,5,6
 137 -106 137 -106 164.5 -85 c 128,-1,7
 192 -64 192 -64 197 -8 c 1,8,-1
 195 -8 l 2,9,10
 120 -8 120 -8 51 18 c 1,11,-1
 70 82 l 1,12,13
 103 69 103 69 133 62.5 c 128,-1,14
 163 56 163 56 198 56 c 0,15,16
 262 56 262 56 288.5 79.5 c 128,-1,17
 315 103 315 103 315 143 c 0,18,19
 315 175 315 175 301 197 c 128,-1,20
 287 219 287 219 265.5 233 c 128,-1,21
 244 247 244 247 207 264 c 0,22,23
 159 287 159 287 130 307.5 c 128,-1,24
 101 328 101 328 80 366.5 c 128,-1,25
 59 405 59 405 59 465 c 0,26,27
 59 548 59 548 110 598 c 128,-1,28
 161 648 161 648 256 648 c 0,29,30
 286 648 286 648 318.5 643.5 c 128,-1,31
 351 639 351 639 376 630 c 1,32,-1
 360 566 l 1,33,34
 308 584 308 584 256 584 c 0,35,36
 186 584 186 584 160.5 553.5 c 128,-1,37
 135 523 135 523 135 468 c 0,38,39
 135 427 135 427 151.5 400 c 128,-1,40
 168 373 168 373 192 357 c 128,-1,41
 216 341 216 341 257 321 c 0,42,43
 301 300 301 300 327.5 281.5 c 128,-1,44
 354 263 354 263 372.5 231 c 128,-1,45
 391 199 391 199 391 149 c 0,46,0
 391 26 391 26 266 -1 c 1,1,2
EndSplineSet
EndUndoOperation
EndUndoes
Redoes
EndRedoes
EndUndoRedoHistory
Fore
SplineSet
147.944335938 83.2919921875 m 0,0,1
 177.536474735 77 177.536474735 77 217.451908685 77 c 0,2,3
 288.187858504 77 288.187858504 77 315.108398438 96.87890625 c 0,4,5
 338.349609375 116.7578125 338.349609375 116.7578125 338.349609375 150.786132812 c 0,6,7
 338.349609375 178.703125 338.349609375 178.703125 325.78125 197.751953125 c 128,-1,8
 313.212890625 216.801757812 313.212890625 216.801757812 289.516071041 229.5 c 0,9,10
 267.996495823 240.967773438 267.996495823 240.967773438 216.603648166 260.938476562 c 0,11,12
 166.5234375 280.908203125 166.5234375 280.908203125 136.16015625 301.610351562 c 128,-1,13
 105.796875 322.313476562 105.796875 322.313476562 83.625 361.51953125 c 128,-1,14
 61.349609375 400.909179688 61.349609375 400.909179688 61.349609375 461.364257812 c 0,15,16
 61.349609375 545.670898438 61.349609375 545.670898438 115.500976562 596.876953125 c 128,-1,17
 169.563476562 648 169.563476562 648 285.809966735 648 c 0,18,19
 320.581054688 648 320.581054688 648 353.98046875 643.375976562 c 128,-1,20
 387.37890625 638.750976562 387.37890625 638.750976562 413.40234375 629.3828125 c 2,21,22
 417.87109375 617.2734375 417.87109375 617.2734375 422.340820312 626.165039062 c 1,23,24
 411.797851562 573.494140625 411.797851562 573.494140625 401.254882812 541.823242188 c 1,25,26
 395.8359375 533.19921875 395.8359375 533.19921875 390.416992188 545.57421875 c 2,27,28
 340.077148438 563 340.077148438 563 285.809966735 563 c 0,29,30
 209.090154716 563 209.090154716 563 182.332542015 536.82421875 c 0,31,32
 158.349609375 510.647460938 158.349609375 510.647460938 158.349609375 461.299804688 c 0,33,34
 158.349609375 424.625 158.349609375 424.625 173.475585938 400.764648438 c 0,35,36
 191.230645241 376.904296875 191.230645241 376.904296875 218.029692648 362.291992188 c 128,-1,37
 244.828740056 347.678710938 244.828740056 347.678710938 294.955527236 327.90625 c 0,38,39
 340.140625 308.133789062 340.140625 308.133789062 367.95703125 289.4140625 c 128,-1,40
 395.7734375 270.6953125 395.7734375 270.6953125 415.561523438 237.700195312 c 128,-1,41
 435.349609375 204.705078125 435.349609375 204.705078125 435.349609375 153.791015625 c 0,42,43
 435.349609375 83.7392578125 435.349609375 83.7392578125 393.704101562 43.46484375 c 0,44,45
 362.846679688 13.6240234375 362.846679688 13.6240234375 309.259708699 1.0087890625 c 1,46,47
 301.289282514 -77.166015625 301.289282514 -77.166015625 251.296007166 -123.118164062 c 0,48,49
 198.116863272 -172 198.116863272 -172 85.849609375 -172 c 2,50,-1
 75.671875 -172 l 1,51,52
 74.349609375 -119.161132812 74.349609375 -119.161132812 73.0263671875 -87.3232421875 c 1,53,54
 78.2763671875 -76.6640625 78.2763671875 -76.6640625 83.5263671875 -87.0048828125 c 2,55,56
 146.161132812 -85.1064453125 146.161132812 -85.1064453125 170.985351562 -66.150390625 c 0,57,58
 195.250962738 -50.0927734375 195.250962738 -50.0927734375 202.403053469 -7.8916015625 c 1,59,60
 126.416992188 -6.298828125 126.416992188 -6.298828125 60.1513671875 18.6708984375 c 2,61,62
 55.576171875 30.89453125 55.576171875 30.89453125 51 22.119140625 c 1,63,64
 63.5205078125 74.7939453125 63.5205078125 74.7939453125 76.041015625 106.46875 c 1,65,66
 118.90625 89.5830078125 118.90625 89.5830078125 147.944335938 83.2919921875 c 0,0,1
EndSplineSet
Substitution2: "'locl' Localized Forms in Latin lookup 6 subtable" uni0218
Substitution2: "'aalt' Access All Alternates in Latin lookup 0 subtable" uni0218
EndChar

StartChar: uni1E9E
Encoding: 7838 7838 99
Width: 490
Flags: W
LayerCount: 2
UndoRedoHistory
Layer: 1
Undoes
UndoOperation
Index: 0
Type: 1
WasModified: 1
WasOrder2: 1
Layer: 2
Width: 448
VWidth: 1024
LBearingChange: 0
UnicodeEnc: 0
InstructionsLength: 0
SplineSet
380 233.5 m 128,-1,1
 405 194 405 194 405 145 c 0,2,3
 405 71 405 71 354.5 31.5 c 128,-1,4
 304 -8 304 -8 217 -8 c 0,5,6
 203 -8 203 -8 185 -6 c 1,7,-1
 192 58 l 1,8,-1
 212 58 l 2,9,10
 277 58 277 58 303 81.5 c 128,-1,11
 329 105 329 105 329 148 c 0,12,13
 329 189 329 189 298.5 223 c 128,-1,14
 268 257 268 257 189 285 c 1,15,-1
 206 337 l 1,16,-1
 249 325 l 1,17,18
 316 413 316 413 316 519 c 0,19,20
 316 551 316 551 311 576 c 1,21,-1
 132 576 l 1,22,-1
 132 0 l 1,23,-1
 60 0 l 1,24,-1
 60 640 l 1,25,-1
 374 640 l 1,26,27
 388 578 388 578 388 526 c 0,28,29
 388 396 388 396 305 300 c 1,30,0
 355 273 355 273 380 233.5 c 128,-1,1
EndSplineSet
EndUndoOperation
EndUndoes
Redoes
EndRedoes
EndUndoRedoHistory
Fore
SplineSet
420.37890625 241.518554688 m 0,0,1
 447 200.77734375 447 200.77734375 447 150.368164062 c 0,2,3
 447 73.7353515625 447 73.7353515625 393.05859375 32.8681640625 c 128,-1,4
 339.116210938 -8 339.116210938 -8 235.292914172 -8 c 0,5,6
 218.156091138 -8 218.156091138 -8 184.103839197 -4.779296875 c 1,7,8
 189.484978286 47.6103515625 189.484978286 47.6103515625 194.867264494 79 c 1,9,-1
 205.926646707 79 l 1,10,-1
 229.419660679 79 l 2,11,12
 301.0274685 79 301.0274685 79 327.23046875 98.7109375 c 0,13,14
 350 118.420898438 350 118.420898438 350 154.491210938 c 128,-1,15
 350 190.561523438 350 190.561523438 321.322312406 220.735351562 c 0,16,17
 288.125811853 250.908203125 288.125811853 250.908203125 198.285681567 276.870117188 c 2,18,19
 192.612026923 280.13671875 192.612026923 280.13671875 186.937225159 280.150390625 c 1,20,21
 200.625806005 314.405273438 200.625806005 314.405273438 214.315533971 348.430664062 c 1,22,23
 220.002954053 345.86328125 220.002954053 345.86328125 225.690374135 345.842773438 c 1,24,25
 246.873088783 340.0078125 246.873088783 340.0078125 268.056950552 336.202148438 c 1,26,27
 337 415.577148438 337 415.577148438 337 510.46484375 c 0,28,29
 337 535.002929688 337 535.002929688 333.70703125 555 c 1,30,-1
 153 555 l 1,31,32
 153 277.5 153 277.5 153 0 c 1,33,-1
 60 0 l 1,34,35
 60 320 60 320 60 640 c 1,36,-1
 413.895507812 640 l 1,37,38
 430 570.91796875 430 570.91796875 430 519.408203125 c 0,39,40
 430 396.103515625 430 396.103515625 352.610351562 303.31640625 c 1,41,42
 396.8046875 277.596679688 396.8046875 277.596679688 420.37890625 241.518554688 c 0,0,1
EndSplineSet
EndChar

StartChar: uniA7A8
Encoding: 42920 42920 100
Width: 490
GlyphClass: 2
Flags: W
LayerCount: 2
UndoRedoHistory
Layer: 1
Undoes
UndoOperation
Index: 0
Type: 1
WasModified: 1
WasOrder2: 1
Layer: 2
Width: 448
VWidth: 1024
LBearingChange: 0
UnicodeEnc: 0
InstructionsLength: 0
SplineSet
257 321 m 1,0,1
 301 300 301 300 327.5 281.5 c 128,-1,2
 354 263 354 263 372.5 231 c 128,-1,3
 391 199 391 199 391 149 c 0,4,5
 391 70 391 70 340.5 31 c 128,-1,6
 290 -8 290 -8 195 -8 c 0,7,8
 120 -8 120 -8 51 18 c 1,9,-1
 70 82 l 1,10,11
 103 69 103 69 133 62.5 c 128,-1,12
 163 56 163 56 198 56 c 0,13,14
 262 56 262 56 288.5 79.5 c 128,-1,15
 315 103 315 103 315 143 c 0,16,17
 315 184 315 184 293 208.5 c 128,-1,18
 271 233 271 233 229 253 c 1,19,-1
 166 99 l 1,20,-1
 98 99 l 1,21,-1
 173 281 l 1,22,23
 120 309 120 309 89.5 350 c 128,-1,24
 59 391 59 391 59 465 c 0,25,26
 59 548 59 548 110 598 c 128,-1,27
 161 648 161 648 256 648 c 0,28,29
 286 648 286 648 318.5 643.5 c 128,-1,30
 351 639 351 639 376 630 c 1,31,-1
 360 566 l 1,32,33
 308 584 308 584 256 584 c 0,34,35
 186 584 186 584 160.5 553.5 c 128,-1,36
 135 523 135 523 135 468 c 0,37,38
 135 425 135 425 152 398 c 128,-1,39
 169 371 169 371 201 350 c 1,40,-1
 282 547 l 1,41,-1
 350 547 l 1,42,-1
 257 321 l 1,0,1
EndSplineSet
EndUndoOperation
EndUndoes
Redoes
EndRedoes
EndUndoRedoHistory
Fore
SplineSet
308.158236084 547 m 1,0,-1
 386.211914062 547 l 1,1,2
 337.983398438 563 337.983398438 563 285.809966735 563 c 0,3,4
 209.090154716 563 209.090154716 563 182.332542015 535.845703125 c 0,5,6
 158.349609375 508.69140625 158.349609375 508.69140625 158.349609375 457.5 c 0,7,8
 158.349609375 417.529296875 158.349609375 417.529296875 173.741210938 393.083007812 c 0,9,10
 188.937924813 372.571289062 188.937924813 372.571289062 215.426211922 355.639648438 c 1,11,12
 261.792799485 440.8203125 261.792799485 440.8203125 308.158236084 547 c 1,0,-1
415.561523438 238.594726562 m 128,-1,14
 435.349609375 205.435546875 435.349609375 205.435546875 435.349609375 154.268554688 c 0,15,16
 435.349609375 72.7412109375 435.349609375 72.7412109375 381.389648438 32.3701171875 c 128,-1,17
 327.4296875 -8 327.4296875 -8 213.916147062 -8 c 0,18,19
 130.931640625 -8 130.931640625 -8 60.1513671875 17.84375 c 2,20,21
 55.576171875 28.8349609375 55.576171875 28.8349609375 51 21.1845703125 c 1,22,23
 63.5205078125 70.052734375 63.5205078125 70.052734375 76.041015625 102.91796875 c 1,24,25
 90.9609375 97.2236328125 90.9609375 97.2236328125 95.173828125 95.703125 c 1,26,27
 133.864257812 190.81640625 133.864257812 190.81640625 172.555664062 277.659179688 c 1,28,29
 123.365234375 304.650390625 123.365234375 304.650390625 93.919921875 343.005859375 c 0,30,31
 61.349609375 385.430664062 61.349609375 385.430664062 61.349609375 460.501953125 c 0,32,33
 61.349609375 545.198242188 61.349609375 545.198242188 115.500976562 596.640625 c 128,-1,34
 169.563476562 648 169.563476562 648 285.809966735 648 c 0,35,36
 320.581054688 648 320.581054688 648 353.98046875 643.375976562 c 128,-1,37
 387.37890625 638.895507812 387.37890625 638.895507812 413.40234375 629.819335938 c 2,38,39
 417.87109375 618.561523438 417.87109375 618.561523438 422.340820312 626.702148438 c 1,40,41
 411.797851562 577.473632812 411.797851562 577.473632812 401.254882812 544.995117188 c 1,42,43
 399.56640625 538.444335938 399.56640625 538.444335938 397.876953125 546.127929688 c 1,44,45
 351.099609375 432.30859375 351.099609375 432.30859375 302.867254254 325.879882812 c 1,46,47
 342.887695312 307.520507812 342.887695312 307.520507812 367.349609375 290.9765625 c 0,48,13
 395.7734375 271.752929688 395.7734375 271.752929688 415.561523438 238.594726562 c 128,-1,14
188.047078623 99 m 1,49,-1
 95.2353515625 99 l 1,50,51
 122.803710938 88.73828125 122.803710938 88.73828125 149.892578125 82.869140625 c 0,52,53
 177.536474735 77 177.536474735 77 217.451908685 77 c 0,54,55
 288.187858504 77 288.187858504 77 315.108398438 97.6103515625 c 0,56,57
 338.349609375 118.219726562 338.349609375 118.219726562 338.349609375 154.350585938 c 128,-1,58
 338.349609375 190.48046875 338.349609375 190.48046875 319.732421875 211.212890625 c 0,59,60
 299.087488248 231.946289062 299.087488248 231.946289062 260.398981996 249.060546875 c 1,61,62
 224.22303031 184.530273438 224.22303031 184.530273438 188.047078623 99 c 1,49,-1
EndSplineSet
EndChar

StartChar: uni018F
Encoding: 399 399 101
Width: 490
GlyphClass: 2
Flags: W
LayerCount: 2
UndoRedoHistory
Layer: 1
Undoes
UndoOperation
Index: 0
Type: 1
WasModified: 1
WasOrder2: 1
Layer: 2
Width: 448
VWidth: 1024
LBearingChange: 0
UnicodeEnc: 0
InstructionsLength: 0
SplineSet
322.5 615 m 128,-1,1
 369 583 369 583 390 512 c 128,-1,2
 411 441 411 441 411 319 c 0,3,4
 411 154 411 154 365.5 72 c 128,-1,5
 320 -10 320 -10 224 -10 c 0,6,7
 37 -10 37 -10 37 319 c 0,8,9
 37 346 37 346 39 384 c 1,10,-1
 334 384 l 1,11,12
 332 459 332 459 320 501 c 128,-1,13
 308 543 308 543 278 563 c 128,-1,14
 248 583 248 583 191 583 c 0,15,16
 145 583 145 583 94 571 c 1,17,-1
 80 632 l 1,18,19
 137 647 137 647 197 647 c 0,20,0
 276 647 276 647 322.5 615 c 128,-1,1
289 82 m 128,-1,22
 313 108 313 108 324 165 c 128,-1,23
 335 222 335 222 335 319 c 2,24,-1
 335 320 l 1,25,-1
 113 320 l 1,26,27
 113 223 113 223 124 165.5 c 128,-1,28
 135 108 135 108 159 82 c 128,-1,29
 183 56 183 56 224 56 c 256,30,21
 265 56 265 56 289 82 c 128,-1,22
EndSplineSet
EndUndoOperation
EndUndoes
Redoes
EndRedoes
EndUndoRedoHistory
Fore
SplineSet
431.258789062 509.915039062 m 128,-1,1
 453 438.685546875 453 438.685546875 453 318.984375 c 0,2,3
 453 156.4609375 453 156.4609375 406.1875 74.708984375 c 0,4,5
 357.682617188 -10 357.682617188 -10 245 -10 c 0,6,7
 37 -10 37 -10 37 320.91015625 c 0,8,9
 37 347.500976562 37 347.500976562 39.5380859375 394.5 c 1,10,-1
 354.65625 394.5 l 1,11,12
 352.154296875 456.588867188 352.154296875 456.588867188 341.307617188 492.3125 c 128,-1,13
 330.4609375 528.036132812 330.4609375 528.036132812 299.630569887 545.018554688 c 128,-1,14
 268.752227955 562 268.752227955 562 207.356472795 562 c 0,15,16
 156.7265625 562 156.7265625 562 106.91015625 550.278320312 c 2,17,18
 101.768554688 538.568359375 101.768554688 538.568359375 96.6259765625 547.858398438 c 1,19,20
 87.3076171875 577.962890625 87.3076171875 577.962890625 77.98828125 629.067382812 c 1,21,22
 82.90625 619.861328125 82.90625 619.861328125 87.82421875 631.655273438 c 2,23,24
 146.133789062 647 146.133789062 647 214.200750469 647 c 0,25,26
 308.038871951 647 308.038871951 647 360.139648438 614.072265625 c 0,27,0
 409.517578125 581.14453125 409.517578125 581.14453125 431.258789062 509.915039062 c 128,-1,1
179.036937148 99.203125 m 0,28,29
 203.472033302 77 203.472033302 77 245 77 c 128,-1,30
 286.527966698 77 286.527966698 77 310.967518762 99.20703125 c 0,31,32
 334.75390625 121.413085938 334.75390625 121.413085938 345.103515625 172.725585938 c 128,-1,33
 355.453125 224.037109375 355.453125 224.037109375 355.97265625 309.5 c 1,34,-1
 134.033203125 309.5 l 1,35,36
 134.604492188 224.672851562 134.604492188 224.672851562 144.928710938 173.040039062 c 128,-1,37
 155.251953125 121.407226562 155.251953125 121.407226562 179.036937148 99.203125 c 0,28,29
EndSplineSet
EndChar

StartChar: T
Encoding: 84 84 102
Width: 490
GlyphClass: 2
Flags: W
LayerCount: 2
UndoRedoHistory
Layer: 1
Undoes
UndoOperation
Index: 0
Type: 1
WasModified: 1
WasOrder2: 1
Layer: 2
Width: 448
VWidth: 1024
LBearingChange: 0
UnicodeEnc: 0
InstructionsLength: 0
SplineSet
404 640 m 1,0,-1
 404 576 l 1,1,-1
 260 576 l 1,2,-1
 260 0 l 1,3,-1
 188 0 l 1,4,-1
 188 576 l 1,5,-1
 44 576 l 1,6,-1
 44 640 l 1,7,-1
 404 640 l 1,0,-1
EndSplineSet
EndUndoOperation
EndUndoes
Redoes
EndRedoes
EndUndoRedoHistory
Fore
SplineSet
44 640 m 1,0,-1
 446 640 l 1,1,2
 446 587 446 587 446 555 c 1,3,-1
 298.720496894 555 l 1,4,5
 302 277.5 302 277.5 302 0 c 1,6,-1
 209 0 l 1,7,8
 209 277.5 209 277.5 191.279503106 555 c 1,9,-1
 44 555 l 1,10,11
 44 587 44 587 44 640 c 1,0,-1
EndSplineSet
Substitution2: "'sups' Superscript in Latin lookup 9 subtable" T.sups
Substitution2: "'aalt' Access All Alternates in Latin lookup 0 subtable" T.sups
EndChar

StartChar: Tbar
Encoding: 358 358 103
Width: 490
GlyphClass: 2
Flags: W
LayerCount: 2
UndoRedoHistory
Layer: 1
Undoes
UndoOperation
Index: 0
Type: 1
WasModified: 1
WasOrder2: 1
Layer: 2
Width: 448
VWidth: 1024
LBearingChange: 0
UnicodeEnc: 0
InstructionsLength: 0
SplineSet
404 640 m 1,0,-1
 404 576 l 1,1,-1
 260 576 l 1,2,-1
 260 318 l 1,3,-1
 364 318 l 1,4,-1
 364 258 l 1,5,-1
 260 258 l 1,6,-1
 260 0 l 1,7,-1
 188 0 l 1,8,-1
 188 258 l 1,9,-1
 84 258 l 1,10,-1
 84 318 l 1,11,-1
 188 318 l 1,12,-1
 188 576 l 1,13,-1
 44 576 l 1,14,-1
 44 640 l 1,15,-1
 404 640 l 1,0,-1
EndSplineSet
EndUndoOperation
EndUndoes
Redoes
EndRedoes
EndUndoRedoHistory
Fore
SplineSet
44 640 m 1,0,-1
 446 640 l 1,1,2
 446 587 446 587 446 555 c 1,3,-1
 298.720496894 555 l 1,4,-1
 298.720496894 328.5 l 1,5,-1
 406 328.5 l 1,6,-1
 427 247.5 l 1,7,-1
 302 247.5 l 1,8,-1
 302 0 l 1,9,-1
 209 0 l 1,10,-1
 209 247.5 l 1,11,-1
 84 247.5 l 1,12,-1
 84 328.5 l 1,13,-1
 191.279503106 328.5 l 1,14,-1
 191.279503106 555 l 1,15,-1
 44 555 l 1,16,17
 44 587 44 587 44 640 c 1,0,-1
EndSplineSet
EndChar

StartChar: uni0162
Encoding: 354 354 105
Width: 490
GlyphClass: 2
Flags: W
LayerCount: 2
UndoRedoHistory
Layer: 1
Undoes
UndoOperation
Index: 0
Type: 1
WasModified: 1
WasOrder2: 1
Layer: 2
Width: 448
VWidth: 1024
LBearingChange: 0
UnicodeEnc: 0
InstructionsLength: 0
SplineSet
404 576 m 1,0,-1
 260 576 l 1,1,-1
 260 10 l 1,2,-1
 322 10 l 1,3,4
 322 -85 322 -85 282 -138.5 c 128,-1,5
 242 -192 242 -192 128 -192 c 1,6,-1
 126 -128 l 1,7,8
 176 -126 176 -126 202.5 -114.5 c 128,-1,9
 229 -103 229 -103 241 -76.5 c 128,-1,10
 253 -50 253 -50 254 0 c 1,11,-1
 188 0 l 1,12,-1
 188 576 l 1,13,-1
 44 576 l 1,14,-1
 44 640 l 1,15,-1
 404 640 l 1,16,-1
 404 576 l 1,0,-1
EndSplineSet
EndUndoOperation
EndUndoes
Redoes
EndRedoes
EndUndoRedoHistory
Fore
SplineSet
191.279503106 0 m 1,0,1
 191.279503106 277.5 191.279503106 277.5 191.279503106 555 c 1,2,-1
 44 555 l 1,3,4
 44 587 44 587 44 640 c 1,5,-1
 446 640 l 1,6,7
 446 587 446 587 446 555 c 1,8,-1
 298.720496894 555 l 1,9,10
 298.720496894 288.169921875 298.720496894 288.169921875 298.720496894 26.09765625 c 1,11,-1
 364 26.09765625 l 1,12,13
 364 26.5849609375 364 26.5849609375 364 15.9072265625 c 2,14,15
 364 -79.6728515625 364 -79.6728515625 321.108550078 -134.994140625 c 0,16,17
 271.869274068 -192 271.869274068 -192 138.5 -192 c 2,18,-1
 128.323242188 -192 l 1,19,20
 127.000976562 -139.211914062 127.000976562 -139.211914062 125.6796875 -107.423828125 c 1,21,22
 130.876953125 -96.716796875 130.876953125 -96.716796875 136.07421875 -107.008789062 c 2,23,24
 186.792641207 -105.086914062 186.792641207 -105.086914062 214.22376019 -94.783203125 c 128,-1,25
 241.654879173 -84.478515625 241.654879173 -84.478515625 253.268597147 -62.279296875 c 128,-1,26
 264.88231512 -40.0791015625 264.88231512 -40.0791015625 267.112771739 0 c 1,27,-1
 191.279503106 0 l 1,0,1
EndSplineSet
Substitution2: "'locl' Localized Forms in Latin lookup 6 subtable" uni021A
Substitution2: "'aalt' Access All Alternates in Latin lookup 0 subtable" uni021A
EndChar

StartChar: U
Encoding: 85 85 107
Width: 490
GlyphClass: 2
Flags: W
LayerCount: 2
UndoRedoHistory
Layer: 1
Undoes
UndoOperation
Index: 0
Type: 1
WasModified: 1
WasOrder2: 1
Layer: 2
Width: 448
VWidth: 1024
LBearingChange: 0
UnicodeEnc: 0
InstructionsLength: 0
SplineSet
60 640 m 1,0,-1
 132 640 l 1,1,-1
 132 169 l 2,2,3
 132 112 132 112 151 84 c 128,-1,4
 170 56 170 56 224 56 c 0,5,6
 276 56 276 56 296 84.5 c 128,-1,7
 316 113 316 113 316 169 c 2,8,-1
 316 640 l 1,9,-1
 388 640 l 1,10,-1
 388 173 l 2,11,12
 388 80 388 80 344 36 c 128,-1,13
 300 -8 300 -8 224 -8 c 256,14,15
 148 -8 148 -8 104 35.5 c 128,-1,16
 60 79 60 79 60 172 c 2,17,-1
 60 640 l 1,0,-1
EndSplineSet
EndUndoOperation
EndUndoes
Redoes
EndRedoes
EndUndoRedoHistory
Fore
SplineSet
60 176.520507812 m 2,0,1
 60 405.364257812 60 405.364257812 60 640 c 1,2,-1
 153 640 l 1,3,4
 153 406.130859375 153 406.130859375 153 175.814453125 c 2,5,6
 153 123.97265625 153 123.97265625 172.409557132 99.544921875 c 0,7,8
 190.323188267 77 190.323188267 77 243.930694018 77 c 128,-1,9
 297.53819977 77 297.53819977 77 317.269651074 101.01171875 c 128,-1,10
 337 125.0234375 337 125.0234375 337 175.814453125 c 2,11,12
 337 406.130859375 337 406.130859375 337 640 c 1,13,-1
 430 640 l 1,14,15
 430 405.833007812 430 405.833007812 430 177.489257812 c 2,16,17
 430 83.1982421875 430 83.1982421875 382.922851562 37.5986328125 c 128,-1,18
 335.698092408 -8 335.698092408 -8 245 -8 c 128,-1,19
 154.341593175 -8 154.341593175 -8 107.120117188 37.0732421875 c 128,-1,20
 60 82.1953125 60 82.1953125 60 176.520507812 c 2,0,1
EndSplineSet
Substitution2: "'sups' Superscript in Latin lookup 9 subtable" U.sups
Substitution2: "'aalt' Access All Alternates in Latin lookup 0 subtable" U.sups
EndChar

StartChar: Uogonek
Encoding: 370 370 115
Width: 490
GlyphClass: 2
Flags: W
LayerCount: 2
UndoRedoHistory
Layer: 1
Undoes
UndoOperation
Index: 0
Type: 1
WasModified: 1
WasOrder2: 1
Layer: 2
Width: 448
VWidth: 1024
LBearingChange: 0
UnicodeEnc: 0
InstructionsLength: 0
SplineSet
316 640 m 1,0,-1
 388 640 l 1,1,-1
 388 173 l 2,2,3
 388 100 388 100 360.5 57 c 128,-1,4
 333 14 333 14 283 0 c 1,5,6
 252 -34 252 -34 237 -59.5 c 128,-1,7
 222 -85 222 -85 222 -108 c 0,8,9
 222 -136 222 -136 250 -136 c 0,10,11
 265 -136 265 -136 283 -128 c 1,12,-1
 300 -181 l 1,13,14
 272 -197 272 -197 236 -197 c 0,15,16
 195 -197 195 -197 173.5 -176 c 128,-1,17
 152 -155 152 -155 152 -118 c 0,18,19
 152 -62 152 -62 207 -7 c 1,20,21
 138 -2 138 -2 99 41.5 c 128,-1,22
 60 85 60 85 60 172 c 2,23,-1
 60 640 l 1,24,-1
 132 640 l 1,25,-1
 132 169 l 2,26,27
 132 112 132 112 151 84 c 128,-1,28
 170 56 170 56 224 56 c 0,29,30
 276 56 276 56 296 84.5 c 128,-1,31
 316 113 316 113 316 169 c 2,32,-1
 316 640 l 1,0,-1
EndSplineSet
EndUndoOperation
EndUndoes
Redoes
EndRedoes
EndUndoRedoHistory
Fore
SplineSet
337 158.5 m 2,0,1
 337 388.75 337 388.75 337 640 c 1,2,-1
 430 640 l 1,3,4
 430 406.041015625 430 406.041015625 430 177.698242188 c 2,5,6
 430 104.05078125 430 104.05078125 401.010742188 60.1650390625 c 128,-1,7
 372.021484375 16.279296875 372.021484375 16.279296875 318.117379218 1.240234375 c 1,8,9
 285.652367715 -30.587890625 285.652367715 -30.587890625 270.123178681 -53.9736328125 c 128,-1,10
 254.595092025 -77.359375 254.595092025 -77.359375 254.595092025 -97.5 c 0,11,12
 254.595092025 -108.010742188 254.595092025 -108.010742188 259.52602569 -111.505859375 c 128,-1,13
 264.456959356 -115 264.456959356 -115 276.609566718 -115 c 128,-1,14
 288.763276457 -115 288.763276457 -115 306.797066718 -107.899414062 c 2,15,16
 312.825968175 -95.025390625 312.825968175 -95.025390625 318.855972009 -103.151367188 c 1,17,18
 331.934576304 -128.7734375 331.934576304 -128.7734375 344.098632812 -175.39453125 c 1,19,20
 340.3984375 -167.008789062 340.3984375 -167.008789062 336.659365414 -179.623046875 c 2,21,22
 302.33243865 -197 302.33243865 -197 258.54601227 -197 c 0,23,24
 207.438698236 -197 207.438698236 -197 179.713909126 -173.010742188 c 128,-1,25
 152 -148.918945312 152 -148.918945312 152 -107.5 c 0,26,27
 152 -55.169921875 152 -55.169921875 201.240030675 -4.4794921875 c 1,28,29
 137.233398438 5.0302734375 137.233398438 5.0302734375 101.680664062 43.43359375 c 0,30,31
 60 88.45703125 60 88.45703125 60 176.599609375 c 2,32,33
 60 405.442382812 60 405.442382812 60 640 c 1,34,-1
 153 640 l 1,35,36
 153 388.75 153 388.75 153 158.5 c 2,37,38
 153 104.724609375 153 104.724609375 172.409557132 79.3857421875 c 0,39,40
 190.323188267 56 190.323188267 56 243.930694018 56 c 128,-1,41
 297.53819977 56 297.53819977 56 317.269651074 80.9072265625 c 128,-1,42
 337 105.815429688 337 105.815429688 337 158.5 c 2,0,1
EndSplineSet
EndChar

StartChar: V
Encoding: 86 86 118
Width: 490
Flags: W
LayerCount: 2
UndoRedoHistory
Layer: 1
Undoes
UndoOperation
Index: 0
Type: 1
WasModified: 1
WasOrder2: 1
Layer: 2
Width: 448
VWidth: 1024
LBearingChange: 0
UnicodeEnc: 0
InstructionsLength: 0
SplineSet
413 640 m 1,0,1
 398 453 398 453 358 286.5 c 128,-1,2
 318 120 318 120 256 -3 c 1,3,-1
 192 -3 l 1,4,5
 130 120 130 120 90 286.5 c 128,-1,6
 50 453 50 453 35 640 c 1,7,-1
 110 640 l 1,8,9
 125 474 125 474 154 333 c 128,-1,10
 183 192 183 192 224 89 c 1,11,12
 265 192 265 192 294 333 c 128,-1,13
 323 474 323 474 338 640 c 1,14,-1
 413 640 l 1,0,1
EndSplineSet
EndUndoOperation
EndUndoes
Redoes
EndRedoes
EndUndoRedoHistory
Fore
SplineSet
288.211297871 -3 m 1,0,-1
 203.540557042 -3 l 1,1,2
 201.936993379 10.3916015625 201.936993379 10.3916015625 200.332354942 2.7841796875 c 2,3,4
 131.497342666 122.907226562 131.497342666 122.907226562 91.2041015625 285.081054688 c 128,-1,5
 50.9755859375 447.188476562 50.9755859375 447.188476562 35 640 c 1,6,-1
 130.970703125 640 l 1,7,8
 148.370228681 465.044921875 148.370228681 465.044921875 178.179101452 333.35546875 c 128,-1,9
 207.987974223 201.666015625 207.987974223 201.666015625 245.875927456 107.908203125 c 1,10,11
 283.764955464 201.666015625 283.764955464 201.666015625 313.573828236 333.35546875 c 128,-1,12
 343.382701007 465.044921875 343.382701007 465.044921875 360.782226562 640 c 1,13,-1
 456.752929688 640 l 1,14,15
 440.783203125 447.258789062 440.783203125 447.258789062 400.543945312 285.083007812 c 128,-1,16
 360.255587022 122.907226562 360.255587022 122.907226562 291.420574745 2.7841796875 c 2,17,18
 289.815936308 10.3916015625 289.815936308 10.3916015625 288.211297871 -3 c 1,0,-1
EndSplineSet
Substitution2: "'sups' Superscript in Latin lookup 9 subtable" V.sups
Substitution2: "'aalt' Access All Alternates in Latin lookup 0 subtable" V.sups
EndChar

StartChar: W
Encoding: 87 87 119
Width: 490
GlyphClass: 2
Flags: W
LayerCount: 2
UndoRedoHistory
Layer: 1
Undoes
UndoOperation
Index: 0
Type: 1
WasModified: 1
WasOrder2: 1
Layer: 2
Width: 448
VWidth: 1024
LBearingChange: 0
UnicodeEnc: 0
InstructionsLength: 0
SplineSet
406 640 m 1,0,1
 404 441 404 441 389 296 c 128,-1,2
 374 151 374 151 336 0 c 1,3,-1
 272 0 l 1,4,5
 251 59 251 59 240 121.5 c 128,-1,6
 229 184 229 184 224 261 c 1,7,8
 219 184 219 184 208 121.5 c 128,-1,9
 197 59 197 59 176 0 c 1,10,-1
 112 0 l 1,11,12
 74 151 74 151 59 296 c 128,-1,13
 44 441 44 441 42 640 c 1,14,-1
 114 640 l 1,15,16
 116 447 116 447 122.5 326 c 128,-1,17
 129 205 129 205 150 81 c 1,18,19
 171 180 171 180 181.5 238.5 c 128,-1,20
 192 297 192 297 192 388 c 5,21,-1
 256 388 l 5,22,23
 256 297 256 297 266.5 238.5 c 128,-1,24
 277 180 277 180 298 81 c 1,25,26
 319 205 319 205 325.5 326 c 128,-1,27
 332 447 332 447 334 640 c 1,28,-1
 406 640 l 1,0,1
EndSplineSet
EndUndoOperation
EndUndoes
Redoes
EndRedoes
EndUndoRedoHistory
Fore
SplineSet
375.79296875 -0 m 1,0,-1
 296.196289062 -0 l 1,1,2
 266.265635244 66.8076171875 266.265635244 66.8076171875 252.229572166 130.170898438 c 0,3,4
 248.374848126 147.56640625 248.374848126 147.56640625 245.106445312 166.04296875 c 1,5,6
 229.894052226 80.083984375 229.894052226 80.083984375 194.016601562 -0 c 1,7,-1
 114.418945312 -0 l 1,8,9
 74.2529296875 154.538085938 74.2529296875 154.538085938 59.181640625 295.555664062 c 128,-1,10
 44.111328125 436.573242188 44.111328125 436.573242188 42 640 c 1,11,-1
 134.998046875 640 l 1,12,13
 137.325460065 436.841796875 137.325460065 436.841796875 143.662155533 330.130859375 c 0,14,15
 148.567382812 223.420898438 148.567382812 223.420898438 162.095703125 128.958984375 c 1,16,17
 174.482421875 189.256835938 174.482421875 189.256835938 181.771484375 229.864257812 c 0,18,19
 192.106445312 287.443359375 192.106445312 287.443359375 198.126430901 377.5 c 2,20,21
 198.126430901 372.25 198.126430901 372.25 198.126430901 388 c 1,22,-1
 292.086562667 388 l 1,23,24
 292.086562667 372.25 292.086562667 372.25 292.086562667 377.5 c 2,25,26
 298.106445312 287.443359375 298.106445312 287.443359375 308.440429688 229.864257812 c 0,27,28
 315.729492188 189.256835938 315.729492188 189.256835938 328.1171875 128.958984375 c 1,29,30
 341.645507812 223.421875 341.645507812 223.421875 346.550838035 330.131835938 c 0,31,32
 352.887533502 436.841796875 352.887533502 436.841796875 355.213867188 640 c 1,33,-1
 448.211914062 640 l 1,34,35
 446.100585938 436.573242188 446.100585938 436.573242188 431.034179688 295.555664062 c 128,-1,36
 415.97265625 154.587890625 415.97265625 154.587890625 375.79296875 -0 c 1,0,-1
EndSplineSet
Substitution2: "'sups' Superscript in Latin lookup 9 subtable" W.sups
Substitution2: "'aalt' Access All Alternates in Latin lookup 0 subtable" W.sups
EndChar

StartChar: X
Encoding: 88 88 124
Width: 490
GlyphClass: 2
Flags: W
LayerCount: 2
UndoRedoHistory
Layer: 1
Undoes
UndoOperation
Index: 0
Type: 1
WasModified: 1
WasOrder2: 1
Layer: 2
Width: 448
VWidth: 1024
LBearingChange: 0
UnicodeEnc: 0
InstructionsLength: 0
SplineSet
326 0 m 1,0,1
 308 91 308 91 287 145.5 c 128,-1,2
 266 200 266 200 224 255 c 1,3,4
 182 199 182 199 160.5 144.5 c 128,-1,5
 139 90 139 90 121 0 c 1,6,-1
 47 0 l 1,7,8
 65 95 65 95 92.5 162 c 128,-1,9
 120 229 120 229 174 300 c 1,10,11
 119 366 119 366 93 442 c 128,-1,12
 67 518 67 518 56 640 c 1,13,-1
 128 640 l 1,14,15
 138 527 138 527 158.5 462 c 128,-1,16
 179 397 179 397 222 344 c 1,17,18
 268 395 268 395 288.5 459.5 c 128,-1,19
 309 524 309 524 320 640 c 1,20,-1
 392 640 l 1,21,22
 381 518 381 518 355 442 c 128,-1,23
 329 366 329 366 274 300 c 1,24,25
 327 229 327 229 354.5 162.5 c 128,-1,26
 382 96 382 96 400 0 c 1,27,-1
 326 0 l 1,0,1
EndSplineSet
EndUndoOperation
EndUndoes
Redoes
EndRedoes
EndUndoRedoHistory
Fore
SplineSet
142.287109375 -0 m 1,0,-1
 47 -0 l 1,1,2
 48.1806640625 16.0087890625 48.1806640625 16.0087890625 49.361328125 12.0673828125 c 2,3,4
 67.55859375 105.0546875 67.55859375 105.0546875 94.8759765625 169.497070312 c 128,-1,5
 122.194335938 233.939453125 122.194335938 233.939453125 176.799854712 300.368164062 c 1,6,7
 121.096679688 363.0703125 121.096679688 363.0703125 95.2158203125 436.321289062 c 128,-1,8
 69.333984375 509.571289062 69.333984375 509.571289062 58.220703125 628.91015625 c 2,9,10
 57.7041015625 624.46484375 57.7041015625 624.46484375 57.1884765625 640 c 1,11,-1
 150.290039062 640 l 1,12,13
 162.341810162 518.573242188 162.341810162 518.573242188 183.746736949 458.055664062 c 128,-1,14
 205.152758953 397.537109375 205.152758953 397.537109375 245.398708843 349.997070312 c 1,15,16
 288.162563291 395.723632812 288.162563291 395.723632812 309.530252691 455.669921875 c 128,-1,17
 330.89794209 515.616210938 330.89794209 515.616210938 344.125976562 640 c 1,18,-1
 437.16796875 640 l 1,19,20
 436.651367188 624.46484375 436.651367188 624.46484375 436.134765625 628.91015625 c 2,21,22
 425.021484375 509.571289062 425.021484375 509.571289062 399.134765625 436.3046875 c 128,-1,23
 373.247070312 363.038085938 373.247070312 363.038085938 317.617414904 300.3125 c 1,24,25
 371.16796875 233.9375 371.16796875 233.9375 398.483398438 169.982421875 c 128,-1,26
 425.798828125 106.02734375 425.798828125 106.02734375 443.998046875 12.048828125 c 2,27,28
 445.165039062 15.9990234375 445.165039062 15.9990234375 446.331054688 0 c 1,29,-1
 351.049804688 0 l 1,30,31
 329.372117635 98.5703125 329.372117635 98.5703125 307.699859505 149.15625 c 128,-1,32
 286.028687159 199.741210938 286.028687159 199.741210938 247.310698548 247.8203125 c 1,33,34
 208.399440301 198.807617188 208.399440301 198.807617188 186.186461502 148.163085938 c 128,-1,35
 163.972396919 97.51953125 163.972396919 97.51953125 142.287109375 -0 c 1,0,-1
EndSplineSet
Substitution2: "'sups' Superscript in Latin lookup 9 subtable" X.sups
Substitution2: "'aalt' Access All Alternates in Latin lookup 0 subtable" X.sups
EndChar

StartChar: Y
Encoding: 89 89 125
Width: 490
GlyphClass: 2
Flags: W
LayerCount: 2
UndoRedoHistory
Layer: 1
Undoes
UndoOperation
Index: 0
Type: 1
WasModified: 1
WasOrder2: 1
Layer: 2
Width: 448
VWidth: 1024
LBearingChange: 0
UnicodeEnc: 0
InstructionsLength: 0
SplineSet
412 640 m 1,0,1
 396 498 396 498 359 391.5 c 128,-1,2
 322 285 322 285 260 202 c 1,3,-1
 260 0 l 1,4,-1
 188 0 l 1,5,-1
 188 202 l 1,6,7
 126 285 126 285 89 391.5 c 128,-1,8
 52 498 52 498 36 640 c 1,9,-1
 108 640 l 1,10,11
 122 519 122 519 148 432.5 c 128,-1,12
 174 346 174 346 224 256 c 1,13,14
 274 346 274 346 300 432.5 c 128,-1,15
 326 519 326 519 340 640 c 1,16,-1
 412 640 l 1,0,1
EndSplineSet
EndUndoOperation
EndUndoes
Redoes
EndRedoes
EndUndoRedoHistory
Fore
SplineSet
297.328266722 202.388671875 m 1,0,1
 297.328266722 108.145507812 297.328266722 108.145507812 297.328266722 0 c 1,2,-1
 195.171637127 0 l 1,3,4
 195.171637127 108.145507812 195.171637127 108.145507812 195.171637127 202.388671875 c 1,5,6
 127.736328125 283.03515625 127.736328125 283.03515625 90.591796875 386.5546875 c 128,-1,7
 53.447265625 490.07421875 53.447265625 490.07421875 37.31640625 628.684570312 c 2,8,9
 36.658203125 624.35546875 36.658203125 624.35546875 36 640 c 1,10,-1
 129.106445312 640 l 1,11,12
 145.547921516 510.638671875 145.547921516 510.638671875 172.442988481 429.1796875 c 128,-1,13
 199.338055446 347.721679688 199.338055446 347.721679688 246.249951925 267.475585938 c 1,14,15
 293.162921117 347.721679688 293.162921117 347.721679688 320.057988082 429.1796875 c 128,-1,16
 346.953055047 510.638671875 346.953055047 510.638671875 363.39453125 640 c 1,17,-1
 456.500976562 640 l 1,18,19
 455.842773438 624.35546875 455.842773438 624.35546875 455.18359375 628.684570312 c 2,20,21
 439.053710938 490.07421875 439.053710938 490.07421875 401.908203125 386.5546875 c 128,-1,22
 364.763671875 283.03515625 364.763671875 283.03515625 297.328266722 202.388671875 c 1,0,1
EndSplineSet
Substitution2: "'sups' Superscript in Latin lookup 9 subtable" Y.sups
Substitution2: "'aalt' Access All Alternates in Latin lookup 0 subtable" Y.sups
EndChar

StartChar: Z
Encoding: 90 90 130
Width: 490
GlyphClass: 2
Flags: W
LayerCount: 2
UndoRedoHistory
Layer: 1
Undoes
UndoOperation
Index: 0
Type: 1
WasModified: 1
WasOrder2: 1
Layer: 2
Width: 448
VWidth: 1024
LBearingChange: 0
UnicodeEnc: 0
InstructionsLength: 0
SplineSet
70 640 m 1,0,-1
 390 640 l 1,1,-1
 390 588 l 1,2,-1
 264 334 l 1,3,-1
 420 334 l 1,4,-1
 420 308 l 1,5,-1
 252 308 l 5,6,-1
 142 64 l 1,7,-1
 390 64 l 1,8,-1
 390 0 l 1,9,-1
 58 0 l 1,10,-1
 58 52 l 1,11,-1
 176 308 l 5,12,-1
 28 308 l 1,13,-1
 28 334 l 1,14,-1
 188 334 l 1,15,-1
 306 576 l 1,16,-1
 70 576 l 1,17,-1
 70 640 l 1,0,-1
EndSplineSet
EndUndoOperation
EndUndoes
Redoes
EndRedoes
EndUndoRedoHistory
Fore
SplineSet
70 555 m 1,0,1
 70 587 70 587 70 640 c 1,2,-1
 432 640 l 1,3,4
 432 599.569335938 432 599.569335938 432 577.265625 c 1,5,-1
 309.079336302 344.5 l 1,6,-1
 462 344.5 l 1,7,-1
 462 334 l 1,8,-1
 462 308 l 1,9,-1
 462 297.5 l 1,10,-1
 284.153060347 297.5 l 1,11,-1
 170.997198543 85 l 1,12,-1
 432 85 l 1,13,14
 432 53 432 53 432 0 c 1,15,-1
 58 0 l 1,16,17
 58 40.3740234375 58 40.3740234375 58 62.59765625 c 1,18,-1
 172.509680605 297.5 l 1,19,-1
 28 297.5 l 1,20,-1
 28 308 l 1,21,-1
 28 334 l 1,22,-1
 28 344.5 l 1,23,-1
 197.091910858 344.5 l 1,24,-1
 318.383958869 555 l 1,25,-1
 70 555 l 1,0,1
EndSplineSet
Substitution2: "'sups' Superscript in Latin lookup 9 subtable" Z.sups
Substitution2: "'aalt' Access All Alternates in Latin lookup 0 subtable" Z.sups
EndChar

StartChar: a
Encoding: 97 97 134
Width: 490
GlyphClass: 2
Flags: W
LayerCount: 2
UndoRedoHistory
Layer: 1
Undoes
UndoOperation
Index: 0
Type: 1
WasModified: 1
WasOrder2: 1
Layer: 2
Width: 448
VWidth: 1024
LBearingChange: 0
UnicodeEnc: 0
InstructionsLength: 0
SplineSet
384 0 m 1,0,-1
 316 0 l 1,1,-1
 311 39 l 1,2,3
 277 19 277 19 244.5 7.5 c 128,-1,4
 212 -4 212 -4 176 -4 c 0,5,6
 123 -4 123 -4 86.5 28 c 128,-1,7
 50 60 50 60 50 119 c 0,8,9
 50 190 50 190 110.5 227 c 128,-1,10
 171 264 171 264 308 268 c 1,11,-1
 308 285 l 2,12,13
 308 343 308 343 287.5 365.5 c 128,-1,14
 267 388 267 388 216 388 c 256,15,16
 165 388 165 388 94 361 c 1,17,-1
 73 419 l 1,18,19
 149 453 149 453 221 453 c 0,20,21
 299 453 299 453 339.5 416 c 128,-1,22
 380 379 380 379 380 299 c 2,23,-1
 380 64 l 1,24,-1
 384 0 l 1,0,-1
142 77 m 128,-1,26
 158 60 158 60 191 60 c 0,27,28
 217 60 217 60 245 70.5 c 128,-1,29
 273 81 273 81 308 100 c 1,30,-1
 308 206 l 1,31,32
 209 203 209 203 167.5 183 c 128,-1,33
 126 163 126 163 126 123 c 0,34,25
 126 94 126 94 142 77 c 128,-1,26
EndSplineSet
EndUndoOperation
EndUndoes
Redoes
EndRedoes
EndUndoRedoHistory
Fore
SplineSet
426.676757812 -0 m 1,0,-1
 338.258789062 -0 l 1,1,2
 337.672851562 15.0771484375 337.672851562 15.0771484375 337.0859375 9.154296875 c 1,3,4
 335.578125 31.41015625 335.578125 31.41015625 334.071289062 32.6669921875 c 1,5,6
 306.33203125 17.5927734375 306.33203125 17.5927734375 270.475309943 6.7958984375 c 0,7,8
 234.134215341 -4 234.134215341 -4 189.102150989 -4 c 0,9,10
 129.551757812 -4 129.551757812 -4 89.7763671875 29.00390625 c 128,-1,11
 50 62.0078125 50 62.0078125 50 122.348632812 c 0,12,13
 50 195.115234375 50 195.115234375 115.533203125 233.046875 c 0,14,15
 176.789168417 268.138671875 176.789168417 268.138671875 329 272.97265625 c 1,16,17
 329 271.139648438 329 271.139648438 329 279.455078125 c 2,18,19
 329 330.502929688 329 330.502929688 311.432617188 348.750976562 c 0,20,21
 291.966617233 367 291.966617233 367 235.13567746 367 c 128,-1,22
 178.304737687 367 178.304737687 367 108.227539062 340.681640625 c 2,23,24
 103.243164062 328.286132812 103.243164062 328.286132812 98.2587890625 336.890625 c 1,25,26
 84.2802734375 364.99609375 84.2802734375 364.99609375 70.302734375 414.100585938 c 1,27,28
 74.76171875 405.594726562 74.76171875 405.594726562 79.220703125 418.08984375 c 2,29,30
 157.254882812 453 157.254882812 453 242.699566149 453 c 0,31,32
 334.571289062 453 334.571289062 453 378.28515625 413.080078125 c 128,-1,33
 422 373.16015625 422 373.16015625 422 288.569335938 c 2,34,35
 422 160.907226562 422 160.907226562 422 54 c 1,36,37
 424.338867188 27.060546875 424.338867188 27.060546875 426.676757812 -0 c 1,0,-1
185.334745873 184.415039062 m 0,38,39
 147 166.903320312 147 166.903320312 147 133.5 c 0,40,41
 147 108.661132812 147 108.661132812 160.016601562 94.830078125 c 128,-1,42
 173.063636283 81 173.063636283 81 204.362526138 81 c 128,-1,43
 235.661415994 81 235.661415994 81 266.229854966 90.625 c 128,-1,44
 296.799457076 100.249023438 296.799457076 100.249023438 329 116.778320312 c 1,45,46
 329 171.697265625 329 171.697265625 329 205.616210938 c 1,47,48
 228.613960732 201.926757812 228.613960732 201.926757812 185.334745873 184.415039062 c 0,38,39
EndSplineSet
EndChar

StartChar: aogonek
Encoding: 261 261 141
Width: 490
GlyphClass: 2
Flags: W
LayerCount: 2
UndoRedoHistory
Layer: 1
Undoes
UndoOperation
Index: 0
Type: 1
WasModified: 1
WasOrder2: 1
Layer: 2
Width: 448
VWidth: 1024
LBearingChange: 0
UnicodeEnc: 0
InstructionsLength: 0
SplineSet
401 -181 m 1,0,1
 373 -197 373 -197 337 -197 c 0,2,3
 296 -197 296 -197 274.5 -176 c 128,-1,4
 253 -155 253 -155 253 -118 c 0,5,6
 253 -58 253 -58 316 1 c 1,7,-1
 311 39 l 1,8,9
 277 19 277 19 244.5 7.5 c 128,-1,10
 212 -4 212 -4 176 -4 c 0,11,12
 123 -4 123 -4 86.5 28 c 128,-1,13
 50 60 50 60 50 119 c 0,14,15
 50 190 50 190 110.5 227 c 128,-1,16
 171 264 171 264 308 268 c 1,17,-1
 308 285 l 2,18,19
 308 343 308 343 287.5 365.5 c 128,-1,20
 267 388 267 388 216 388 c 256,21,22
 165 388 165 388 94 361 c 1,23,-1
 73 419 l 1,24,25
 149 453 149 453 221 453 c 0,26,27
 299 453 299 453 339.5 416 c 128,-1,28
 380 379 380 379 380 299 c 2,29,-1
 380 64 l 1,30,-1
 384 0 l 1,31,32
 353 -34 353 -34 338 -59.5 c 128,-1,33
 323 -85 323 -85 323 -108 c 0,34,35
 323 -136 323 -136 351 -136 c 0,36,37
 366 -136 366 -136 384 -128 c 1,38,-1
 401 -181 l 1,0,1
142 77 m 128,-1,40
 158 60 158 60 191 60 c 0,41,42
 217 60 217 60 245 70.5 c 128,-1,43
 273 81 273 81 308 100 c 1,44,-1
 308 206 l 1,45,46
 209 203 209 203 167.5 183 c 128,-1,47
 126 163 126 163 126 123 c 0,48,39
 126 94 126 94 142 77 c 128,-1,40
EndSplineSet
EndUndoOperation
EndUndoes
Redoes
EndRedoes
EndUndoRedoHistory
Fore
SplineSet
437.698242188 -179.623046875 m 2,0,1
 407.2890625 -197 407.2890625 -197 368.5 -197 c 0,2,3
 323.225585938 -197 323.225585938 -197 294.810973783 -173.010742188 c 0,4,5
 266.110004082 -148.918945312 266.110004082 -148.918945312 266.110004082 -107.5 c 0,6,7
 266.110004082 -44.900390625 266.110004082 -44.900390625 336.392578125 15.421875 c 1,8,9
 335.255859375 34.5576171875 335.255859375 34.5576171875 334.120117188 32.693359375 c 1,10,11
 303.759785455 17.6015625 303.759785455 17.6015625 268.241809884 6.80078125 c 128,-1,12
 232.723834314 -4 232.723834314 -4 188.728635242 -4 c 0,13,14
 129.551757812 -4 129.551757812 -4 89.7763671875 29.00390625 c 128,-1,15
 50 62.0078125 50 62.0078125 50 122.348632812 c 0,16,17
 50 195.115234375 50 195.115234375 115.533203125 233.046875 c 0,18,19
 176.699159641 268.138671875 176.699159641 268.138671875 329 272.97265625 c 1,20,21
 329 271.139648438 329 271.139648438 329 279.455078125 c 2,22,23
 329 330.502929688 329 330.502929688 309.667705694 348.750976562 c 0,24,25
 289.224642586 367 289.224642586 367 233.702237723 367 c 128,-1,26
 178.179832861 367 178.179832861 367 108.227539062 340.681640625 c 2,27,28
 103.243164062 328.286132812 103.243164062 328.286132812 98.2587890625 336.890625 c 1,29,30
 84.2802734375 364.99609375 84.2802734375 364.99609375 70.302734375 414.100585938 c 1,31,32
 74.76171875 405.594726562 74.76171875 405.594726562 79.220703125 418.08984375 c 2,33,34
 157.254882812 453 157.254882812 453 241.091967539 453 c 0,35,36
 334.571289062 453 334.571289062 453 378.28515625 413.080078125 c 128,-1,37
 422 373.16015625 422 373.16015625 422 288.569335938 c 2,38,39
 422 160.907226562 422 160.907226562 422 54 c 1,40,41
 424.12890625 30.416015625 424.12890625 30.416015625 426.256835938 6.716796875 c 1,42,43
 393.000976562 -29.7578125 393.000976562 -29.7578125 379 -53.55859375 c 128,-1,44
 365 -77.359375 365 -77.359375 365 -97.5 c 0,45,46
 365 -108.010742188 365 -108.010742188 369.368164062 -111.505859375 c 128,-1,47
 373.736328125 -115 373.736328125 -115 384.501953125 -115 c 128,-1,48
 395.268554688 -115 395.268554688 -115 411.244140625 -107.899414062 c 2,49,50
 416.584960938 -95.025390625 416.584960938 -95.025390625 421.926757812 -103.151367188 c 1,51,52
 433.512695312 -128.7734375 433.512695312 -128.7734375 445.098632812 -175.39453125 c 1,53,54
 441.3984375 -167.008789062 441.3984375 -167.008789062 437.698242188 -179.623046875 c 2,0,1
185.047974797 184.415039062 m 0,55,56
 147 166.903320312 147 166.903320312 147 133.5 c 0,57,58
 147 108.661132812 147 108.661132812 160.016601562 94.830078125 c 128,-1,59
 173.059408049 81 173.059408049 81 203.637639577 81 c 128,-1,60
 234.215871104 81 234.215871104 81 264.080470412 90.625 c 128,-1,61
 293.946206077 100.249023438 293.946206077 100.249023438 329 116.778320312 c 1,62,63
 329 171.697265625 329 171.697265625 329 205.616210938 c 1,64,65
 227.330683813 201.926757812 227.330683813 201.926757812 185.047974797 184.415039062 c 0,55,56
EndSplineSet
EndChar

StartChar: ae
Encoding: 230 230 145
Width: 469
Flags: W
LayerCount: 2
UndoRedoHistory
Layer: 1
Undoes
UndoOperation
Index: 0
Type: 1
WasModified: 1
WasOrder2: 1
Layer: 2
Width: 448
VWidth: 1024
LBearingChange: 0
UnicodeEnc: 0
InstructionsLength: 0
SplineSet
320 384 m 1,0,-1
 384 384 l 1,1,-1
 384 192 l 1,2,-1
 256 192 l 1,3,-1
 256 64 l 1,4,-1
 384 64 l 1,5,-1
 384 0 l 1,6,-1
 128 0 l 1,7,-1
 128 64 l 1,8,-1
 192 64 l 1,9,-1
 192 192 l 1,10,-1
 128 192 l 1,11,-1
 128 256 l 1,12,-1
 192 256 l 1,13,-1
 192 384 l 1,14,-1
 128 384 l 1,15,-1
 128 448 l 1,16,-1
 320 448 l 1,17,-1
 320 384 l 1,18,-1
 256 384 l 1,19,-1
 256 256 l 1,20,-1
 320 256 l 1,21,-1
 320 384 l 1,0,-1
64 192 m 1,22,-1
 128 192 l 1,23,-1
 128 64 l 1,24,-1
 64 64 l 1,25,-1
 64 192 l 1,22,-1
EndSplineSet
EndUndoOperation
EndUndoes
Redoes
EndRedoes
EndUndoRedoHistory
Fore
SplineSet
192 266.5 m 1,0,-1
 192 363 l 1,1,-1
 128 363 l 1,2,3
 128 395 128 395 128 448 c 1,4,-1
 341 448 l 1,5,6
 341 405.5 341 405.5 341 384 c 1,7,-1
 405 384 l 1,8,-1
 405 181.5 l 1,9,-1
 277 181.5 l 1,10,-1
 277 85 l 1,11,-1
 405 85 l 1,12,13
 405 53 405 53 405 0 c 1,14,-1
 128 0 l 1,15,16
 128 42.5 128 42.5 128 64 c 1,17,-1
 64 64 l 1,18,-1
 64 202.5 l 1,19,-1
 128 202.5 l 1,20,-1
 128 266.5 l 1,21,-1
 192 266.5 l 1,0,-1
277 266.5 m 1,22,-1
 320 266.5 l 1,23,-1
 320 363 l 1,24,-1
 277 363 l 1,25,-1
 277 266.5 l 1,22,-1
192 181.5 m 1,26,-1
 149 181.5 l 1,27,-1
 149 85 l 1,28,-1
 192 85 l 1,29,-1
 192 181.5 l 1,26,-1
EndSplineSet
EndChar

StartChar: b
Encoding: 98 98 147
Width: 490
GlyphClass: 2
Flags: W
LayerCount: 2
UndoRedoHistory
Layer: 1
Undoes
UndoOperation
Index: 0
Type: 1
WasModified: 1
WasOrder2: 1
Layer: 2
Width: 448
VWidth: 1024
LBearingChange: 0
UnicodeEnc: 0
InstructionsLength: 0
SplineSet
355.5 392 m 128,-1,1
 397 328 397 328 397 224 c 256,2,3
 397 120 397 120 356 56 c 128,-1,4
 315 -8 315 -8 233 -8 c 0,5,6
 123 -8 123 -8 82 38 c 1,7,-1
 68 58 l 1,8,-1
 62 83 l 1,9,-1
 60 640 l 1,10,-1
 132 640 l 1,11,-1
 132 421 l 1,12,13
 169 456 169 456 232 456 c 0,14,0
 314 456 314 456 355.5 392 c 128,-1,1
279.5 71.5 m 128,-1,16
 300 87 300 87 309.5 123.5 c 128,-1,17
 319 160 319 160 319 224 c 0,18,19
 319 289 319 289 309.5 325 c 128,-1,20
 300 361 300 361 279.5 376.5 c 128,-1,21
 259 392 259 392 224 392 c 0,22,23
 160 392 160 392 132 350 c 1,24,-1
 132 99 l 1,25,26
 161 56 161 56 224 56 c 0,27,15
 259 56 259 56 279.5 71.5 c 128,-1,16
EndSplineSet
EndUndoOperation
EndUndoes
Redoes
EndRedoes
EndUndoRedoHistory
Fore
SplineSet
395.140625 391.234375 m 128,-1,1
 439.038085938 326.467773438 439.038085938 326.467773438 439.038085938 224 c 128,-1,2
 439.038085938 121.5625 439.038085938 121.5625 396.385742188 57.8662109375 c 0,3,4
 352.280273438 -8 352.280273438 -8 254.883307884 -8 c 0,5,6
 128.833984375 -8 128.833984375 -8 84.6982421875 39.9638671875 c 1,7,8
 84.314453125 49.083984375 84.314453125 49.083984375 83.9296875 40.9033203125 c 1,9,10
 76.9296875 58.9208984375 76.9296875 58.9208984375 69.9296875 60.2763671875 c 1,11,12
 69.359375 69.0673828125 69.359375 69.0673828125 68.7890625 61.8544921875 c 1,13,14
 68.55859375 70.7353515625 68.55859375 70.7353515625 68.3271484375 63.7197265625 c 1,15,16
 65.3271484375 83.3662109375 65.3271484375 83.3662109375 62.3271484375 87.935546875 c 1,17,18
 62.1865234375 95.650390625 62.1865234375 95.650390625 62.046875 89.0849609375 c 1,19,20
 61.0234375 363.018554688 61.0234375 363.018554688 60 640 c 1,21,-1
 153.038085938 640 l 1,22,23
 153.038085938 525.572265625 153.038085938 525.572265625 153.038085938 432.14453125 c 1,24,25
 190.58979627 456 190.58979627 456 253.696272277 456 c 0,26,0
 351.243164062 456 351.243164062 456 395.140625 391.234375 c 128,-1,1
244.199987417 77 m 0,27,28
 281.567265547 77 281.567265547 77 302.573390782 89.48828125 c 0,29,30
 322.291992188 101.893554688 322.291992188 101.893554688 331.165039062 133.7109375 c 128,-1,31
 340.038085938 165.528320312 340.038085938 165.528320312 340.038085938 224.458007812 c 128,-1,32
 340.038085938 283.387695312 340.038085938 283.387695312 331.172851562 314.7421875 c 128,-1,33
 322.307617188 346.095703125 322.307617188 346.095703125 302.573390782 358.51171875 c 0,34,35
 281.567265547 371 281.567265547 371 244.199987417 371 c 0,36,37
 178.088867188 371 178.088867188 371 153.038085938 338.540039062 c 1,38,39
 153.038085938 224.446289062 153.038085938 224.446289062 153.038085938 110.415039062 c 1,40,41
 178.978515625 77 178.978515625 77 244.199987417 77 c 0,27,28
EndSplineSet
EndChar

StartChar: c
Encoding: 99 99 148
Width: 490
GlyphClass: 2
Flags: W
LayerCount: 2
UndoRedoHistory
Layer: 1
Undoes
UndoOperation
Index: 0
Type: 1
WasModified: 1
WasOrder2: 1
Layer: 2
Width: 448
VWidth: 1024
LBearingChange: 0
UnicodeEnc: 0
InstructionsLength: 0
SplineSet
345 376 m 1,0,1
 291 391 291 391 242 391 c 0,2,3
 198 391 198 391 173 375 c 128,-1,4
 148 359 148 359 137 323.5 c 128,-1,5
 126 288 126 288 126 224 c 256,6,7
 126 160 126 160 137 124.5 c 128,-1,8
 148 89 148 89 173 73 c 128,-1,9
 198 57 198 57 242 57 c 0,10,11
 291 57 291 57 345 72 c 1,12,-1
 358 12 l 1,13,14
 302 -7 302 -7 238 -7 c 0,15,16
 50 -7 50 -7 50 224 c 256,17,18
 50 455 50 455 238 455 c 0,19,20
 302 455 302 455 358 436 c 1,21,-1
 345 376 l 1,0,1
EndSplineSet
EndUndoOperation
EndUndoes
Redoes
EndRedoes
EndUndoRedoHistory
Fore
SplineSet
384.408203125 352.403320312 m 1,0,1
 379.047851562 343.392578125 379.047851562 343.392578125 373.6875 355.381835938 c 2,2,3
 321.061523438 370 321.061523438 370 276.309459041 370 c 0,4,5
 221.131657846 370 221.131657846 370 193.585991449 356.8125 c 0,6,7
 167.396484375 343.625 167.396484375 343.625 157.198242188 312.920898438 c 128,-1,8
 147 282.216796875 147 282.216796875 147 224 c 128,-1,9
 147 165.783203125 147 165.783203125 157.198242188 135.079101562 c 128,-1,10
 167.396484375 104.375 167.396484375 104.375 193.585991449 91.1875 c 0,11,12
 221.131657846 78 221.131657846 78 276.309459041 78 c 0,13,14
 321.061523438 78 321.061523438 78 373.6875 92.6181640625 c 2,15,16
 379.047851562 104.607421875 379.047851562 104.607421875 384.408203125 95.5966796875 c 1,17,18
 393.078125 66.0810546875 393.078125 66.0810546875 401.748046875 15.5654296875 c 1,19,20
 397.309570312 24.5595703125 397.309570312 24.5595703125 392.87109375 12.5537109375 c 2,21,22
 335.5 -6.5 335.5 -6.5 267.185215844 -7 c 0,23,24
 138.36328125 -7 138.36328125 -7 88.830078125 65.7705078125 c 0,25,26
 50 122.81640625 50 122.81640625 50 224 c 128,-1,27
 50 325.18359375 50 325.18359375 88.830078125 382.229492188 c 0,28,29
 138.36328125 455 138.36328125 455 267.185215844 455 c 0,30,31
 335.239257812 455 335.239257812 455 392.87109375 435.446289062 c 2,32,33
 397.309570312 423.440429688 397.309570312 423.440429688 401.748046875 432.434570312 c 1,34,35
 393.078125 381.918945312 393.078125 381.918945312 384.408203125 352.403320312 c 1,0,1
EndSplineSet
EndChar

StartChar: ccedilla
Encoding: 231 231 151
Width: 490
GlyphClass: 2
Flags: W
LayerCount: 2
UndoRedoHistory
Layer: 1
Undoes
UndoOperation
Index: 0
Type: 1
WasModified: 1
WasOrder2: 1
Layer: 2
Width: 448
VWidth: 1024
LBearingChange: 0
UnicodeEnc: 0
InstructionsLength: 0
SplineSet
358 12 m 1,0,1
 335 4 335 4 300 -2 c 1,2,3
 298 -91 298 -91 257 -141.5 c 128,-1,4
 216 -192 216 -192 106 -192 c 1,5,-1
 104 -128 l 1,6,7
 152 -126 152 -126 179 -115 c 128,-1,8
 206 -104 206 -104 218 -79 c 128,-1,9
 230 -54 230 -54 232 -7 c 1,10,11
 50 -3 50 -3 50 224 c 0,12,13
 50 455 50 455 238 455 c 0,14,15
 302 455 302 455 358 436 c 1,16,-1
 345 376 l 1,17,18
 291 391 291 391 242 391 c 0,19,20
 198 391 198 391 173 375 c 128,-1,21
 148 359 148 359 137 323.5 c 128,-1,22
 126 288 126 288 126 224 c 256,23,24
 126 160 126 160 137 124.5 c 128,-1,25
 148 89 148 89 173 73 c 128,-1,26
 198 57 198 57 242 57 c 0,27,28
 291 57 291 57 345 72 c 1,29,-1
 358 12 l 1,0,1
EndSplineSet
EndUndoOperation
EndUndoes
Redoes
EndRedoes
EndUndoRedoHistory
Fore
SplineSet
245.871363708 -6.5546875 m 1,0,1
 132.989257812 -0.8974609375 132.989257812 -0.8974609375 87.5703125 67.787109375 c 0,2,3
 50 124.602539062 50 124.602539062 50 224.895507812 c 128,-1,4
 50 325.188476562 50 325.188476562 88.830078125 382.232421875 c 0,5,6
 138.36328125 455 138.36328125 455 267.185215844 455 c 0,7,8
 335.239257812 455 335.239257812 455 392.87109375 435.446289062 c 2,9,10
 397.309570312 423.440429688 397.309570312 423.440429688 401.748046875 432.434570312 c 1,11,12
 393.078125 381.918945312 393.078125 381.918945312 384.408203125 352.403320312 c 1,13,14
 379.047851562 343.392578125 379.047851562 343.392578125 373.6875 355.381835938 c 2,15,16
 321.061523438 370 321.061523438 370 276.309459041 370 c 0,17,18
 221.131657846 370 221.131657846 370 193.585991449 356.8125 c 0,19,20
 167.396484375 343.625 167.396484375 343.625 157.198242188 312.920898438 c 128,-1,21
 147 282.216796875 147 282.216796875 147 224 c 128,-1,22
 147 165.783203125 147 165.783203125 157.198242188 135.079101562 c 128,-1,23
 167.396484375 104.375 167.396484375 104.375 193.585991449 91.1875 c 0,24,25
 221.131657846 78 221.131657846 78 276.309459041 78 c 0,26,27
 321.061523438 78 321.061523438 78 373.6875 92.6181640625 c 2,28,29
 379.047851562 104.607421875 379.047851562 104.607421875 384.408203125 95.5966796875 c 1,30,31
 393.0703125 66.1162109375 393.0703125 66.1162109375 401.732421875 15.6357421875 c 1,32,33
 371.956054688 5.2783203125 371.956054688 5.2783203125 341.7109375 -0.3447265625 c 1,34,35
 337.88671875 -86.8251953125 337.88671875 -86.8251953125 296.655273438 -137.611328125 c 0,36,37
 245.982189406 -192 245.982189406 -192 116.5 -192 c 2,38,-1
 106.323242188 -192 l 1,39,40
 105.001953125 -139.220703125 105.001953125 -139.220703125 103.680664062 -107.44140625 c 1,41,42
 108.868164062 -96.7255859375 108.868164062 -96.7255859375 114.056640625 -107.008789062 c 2,43,44
 160.229492188 -105.084960938 160.229492188 -105.084960938 187.380970214 -95.1943359375 c 0,45,46
 217.658307392 -85.302734375 217.658307392 -85.302734375 230.08052851 -64.5517578125 c 128,-1,47
 242.502749628 -43.7998046875 242.502749628 -43.7998046875 245.871363708 -6.5546875 c 1,0,1
EndSplineSet
EndChar

StartChar: d
Encoding: 100 100 154
Width: 490
GlyphClass: 2
Flags: W
LayerCount: 2
UndoRedoHistory
Layer: 1
Undoes
UndoOperation
Index: 0
Type: 1
WasModified: 1
WasOrder2: 1
Layer: 2
Width: 448
VWidth: 1024
LBearingChange: 0
UnicodeEnc: 0
InstructionsLength: 0
SplineSet
390 0 m 1,0,-1
 329 0 l 1,1,-1
 324 36 l 1,2,3
 285 -8 285 -8 215 -8 c 0,4,5
 133 -8 133 -8 92 56 c 128,-1,6
 51 120 51 120 51 224 c 256,7,8
 51 328 51 328 92.5 392 c 128,-1,9
 134 456 134 456 216 456 c 0,10,11
 279 456 279 456 316 421 c 1,12,-1
 316 640 l 1,13,-1
 388 640 l 1,14,-1
 388 64 l 1,15,-1
 390 0 l 1,0,-1
316 99 m 1,17,-1
 316 350 l 1,18,19
 288 392 288 392 224 392 c 0,20,21
 189 392 189 392 168.5 376.5 c 128,-1,22
 148 361 148 361 138.5 325 c 128,-1,23
 129 289 129 289 129 224 c 0,24,25
 129 160 129 160 138.5 123.5 c 128,-1,26
 148 87 148 87 168.5 71.5 c 128,-1,27
 189 56 189 56 224 56 c 0,28,16
 287 56 287 56 316 99 c 1,17,-1
EndSplineSet
EndUndoOperation
EndUndoes
Redoes
EndRedoes
EndUndoRedoHistory
Fore
SplineSet
432.333007812 0 m 1,0,-1
 351.356445312 0 l 1,1,2
 350.728515625 15.0224609375 350.728515625 15.0224609375 350.100585938 9.044921875 c 1,3,4
 349.016601562 27.349609375 349.016601562 27.349609375 347.932617188 24.654296875 c 1,5,6
 309.01865746 -8.0078125 309.01865746 -8.0078125 237.134991435 -8.0078125 c 0,7,8
 236.051079998 -8.0078125 236.051079998 -8.0078125 234.961390782 -8 c 0,9,10
 137.756835938 -8 137.756835938 -8 93.65234375 57.8662109375 c 0,11,12
 51 121.5625 51 121.5625 51 224 c 128,-1,13
 51 326.467773438 51 326.467773438 94.8974609375 391.234375 c 128,-1,14
 138.794921875 456 138.794921875 456 236.144680026 456 c 0,15,16
 299.051987801 456 299.051987801 456 337 432.14453125 c 1,17,18
 337 525.572265625 337 525.572265625 337 640 c 1,19,-1
 430 640 l 1,20,21
 430 336.672851562 430 336.672851562 430 54 c 1,22,23
 431.166992188 27.1201171875 431.166992188 27.1201171875 432.333007812 0 c 1,0,-1
337 338.540039062 m 1,24,25
 311.948242188 371 311.948242188 371 245.610993979 371 c 0,26,27
 208.361649463 371 208.361649463 371 187.421820954 358.51171875 c 0,28,29
 167.729492188 346.095703125 167.729492188 346.095703125 158.865234375 314.7421875 c 128,-1,30
 150 283.387695312 150 283.387695312 150 224.458007812 c 128,-1,31
 150 165.528320312 150 165.528320312 158.873046875 133.7109375 c 128,-1,32
 167.74609375 101.893554688 167.74609375 101.893554688 187.421820954 89.48828125 c 0,33,34
 208.361649463 77 208.361649463 77 245.610993979 77 c 0,35,36
 311.059570312 77 311.059570312 77 337 110.415039062 c 1,37,38
 337 224.446289062 337 224.446289062 337 338.540039062 c 1,24,25
EndSplineSet
EndChar

StartChar: eth
Encoding: 240 240 155
Width: 490
Flags: W
LayerCount: 2
UndoRedoHistory
Layer: 1
Undoes
UndoOperation
Index: 0
Type: 1
WasModified: 1
WasOrder2: 1
Layer: 2
Width: 448
VWidth: 1024
LBearingChange: 0
UnicodeEnc: 0
InstructionsLength: 0
SplineSet
284 552 m 1,0,1
 400 427 400 427 400 252 c 0,2,3
 400 124 400 124 354 58 c 128,-1,4
 308 -8 308 -8 221 -8 c 0,5,6
 141 -8 141 -8 94 49 c 128,-1,7
 47 106 47 106 47 203 c 0,8,9
 47 269 47 269 69 316.5 c 128,-1,10
 91 364 91 364 129.5 389 c 128,-1,11
 168 414 168 414 215 414 c 0,12,13
 263 414 263 414 306 391 c 1,14,15
 283 458 283 458 230 514 c 1,16,-1
 154 461 l 1,17,-1
 123 505 l 1,18,-1
 190 552 l 1,19,20
 168 572 168 572 132 596 c 1,21,-1
 168 648 l 1,22,23
 215 616 215 616 245 590 c 1,24,-1
 310 635 l 1,25,-1
 341 591 l 1,26,-1
 284 552 l 1,0,1
304.5 105 m 128,-1,28
 327 154 327 154 327 247 c 0,29,30
 327 289 327 289 323 320 c 1,31,32
 275 350 275 350 223 350 c 0,33,34
 166 350 166 350 143.5 310 c 128,-1,35
 121 270 121 270 121 203 c 0,36,37
 121 56 121 56 224 56 c 0,38,27
 282 56 282 56 304.5 105 c 128,-1,28
EndSplineSet
EndUndoOperation
EndUndoes
Redoes
EndRedoes
EndUndoRedoHistory
Fore
SplineSet
331.35546875 539.626953125 m 1,0,1
 442 418.939453125 442 418.939453125 442 252.509765625 c 0,2,3
 442 126.0625 442 126.0625 393.489257812 59.03125 c 128,-1,4
 344.979492188 -8 344.979492188 -8 241.590611354 -8 c 0,5,6
 146.55078125 -8 146.55078125 -8 96.775390625 49.921875 c 128,-1,7
 47 107.84375 47 107.84375 47 204.53125 c 0,8,9
 47 270.08203125 47 270.08203125 70.12109375 317.98046875 c 128,-1,10
 93.2412109375 365.87890625 93.2412109375 365.87890625 134.29296875 391.456054688 c 0,11,12
 176.293019924 417.063476562 176.293019924 417.063476562 234.608078603 417.063476562 c 0,13,14
 278.00456511 417.063476562 278.00456511 417.063476562 318.165493228 404.403320312 c 1,15,16
 293.90846539 449.879882812 293.90846539 449.879882812 250.323323212 489.657226562 c 1,17,18
 205.478961262 452.284179688 205.478961262 452.284179688 161.935546875 435.911132812 c 1,19,20
 140.396484375 455.982421875 140.396484375 455.982421875 118.857421875 497.053710938 c 1,21,22
 151.166992188 509.217773438 151.166992188 509.217773438 185.701937346 542.381835938 c 1,23,24
 164.29296875 558.352539062 164.29296875 558.352539062 127.78515625 582.69140625 c 1,25,26
 151.791992188 606.866210938 151.791992188 606.866210938 176.766932059 652.041992188 c 1,27,28
 236.611692737 617.030273438 236.611692737 617.030273438 270.294685197 592.729492188 c 1,29,30
 309.23389738 605.39453125 309.23389738 605.39453125 344.084960938 639.059570312 c 1,31,32
 365.649414062 597.952148438 365.649414062 597.952148438 387.212890625 577.845703125 c 1,33,34
 359.284179688 548.236328125 359.284179688 548.236328125 331.35546875 539.626953125 c 1,0,1
326.452148438 119.873046875 m 0,35,36
 348 166.798828125 348 166.798828125 348 257.5 c 0,37,38
 348 295.467773438 348 295.467773438 344.692382812 324.181640625 c 1,39,40
 278.297776934 348.23046875 278.297776934 348.23046875 243.918122271 350 c 1,41,42
 184.731383478 350 184.731383478 350 163.158203125 315.36328125 c 0,43,44
 142 277.749023438 142 277.749023438 142 214.329101562 c 128,-1,45
 142 150.909179688 142 150.909179688 161.01171875 116.993164062 c 0,46,47
 185.648522789 77 185.648522789 77 245.081877729 77 c 0,48,49
 304.742528657 77 304.742528657 77 326.452148438 119.873046875 c 0,35,36
EndSplineSet
EndChar

StartChar: dcroat
Encoding: 273 273 157
Width: 490
GlyphClass: 2
Flags: W
LayerCount: 2
UndoRedoHistory
Layer: 1
Undoes
UndoOperation
Index: 0
Type: 1
WasModified: 1
WasOrder2: 1
Layer: 2
Width: 448
VWidth: 1024
LBearingChange: 0
UnicodeEnc: 0
InstructionsLength: 0
SplineSet
448 504 m 1,0,-1
 388 504 l 1,1,-1
 388 64 l 1,2,-1
 390 0 l 1,3,-1
 329 0 l 1,4,-1
 324 36 l 1,5,6
 285 -8 285 -8 215 -8 c 0,7,8
 133 -8 133 -8 92 56 c 128,-1,9
 51 120 51 120 51 224 c 256,10,11
 51 328 51 328 92.5 392 c 128,-1,12
 134 456 134 456 216 456 c 0,13,14
 279 456 279 456 316 421 c 1,15,-1
 316 504 l 1,16,-1
 192 504 l 1,17,-1
 192 564 l 1,18,-1
 316 564 l 1,19,-1
 316 640 l 1,20,-1
 388 640 l 1,21,-1
 388 564 l 1,22,-1
 448 564 l 1,23,-1
 448 504 l 1,0,-1
316 99 m 1,25,-1
 316 350 l 1,26,27
 288 392 288 392 224 392 c 0,28,29
 189 392 189 392 168.5 376.5 c 128,-1,30
 148 361 148 361 138.5 325 c 128,-1,31
 129 289 129 289 129 224 c 0,32,33
 129 160 129 160 138.5 123.5 c 128,-1,34
 148 87 148 87 168.5 71.5 c 128,-1,35
 189 56 189 56 224 56 c 0,36,24
 287 56 287 56 316 99 c 1,25,-1
EndSplineSet
EndUndoOperation
EndUndoes
Redoes
EndRedoes
EndUndoRedoHistory
Fore
SplineSet
430 640 m 1,0,1
 430 591.5 430 591.5 430 564 c 1,2,-1
 479.5 564 l 1,3,-1
 490 564 l 1,4,5
 490 513 490 513 490 483 c 1,6,-1
 479.5 483 l 1,7,-1
 430 483 l 1,8,9
 430 258.174804688 430 258.174804688 430 54 c 1,10,11
 431.166992188 27.1201171875 431.166992188 27.1201171875 432.333007812 0 c 1,12,-1
 351.356445312 0 l 1,13,14
 350.644244006 15.0224609375 350.644244006 15.0224609375 349.932042699 9.044921875 c 1,15,16
 348.702581656 27.349609375 348.702581656 27.349609375 347.473120613 24.654296875 c 1,17,18
 303.413002751 -8.0078125 303.413002751 -8.0078125 234.511126086 -8.0078125 c 0,19,20
 233.472176123 -8.0078125 233.472176123 -8.0078125 232.427688048 -8 c 0,21,22
 137.756835938 -8 137.756835938 -8 93.65234375 57.8662109375 c 0,23,24
 51 121.5625 51 121.5625 51 224 c 128,-1,25
 51 326.467773438 51 326.467773438 94.8974609375 391.234375 c 128,-1,26
 138.794921875 456 138.794921875 456 232.915582908 456 c 0,27,28
 292.560466364 456 292.560466364 456 333.327682304 432.14453125 c 1,29,30
 333.327682304 447.072265625 333.327682304 447.072265625 333.327682304 483 c 1,31,-1
 194.209242917 483 l 1,32,33
 194.209242917 513 194.209242917 513 194.209242917 564 c 1,34,-1
 333.327682304 564 l 1,35,36
 333.327682304 591.5 333.327682304 591.5 333.327682304 640 c 1,37,-1
 430 640 l 1,0,1
333.327682304 338.540039062 m 1,38,39
 305.221541572 371 305.221541572 371 241.890966094 371 c 0,40,41
 206.573402982 371 206.573402982 371 186.719531069 358.51171875 c 0,42,43
 167.729492188 346.095703125 167.729492188 346.095703125 158.865234375 314.7421875 c 128,-1,44
 150 283.387695312 150 283.387695312 150 224.458007812 c 128,-1,45
 150 165.528320312 150 165.528320312 158.873046875 133.7109375 c 128,-1,46
 167.74609375 101.893554688 167.74609375 101.893554688 186.86009588 89.48828125 c 0,47,48
 206.931324312 77 206.931324312 77 242.635537572 77 c 0,49,50
 305.651507947 77 305.651507947 77 335.07328604 110.415039062 c 1,51,52
 333.327682304 224.446289062 333.327682304 224.446289062 333.327682304 338.540039062 c 1,38,39
EndSplineSet
EndChar

StartChar: e
Encoding: 101 101 158
Width: 490
GlyphClass: 2
Flags: W
LayerCount: 2
UndoRedoHistory
Layer: 1
Undoes
UndoOperation
Index: 0
Type: 1
WasModified: 1
WasOrder2: 1
Layer: 2
Width: 448
VWidth: 1024
LBearingChange: 0
UnicodeEnc: 0
InstructionsLength: 0
SplineSet
351.5 402 m 128,-1,1
 396 343 396 343 396 239 c 0,2,3
 396 214 396 214 395 201 c 1,4,-1
 126 201 l 1,5,6
 129 118 129 118 156 84.5 c 128,-1,7
 183 51 183 51 246 51 c 0,8,9
 294 51 294 51 361 74 c 1,10,-1
 375 16 l 1,11,12
 310 -13 310 -13 242 -13 c 0,13,14
 50 -13 50 -13 50 224 c 0,15,16
 50 331 50 331 91.5 396 c 128,-1,17
 133 461 133 461 224 461 c 0,18,0
 307 461 307 461 351.5 402 c 128,-1,1
154 366 m 128,-1,20
 131 335 131 335 127 263 c 1,21,-1
 321 263 l 1,22,23
 319 332 319 332 295 364.5 c 128,-1,24
 271 397 271 397 224 397 c 256,25,19
 177 397 177 397 154 366 c 128,-1,20
EndSplineSet
EndUndoOperation
EndUndoes
Redoes
EndRedoes
EndUndoRedoHistory
Fore
SplineSet
390.865234375 400.841796875 m 128,-1,1
 438 340.68359375 438 340.68359375 438 237.1875 c 0,2,3
 438 212.728515625 438 212.728515625 436.223632812 190.5 c 1,4,-1
 147.508789062 190.5 l 1,5,6
 151.701171875 125.362304688 151.701171875 125.362304688 175.49781683 98.681640625 c 0,7,8
 202.962850029 72 202.962850029 72 270.983833718 72 c 0,9,10
 323.7421875 72 323.7421875 72 389.09375 94.4345703125 c 2,11,12
 394.547851562 106.806640625 394.547851562 106.806640625 400.001953125 98.1787109375 c 1,13,14
 409.379882812 69.82421875 409.379882812 69.82421875 418.758789062 20.470703125 c 1,15,16
 414.764648438 29.1884765625 414.764648438 29.1884765625 410.76953125 16.90625 c 2,17,18
 343.739257812 -13 343.739257812 -13 266.290993072 -13 c 0,19,20
 140.126953125 -13 140.126953125 -13 89.6083984375 61.6416015625 c 0,21,22
 50 120.163085938 50 120.163085938 50 224.779296875 c 128,-1,23
 50 329.395507812 50 329.395507812 93.1435546875 394.103515625 c 0,24,25
 137.747070312 461 137.747070312 461 245.173210162 461 c 0,26,0
 343.73046875 461 343.73046875 461 390.865234375 400.841796875 c 128,-1,1
317.689453125 350.8359375 m 0,27,28
 294.099740185 376 294.099740185 376 245.173210162 376 c 128,-1,29
 196.229494443 376 196.229494443 376 173.27284209 352.077148438 c 0,30,31
 153.6484375 328.155273438 153.6484375 328.155273438 148.740234375 273.5 c 1,32,-1
 341.53515625 273.5 l 1,33,34
 338.17578125 325.671875 338.17578125 325.671875 317.689453125 350.8359375 c 0,27,28
EndSplineSet
EndChar

StartChar: eogonek
Encoding: 281 281 167
Width: 490
GlyphClass: 2
Flags: W
LayerCount: 2
UndoRedoHistory
Layer: 1
Undoes
UndoOperation
Index: 0
Type: 1
WasModified: 1
WasOrder2: 1
Layer: 2
Width: 448
VWidth: 1024
LBearingChange: 0
UnicodeEnc: 0
InstructionsLength: 0
SplineSet
351.5 402 m 128,-1,1
 396 343 396 343 396 239 c 0,2,3
 396 214 396 214 395 201 c 1,4,-1
 126 201 l 1,5,6
 129 118 129 118 156 84.5 c 128,-1,7
 183 51 183 51 246 51 c 0,8,9
 294 51 294 51 361 74 c 1,10,-1
 375 16 l 1,11,12
 354 6 354 6 331 0 c 1,13,14
 300 -34 300 -34 285 -59.5 c 128,-1,15
 270 -85 270 -85 270 -108 c 0,16,17
 270 -136 270 -136 298 -136 c 0,18,19
 313 -136 313 -136 331 -128 c 1,20,-1
 348 -181 l 1,21,22
 320 -197 320 -197 284 -197 c 0,23,24
 243 -197 243 -197 221.5 -176 c 128,-1,25
 200 -155 200 -155 200 -118 c 0,26,27
 200 -66 200 -66 249 -13 c 1,28,-1
 242 -13 l 2,29,30
 50 -13 50 -13 50 224 c 0,31,32
 50 331 50 331 91.5 396 c 128,-1,33
 133 461 133 461 224 461 c 0,34,0
 307 461 307 461 351.5 402 c 128,-1,1
154 366 m 128,-1,36
 131 335 131 335 127 263 c 1,37,-1
 321 263 l 1,38,39
 319 332 319 332 295 364.5 c 128,-1,40
 271 397 271 397 224 397 c 256,41,35
 177 397 177 397 154 366 c 128,-1,36
EndSplineSet
EndUndoOperation
EndUndoes
Redoes
EndRedoes
EndUndoRedoHistory
Fore
SplineSet
390.865234375 400.841796875 m 128,-1,1
 438 340.68359375 438 340.68359375 438 237.1875 c 0,2,3
 438 212.728515625 438 212.728515625 436.223632812 190.5 c 1,4,-1
 147.508789062 190.5 l 1,5,6
 151.701171875 125.362304688 151.701171875 125.362304688 175.49781683 98.681640625 c 0,7,8
 202.962850029 72 202.962850029 72 270.983833718 72 c 0,9,10
 323.7421875 72 323.7421875 72 389.09375 94.4345703125 c 2,11,12
 394.547851562 106.806640625 394.547851562 106.806640625 400.001953125 98.1787109375 c 1,13,14
 409.354492188 69.9306640625 409.354492188 69.9306640625 418.708007812 20.6826171875 c 1,15,16
 390.50390625 7.251953125 390.50390625 7.251953125 368.19140625 1.150390625 c 1,17,18
 339.4921875 -30.6220703125 339.4921875 -30.6220703125 325.74609375 -53.990234375 c 0,19,20
 311.459584296 -77.359375 311.459584296 -77.359375 311.459584296 -97.5 c 0,21,22
 311.459584296 -108.010742188 311.459584296 -108.010742188 316.368164062 -111.505859375 c 0,23,24
 320.736328125 -115 320.736328125 -115 331.501953125 -115 c 128,-1,25
 342.268554688 -115 342.268554688 -115 358.244140625 -107.899414062 c 2,26,27
 363.584960938 -95.025390625 363.584960938 -95.025390625 368.926757812 -103.151367188 c 1,28,29
 380.512695312 -128.7734375 380.512695312 -128.7734375 392.098632812 -175.39453125 c 1,30,31
 388.3984375 -167.008789062 388.3984375 -167.008789062 384.698242188 -179.623046875 c 2,32,33
 354.2890625 -197 354.2890625 -197 315.5 -197 c 0,34,35
 262.44941722 -197 262.44941722 -197 233.63473405 -173.010742188 c 128,-1,36
 204.697459584 -148.918945312 204.697459584 -148.918945312 204.697459584 -107.5 c 0,37,38
 204.697459584 -60.04296875 204.697459584 -60.04296875 248.207058314 -12.609375 c 1,39,40
 136.51171875 -7.642578125 136.51171875 -7.642578125 89.6083984375 61.6552734375 c 0,41,42
 50 120.174804688 50 120.174804688 50 224.788085938 c 128,-1,43
 50 329.400390625 50 329.400390625 93.1435546875 394.10546875 c 0,44,45
 137.747070312 461 137.747070312 461 245.173210162 461 c 0,46,0
 343.73046875 461 343.73046875 461 390.865234375 400.841796875 c 128,-1,1
317.689453125 350.8359375 m 0,47,48
 294.099740185 376 294.099740185 376 245.173210162 376 c 128,-1,49
 196.229494443 376 196.229494443 376 173.27284209 352.077148438 c 0,50,51
 153.6484375 328.155273438 153.6484375 328.155273438 148.740234375 273.5 c 1,52,-1
 341.53515625 273.5 l 1,53,54
 338.17578125 325.671875 338.17578125 325.671875 317.689453125 350.8359375 c 0,47,48
EndSplineSet
EndChar

StartChar: uni0259
Encoding: 601 601 168
Width: 490
GlyphClass: 2
Flags: W
LayerCount: 2
UndoRedoHistory
Layer: 1
Undoes
UndoOperation
Index: 0
Type: 1
WasModified: 1
WasOrder2: 1
Layer: 2
Width: 448
VWidth: 1024
LBearingChange: 0
UnicodeEnc: 0
InstructionsLength: 0
SplineSet
398 224 m 0,1,2
 398 117 398 117 356.5 52 c 128,-1,3
 315 -13 315 -13 224 -13 c 0,4,5
 141 -13 141 -13 96.5 46 c 128,-1,6
 52 105 52 105 52 209 c 0,7,8
 52 234 52 234 53 247 c 1,9,-1
 322 247 l 1,10,11
 319 330 319 330 292 363.5 c 128,-1,12
 265 397 265 397 202 397 c 0,13,14
 154 397 154 397 87 374 c 1,15,-1
 73 432 l 1,16,17
 138 461 138 461 206 461 c 0,18,0
 398 461 398 461 398 224 c 0,1,2
294 82 m 128,-1,20
 317 113 317 113 321 185 c 1,21,-1
 127 185 l 1,22,23
 129 116 129 116 153 83.5 c 128,-1,24
 177 51 177 51 224 51 c 256,25,19
 271 51 271 51 294 82 c 128,-1,20
EndSplineSet
EndUndoOperation
EndUndoes
Redoes
EndRedoes
EndUndoRedoHistory
Fore
SplineSet
223.709006928 461 m 0,0,1
 349.873046875 461 349.873046875 461 400.391601562 386.358398438 c 0,2,3
 440 327.836914062 440 327.836914062 440 223.220703125 c 128,-1,4
 440 118.604492188 440 118.604492188 396.856445312 53.896484375 c 0,5,6
 352.252929688 -13 352.252929688 -13 244.826789838 -13 c 0,7,8
 146.26953125 -13 146.26953125 -13 99.134765625 47.158203125 c 128,-1,9
 52 107.31640625 52 107.31640625 52 210.8125 c 0,10,11
 52 235.271484375 52 235.271484375 53.7763671875 257.5 c 1,12,-1
 342.491210938 257.5 l 1,13,14
 338.298828125 322.637695312 338.298828125 322.637695312 314.50218317 349.318359375 c 0,15,16
 287.037149971 376 287.037149971 376 219.016166282 376 c 0,17,18
 166.2578125 376 166.2578125 376 100.90625 353.565429688 c 2,19,20
 95.4521484375 341.193359375 95.4521484375 341.193359375 89.998046875 349.821289062 c 1,21,22
 80.6201171875 378.17578125 80.6201171875 378.17578125 71.2412109375 427.529296875 c 1,23,24
 75.2353515625 418.811523438 75.2353515625 418.811523438 79.23046875 431.09375 c 2,25,26
 146.260742188 461 146.260742188 461 223.709006928 461 c 0,0,1
172.310546875 97.1640625 m 0,27,28
 195.900259815 72 195.900259815 72 244.826789838 72 c 128,-1,29
 293.770505557 72 293.770505557 72 316.72715791 95.9228515625 c 0,30,31
 336.3515625 119.844726562 336.3515625 119.844726562 341.259765625 174.5 c 1,32,-1
 148.46484375 174.5 l 1,33,34
 151.82421875 122.328125 151.82421875 122.328125 172.310546875 97.1640625 c 0,27,28
EndSplineSet
EndChar

StartChar: f
Encoding: 102 102 169
Width: 490
GlyphClass: 2
Flags: W
LayerCount: 2
UndoRedoHistory
Layer: 1
Undoes
UndoOperation
Index: 0
Type: 1
WasModified: 1
WasOrder2: 1
Layer: 2
Width: 448
VWidth: 1024
LBearingChange: 0
UnicodeEnc: 0
InstructionsLength: 0
SplineSet
134 383 m 1,0,-1
 59 386 l 1,1,-1
 59 448 l 1,2,-1
 134 448 l 1,3,-1
 134 504 l 2,4,5
 134 577 134 577 171 612.5 c 128,-1,6
 208 648 208 648 270 648 c 0,7,8
 324 648 324 648 378 638 c 1,9,-1
 367 575 l 1,10,11
 308 584 308 584 274 584 c 0,12,13
 206 584 206 584 206 509 c 2,14,-1
 206 448 l 1,15,-1
 350 448 l 1,16,-1
 350 384 l 1,17,-1
 206 384 l 1,18,-1
 201 0 l 5,19,-1
 132 0 l 1,20,-1
 134 383 l 1,0,-1
EndSplineSet
EndUndoOperation
EndUndoes
Redoes
EndRedoes
EndUndoRedoHistory
Fore
SplineSet
221.864257812 -0 m 1,0,-1
 131.9453125 -0 l 1,1,2
 132.946289062 184.953125 132.946289062 184.953125 133.947265625 366.24609375 c 1,3,4
 96.4736328125 361.244140625 96.4736328125 361.244140625 59 369.109375 c 1,5,6
 59 400.291015625 59 400.291015625 59 448 c 1,7,-1
 134 448 l 1,8,9
 134 460.25 134 460.25 134 493.5 c 2,10,11
 134 570.974609375 134 570.974609375 174.233398438 609.576171875 c 0,12,13
 221.377235803 648 221.377235803 648 301.5 648 c 0,14,15
 356.47265625 648 356.47265625 648 411.420898438 637.82421875 c 2,16,17
 416.526367188 626.37890625 416.526367188 626.37890625 421.6328125 635.93359375 c 1,18,19
 414.354492188 583.750976562 414.354492188 583.750976562 407.077148438 552.569335938 c 1,20,21
 338.6953125 563 338.6953125 563 305.885742188 563 c 0,22,23
 267.451955384 563 267.451955384 563 250.825866097 544.196289062 c 0,24,25
 236.883093812 528.427734375 236.883093812 528.427734375 236.883093812 498.5 c 2,26,27
 236.883093812 462.75 236.883093812 462.75 236.883093812 448 c 1,28,-1
 392 448 l 1,29,30
 392 395 392 395 392 363 c 1,31,-1
 236.717618629 363 l 1,32,33
 225.303627247 181.5 225.303627247 181.5 221.864257812 -0 c 1,0,-1
EndSplineSet
EndChar

StartChar: g
Encoding: 103 103 170
Width: 490
GlyphClass: 2
Flags: W
LayerCount: 2
UndoRedoHistory
Layer: 1
Undoes
UndoOperation
Index: 0
Type: 1
WasModified: 1
WasOrder2: 1
Layer: 2
Width: 448
VWidth: 1024
LBearingChange: 0
UnicodeEnc: 0
InstructionsLength: 0
SplineSet
329 448 m 1,0,-1
 390 448 l 1,1,-1
 388 384 l 1,2,-1
 388 -36 l 2,3,4
 388 -120 388 -120 344 -158 c 128,-1,5
 300 -196 300 -196 223 -196 c 0,6,7
 162 -196 162 -196 102 -181 c 1,8,-1
 112 -123 l 1,9,10
 156 -132 156 -132 222 -132 c 0,11,12
 277 -132 277 -132 296.5 -112.5 c 128,-1,13
 316 -93 316 -93 316 -49 c 2,14,-1
 316 28 l 1,15,16
 278 -8 278 -8 215 -8 c 0,17,18
 133 -8 133 -8 92 56 c 128,-1,19
 51 120 51 120 51 224 c 256,20,21
 51 328 51 328 92.5 392 c 128,-1,22
 134 456 134 456 216 456 c 0,23,24
 286 456 286 456 324 413 c 1,25,-1
 329 448 l 1,0,-1
316 99 m 1,27,-1
 316 350 l 1,28,29
 288 392 288 392 224 392 c 0,30,31
 189 392 189 392 168.5 376.5 c 128,-1,32
 148 361 148 361 138.5 325 c 128,-1,33
 129 289 129 289 129 224 c 0,34,35
 129 160 129 160 138.5 123.5 c 128,-1,36
 148 87 148 87 168.5 71.5 c 128,-1,37
 189 56 189 56 224 56 c 0,38,26
 287 56 287 56 316 99 c 1,27,-1
EndSplineSet
EndUndoOperation
EndUndoes
Redoes
EndRedoes
EndUndoRedoHistory
Fore
SplineSet
351.392578125 448 m 1,0,-1
 432.333007812 448 l 1,1,2
 431.166992188 420.879882812 431.166992188 420.879882812 430 394 c 1,3,4
 430 194.575195312 430 194.575195312 430 -25.5 c 2,5,6
 430 -114.302734375 430 -114.302734375 382.702148438 -155.151367188 c 0,7,8
 333.257969325 -196 333.257969325 -196 241.499484866 -196 c 0,9,10
 171.19921875 -196 171.19921875 -196 109.94921875 -180.6875 c 2,11,12
 105.221679688 -169.005859375 105.221679688 -169.005859375 100.495117188 -178.32421875 c 1,13,14
 107.243164062 -128.682617188 107.243164062 -128.682617188 113.9921875 -100.041015625 c 1,15,16
 119.301757812 -90.626953125 119.301757812 -90.626953125 124.612304688 -102.212890625 c 2,17,18
 167.571289062 -111 167.571289062 -111 240.365310346 -111 c 0,19,20
 297.815015584 -111 297.815015584 -111 316.442502959 -94.5771484375 c 128,-1,21
 335.068882743 -78.1533203125 335.068882743 -78.1533203125 335.068882743 -38.5 c 2,22,23
 335.068882743 -0.3828125 335.068882743 -0.3828125 335.068882743 16.734375 c 1,24,25
 293.009172575 -8 293.009172575 -8 232.426088708 -8 c 0,26,27
 137.756835938 -8 137.756835938 -8 93.65234375 57.8662109375 c 0,28,29
 51 121.5625 51 121.5625 51 224 c 128,-1,30
 51 326.467773438 51 326.467773438 94.8974609375 391.234375 c 128,-1,31
 138.794921875 456 138.794921875 456 233.560263228 456 c 0,32,33
 303.325287298 456 303.325287298 456 347.541479683 424.236328125 c 1,34,35
 348.737679371 421.116210938 348.737679371 421.116210938 349.932771468 438.995117188 c 1,36,37
 350.662674796 432.998046875 350.662674796 432.998046875 351.392578125 448 c 1,0,-1
335.068882743 338.540039062 m 1,38,39
 306.655817357 371 306.655817357 371 242.633659385 371 c 0,40,41
 206.930421453 371 206.930421453 371 186.859741304 358.51171875 c 0,42,43
 167.729492188 346.095703125 167.729492188 346.095703125 158.865234375 314.7421875 c 128,-1,44
 150 283.387695312 150 283.387695312 150 224.458007812 c 128,-1,45
 150 165.528320312 150 165.528320312 158.873046875 133.7109375 c 128,-1,46
 167.74609375 101.893554688 167.74609375 101.893554688 186.859741304 89.48828125 c 0,47,48
 206.930421453 77 206.930421453 77 242.633659385 77 c 0,49,50
 305.64790836 77 305.64790836 77 335.068882743 110.415039062 c 1,51,52
 335.068882743 224.446289062 335.068882743 224.446289062 335.068882743 338.540039062 c 1,38,39
EndSplineSet
Substitution2: "'ss01' Style Set 1 in Latin lookup 19 subtable" g.ss01
Substitution2: "'salt' Stylistic Alternatives in Latin lookup 18 subtable" g.ss01
Substitution2: "'aalt' Access All Alternates in Latin lookup 0 subtable" g.ss01
EndChar

StartChar: h
Encoding: 104 104 175
Width: 490
GlyphClass: 2
Flags: W
LayerCount: 2
UndoRedoHistory
Layer: 1
Undoes
UndoOperation
Index: 0
Type: 1
WasModified: 1
WasOrder2: 1
Layer: 2
Width: 448
VWidth: 1024
LBearingChange: 0
UnicodeEnc: 0
InstructionsLength: 0
SplineSet
353 417 m 128,-1,1
 388 382 388 382 388 297 c 2,2,-1
 388 0 l 1,3,-1
 316 0 l 1,4,-1
 316 289 l 2,5,6
 316 342 316 342 301 365 c 128,-1,7
 286 388 286 388 247 388 c 0,8,9
 218 388 218 388 188 372 c 128,-1,10
 158 356 158 356 132 330 c 1,11,-1
 132 0 l 1,12,-1
 60 0 l 1,13,-1
 60 640 l 1,14,-1
 132 640 l 1,15,-1
 132 402 l 1,16,17
 160 425 160 425 193.5 438.5 c 128,-1,18
 227 452 227 452 261 452 c 0,19,0
 318 452 318 452 353 417 c 128,-1,1
EndSplineSet
EndUndoOperation
EndUndoes
Redoes
EndRedoes
EndUndoRedoHistory
Fore
SplineSet
153 640 m 1,0,1
 153 515.758789062 153 515.758789062 153 412.516601562 c 1,2,3
 217.967503834 452 217.967503834 452 286.991756135 452 c 0,4,5
 353.846679688 452 353.846679688 452 391.922851562 415.61328125 c 128,-1,6
 430 379.227539062 430 379.227539062 430 293.84765625 c 2,7,8
 430 150.434570312 430 150.434570312 430 0 c 1,9,-1
 337 0 l 1,10,11
 337 143.91015625 337 143.91015625 337 283.290039062 c 2,12,13
 337 330.469726562 337 330.469726562 321.984518788 349.76171875 c 0,14,15
 308.567484663 367 308.567484663 367 270.963190184 367 c 0,16,17
 241.191286426 367 241.191286426 367 210.398581288 353.23828125 c 128,-1,18
 179.604773773 339.477539062 179.604773773 339.477539062 153 317.912109375 c 1,19,20
 153 160.284179688 153 160.284179688 153 0 c 1,21,-1
 60 0 l 1,22,23
 60 320 60 320 60 640 c 1,24,-1
 153 640 l 1,0,1
EndSplineSet
EndChar

StartChar: hbar
Encoding: 295 295 176
Width: 490
GlyphClass: 2
Flags: W
LayerCount: 2
UndoRedoHistory
Layer: 1
Undoes
UndoOperation
Index: 0
Type: 1
WasModified: 1
WasOrder2: 1
Layer: 2
Width: 448
VWidth: 1024
LBearingChange: 0
UnicodeEnc: 0
InstructionsLength: 0
SplineSet
353 417 m 128,-1,1
 388 382 388 382 388 297 c 2,2,-1
 388 0 l 1,3,-1
 316 0 l 1,4,-1
 316 289 l 2,5,6
 316 342 316 342 301 365 c 128,-1,7
 286 388 286 388 247 388 c 0,8,9
 218 388 218 388 188 372 c 128,-1,10
 158 356 158 356 132 330 c 1,11,-1
 132 0 l 1,12,-1
 60 0 l 1,13,-1
 60 504 l 1,14,-1
 0 504 l 1,15,-1
 0 564 l 1,16,-1
 60 564 l 1,17,-1
 60 640 l 1,18,-1
 132 640 l 1,19,-1
 132 564 l 1,20,-1
 256 564 l 1,21,-1
 256 504 l 1,22,-1
 132 504 l 1,23,-1
 132 402 l 1,24,25
 160 425 160 425 193.5 438.5 c 128,-1,26
 227 452 227 452 261 452 c 0,27,0
 318 452 318 452 353 417 c 128,-1,1
EndSplineSet
EndUndoOperation
EndUndoes
Redoes
EndRedoes
EndUndoRedoHistory
Fore
SplineSet
153 483 m 1,0,1
 153 437.258789062 153 437.258789062 153 412.516601562 c 1,2,3
 217.967503834 452 217.967503834 452 286.991756135 452 c 0,4,5
 353.846679688 452 353.846679688 452 391.922851562 415.61328125 c 128,-1,6
 430 379.227539062 430 379.227539062 430 293.84765625 c 2,7,8
 430 150.434570312 430 150.434570312 430 0 c 1,9,-1
 337 0 l 1,10,11
 337 143.91015625 337 143.91015625 337 283.290039062 c 2,12,13
 337 330.469726562 337 330.469726562 321.984518788 349.76171875 c 0,14,15
 308.567484663 367 308.567484663 367 270.963190184 367 c 0,16,17
 241.191286426 367 241.191286426 367 210.398581288 353.23828125 c 128,-1,18
 179.604773773 339.477539062 179.604773773 339.477539062 153 317.912109375 c 1,19,20
 153 160.284179688 153 160.284179688 153 0 c 1,21,-1
 60 0 l 1,22,23
 60 241.5 60 241.5 60 483 c 1,24,-1
 10.5 483 l 1,25,-1
 0 483 l 1,26,27
 0 513 0 513 0 564 c 1,28,-1
 10.5 564 l 1,29,-1
 60 564 l 1,30,31
 60 591.5 60 591.5 60 640 c 1,32,-1
 153 640 l 1,33,34
 153 591.5 153 591.5 153 564 c 1,35,-1
 292.975460123 564 l 1,36,37
 292.975460123 513 292.975460123 513 292.975460123 483 c 1,38,-1
 153 483 l 1,0,1
EndSplineSet
EndChar

StartChar: dotlessi
Encoding: 305 305 179
Width: 469
GlyphClass: 2
Flags: W
LayerCount: 2
UndoRedoHistory
Layer: 1
Undoes
UndoOperation
Index: 0
Type: 1
WasModified: 1
WasOrder2: 1
Layer: 2
Width: 448
VWidth: 1024
LBearingChange: 0
UnicodeEnc: 0
InstructionsLength: 0
SplineSet
270 0 m 1,0,-1
 198 0 l 1,1,-1
 198 382 l 1,2,-1
 157 383 l 1,3,-1
 85 446 l 1,4,-1
 270 448 l 1,5,-1
 270 0 l 1,0,-1
EndSplineSet
EndUndoOperation
EndUndoes
Redoes
EndRedoes
EndUndoRedoHistory
Fore
SplineSet
308.1015625 448.114257812 m 1,0,1
 308.1015625 224.056640625 308.1015625 224.056640625 308.1015625 0 c 1,2,-1
 215.1015625 0 l 1,3,4
 215.1015625 184.340820312 215.1015625 184.340820312 215.1015625 365.052734375 c 1,5,6
 199.721679688 358.99609375 199.721679688 358.99609375 184.341796875 365.76953125 c 1,7,8
 182.446289062 359.380859375 182.446289062 359.380859375 180.55078125 365.857421875 c 1,9,10
 132.775390625 397.548828125 132.775390625 397.548828125 85 445.702148438 c 1,11,12
 196.55078125 436.408203125 196.55078125 436.408203125 308.1015625 448.114257812 c 1,0,1
EndSplineSet
EndChar

StartChar: ij
Encoding: 307 307 185
Width: 490
GlyphClass: 2
Flags: W
LayerCount: 2
UndoRedoHistory
Layer: 1
Undoes
UndoOperation
Index: 0
Type: 1
WasModified: 1
WasOrder2: 1
Layer: 2
Width: 448
VWidth: 1024
LBearingChange: 0
UnicodeEnc: 0
InstructionsLength: 0
SplineSet
84 547.5 m 128,-1,1
 67 563 67 563 67 591 c 0,2,3
 67 618 67 618 84 634 c 128,-1,4
 101 650 101 650 126 650 c 256,5,6
 151 650 151 650 168 634 c 128,-1,7
 185 618 185 618 185 591 c 0,8,9
 185 563 185 563 168 547.5 c 128,-1,10
 151 532 151 532 126 532 c 256,11,0
 101 532 101 532 84 547.5 c 128,-1,1
296 547.5 m 128,-1,13
 279 563 279 563 279 591 c 0,14,15
 279 618 279 618 296 634 c 128,-1,16
 313 650 313 650 338 650 c 256,17,18
 363 650 363 650 380 634 c 128,-1,19
 397 618 397 618 397 591 c 0,20,21
 397 563 397 563 380 547.5 c 128,-1,22
 363 532 363 532 338 532 c 256,23,12
 313 532 313 532 296 547.5 c 128,-1,13
166 0 m 1,24,-1
 94 0 l 1,25,-1
 94 382 l 1,26,-1
 34 386 l 1,27,-1
 34 448 l 1,28,-1
 166 448 l 1,29,-1
 166 0 l 1,24,-1
148 -194 m 1,31,-1
 154 -136 l 1,32,33
 196 -140 196 -140 223 -140 c 0,34,35
 269 -140 269 -140 287.5 -118 c 128,-1,36
 306 -96 306 -96 306 -49 c 2,37,-1
 306 382 l 1,38,-1
 246 386 l 1,39,-1
 246 448 l 1,40,-1
 378 448 l 1,41,-1
 378 -45 l 2,42,43
 378 -128 378 -128 339 -164 c 128,-1,44
 300 -200 300 -200 229 -200 c 0,45,30
 192 -200 192 -200 148 -194 c 1,31,-1
EndSplineSet
EndUndoOperation
EndUndoes
Redoes
EndRedoes
EndUndoRedoHistory
Fore
SplineSet
185.782226562 529.43359375 m 0,0,1
 165.565429688 511 165.565429688 511 136.5 511 c 128,-1,2
 107.434570312 511 107.434570312 511 87.2177734375 529.43359375 c 128,-1,3
 67 547.8671875 67 547.8671875 67 579.950195312 c 128,-1,4
 67 612.034179688 67 612.034179688 87.169921875 631.016601562 c 128,-1,5
 107.338867188 650 107.338867188 650 136.5 650 c 128,-1,6
 165.661132812 650 165.661132812 650 185.830078125 631.016601562 c 0,7,8
 212.762711864 612.034179688 212.762711864 612.034179688 212.762711864 579.950195312 c 128,-1,9
 212.762711864 547.8671875 212.762711864 547.8671875 185.782226562 529.43359375 c 0,0,1
418.782226562 529.43359375 m 128,-1,11
 398.565429688 511 398.565429688 511 369.5 511 c 128,-1,12
 340.434570312 511 340.434570312 511 320.217773438 529.43359375 c 128,-1,13
 300 547.8671875 300 547.8671875 300 579.950195312 c 128,-1,14
 300 612.034179688 300 612.034179688 320.169921875 631.016601562 c 128,-1,15
 340.338867188 650 340.338867188 650 369.5 650 c 128,-1,16
 398.661132812 650 398.661132812 650 418.830078125 631.016601562 c 128,-1,17
 439 612.034179688 439 612.034179688 439 579.950195312 c 128,-1,10
 439 547.8671875 439 547.8671875 418.782226562 529.43359375 c 128,-1,11
187 448 m 1,18,19
 187 224 187 224 187 0 c 1,20,-1
 94 0 l 1,21,22
 94 184.6171875 94 184.6171875 94 365.541992188 c 1,23,24
 64 361.028320312 64 361.028320312 34 369.362304688 c 1,25,26
 34 400.412109375 34 400.412109375 34 448 c 1,27,-1
 187 448 l 1,18,19
155.126953125 -114.059570312 m 1,28,29
 214.126588983 -119 214.126588983 -119 250.050847458 -119 c 0,30,31
 295.61328125 -119 295.61328125 -119 311.306640625 -100.336914062 c 128,-1,32
 327 -81.6748046875 327 -81.6748046875 327 -38.5 c 2,33,34
 327 165.0859375 327 165.0859375 327 365.248046875 c 1,35,36
 297 360.4453125 297 360.4453125 267 369.083007812 c 1,37,38
 267 400.108398438 267 400.108398438 267 448 c 1,39,-1
 420 448 l 1,40,41
 420 206.75 420 206.75 420 -34.5 c 2,42,43
 420 -122.094726562 420 -122.094726562 377.80078125 -161.046875 c 128,-1,44
 335.602539062 -200 335.602539062 -200 258.186440678 -200 c 0,45,46
 207.039724576 -200 207.039724576 -200 147.008789062 -192.53125 c 1,47,48
 151.068359375 -142.794921875 151.068359375 -142.794921875 155.126953125 -114.059570312 c 1,28,29
EndSplineSet
EndChar

StartChar: iogonek
Encoding: 303 303 187
Width: 469
GlyphClass: 2
Flags: W
LayerCount: 2
UndoRedoHistory
Layer: 1
Undoes
UndoOperation
Index: 0
Type: 1
WasModified: 1
WasOrder2: 1
Layer: 2
Width: 448
VWidth: 1024
LBearingChange: 0
UnicodeEnc: 0
InstructionsLength: 0
SplineSet
188 547.5 m 128,-1,1
 171 563 171 563 171 591 c 0,2,3
 171 618 171 618 188 634 c 128,-1,4
 205 650 205 650 230 650 c 256,5,6
 255 650 255 650 272 634 c 128,-1,7
 289 618 289 618 289 591 c 0,8,9
 289 563 289 563 272 547.5 c 128,-1,10
 255 532 255 532 230 532 c 256,11,0
 205 532 205 532 188 547.5 c 128,-1,1
270 -128 m 1,13,-1
 287 -181 l 1,14,15
 259 -197 259 -197 223 -197 c 0,16,17
 182 -197 182 -197 160.5 -176 c 128,-1,18
 139 -155 139 -155 139 -118 c 0,19,20
 139 -58 139 -58 201 0 c 1,21,-1
 198 0 l 1,22,-1
 198 382 l 1,23,-1
 74 390 l 1,24,-1
 74 448 l 1,25,-1
 270 448 l 1,26,-1
 270 0 l 1,27,28
 239 -34 239 -34 224 -59.5 c 128,-1,29
 209 -85 209 -85 209 -108 c 0,30,31
 209 -136 209 -136 237 -136 c 0,32,12
 252 -136 252 -136 270 -128 c 1,13,-1
EndSplineSet
EndUndoOperation
EndUndoes
Redoes
EndRedoes
EndUndoRedoHistory
Fore
SplineSet
289.782226562 529.43359375 m 128,-1,1
 269.565429688 511 269.565429688 511 240.5 511 c 128,-1,2
 211.434570312 511 211.434570312 511 191.217773438 529.43359375 c 128,-1,3
 171 547.8671875 171 547.8671875 171 579.950195312 c 128,-1,4
 171 612.034179688 171 612.034179688 191.169921875 631.016601562 c 128,-1,5
 211.338867188 650 211.338867188 650 240.5 650 c 128,-1,6
 269.661132812 650 269.661132812 650 289.830078125 631.016601562 c 128,-1,7
 310 612.034179688 310 612.034179688 310 579.950195312 c 128,-1,0
 310 547.8671875 310 547.8671875 289.782226562 529.43359375 c 128,-1,1
302.698242188 -179.623046875 m 2,8,9
 272.2890625 -197 272.2890625 -197 233.5 -197 c 0,10,11
 188.225585938 -197 188.225585938 -197 163.665039062 -173.010742188 c 128,-1,12
 139 -148.918945312 139 -148.918945312 139 -107.5 c 0,13,14
 139 -48.4052734375 139 -48.4052734375 198 7.73046875 c 1,15,16
 198 185.681640625 198 185.681640625 198 364.80078125 c 1,17,18
 136 361.427734375 136 361.427734375 74 372.508789062 c 1,19,20
 74 401.51171875 74 401.51171875 74 448 c 1,21,-1
 291 448 l 1,22,23
 291 227.217773438 291 227.217773438 291 6.4345703125 c 1,24,25
 258.000976562 -29.7578125 258.000976562 -29.7578125 244 -53.55859375 c 128,-1,26
 230 -77.359375 230 -77.359375 230 -97.5 c 0,27,28
 230 -108.010742188 230 -108.010742188 234.368164062 -111.505859375 c 128,-1,29
 238.736328125 -115 238.736328125 -115 249.501953125 -115 c 128,-1,30
 260.268554688 -115 260.268554688 -115 276.244140625 -107.899414062 c 2,31,32
 281.584960938 -95.025390625 281.584960938 -95.025390625 286.926757812 -103.151367188 c 1,33,34
 298.512695312 -128.7734375 298.512695312 -128.7734375 310.098632812 -175.39453125 c 1,35,36
 306.3984375 -167.008789062 306.3984375 -167.008789062 302.698242188 -179.623046875 c 2,8,9
EndSplineSet
EndChar

StartChar: uni0237
Encoding: 567 567 190
Width: 469
GlyphClass: 2
Flags: W
LayerCount: 2
UndoRedoHistory
Layer: 1
Undoes
UndoOperation
Index: 0
Type: 1
WasModified: 1
WasOrder2: 1
Layer: 2
Width: 448
VWidth: 1024
LBearingChange: 0
UnicodeEnc: 0
InstructionsLength: 0
SplineSet
260 -45 m 2,0,1
 260 -128 260 -128 221 -164 c 128,-1,2
 182 -200 182 -200 111 -200 c 0,3,4
 74 -200 74 -200 30 -194 c 1,5,-1
 36 -136 l 1,6,7
 78 -140 78 -140 105 -140 c 0,8,9
 151 -140 151 -140 169.5 -118 c 128,-1,10
 188 -96 188 -96 188 -49 c 2,11,-1
 188 382 l 1,12,-1
 119 447 l 1,13,-1
 260 448 l 1,14,-1
 260 -45 l 2,0,1
EndSplineSet
EndUndoOperation
EndUndoes
Redoes
EndRedoes
EndUndoRedoHistory
Fore
SplineSet
281.991210938 448.075195312 m 1,0,1
 281.991210938 206.787109375 281.991210938 206.787109375 281.991210938 -34.5 c 2,2,3
 281.991210938 -122.094726562 281.991210938 -122.094726562 239.791992188 -161.046875 c 128,-1,4
 197.59375 -200 197.59375 -200 122.491210938 -200 c 0,5,6
 84.7705078125 -200 84.7705078125 -200 30 -192.53125 c 1,7,8
 34.05859375 -142.794921875 34.05859375 -142.794921875 38.1181640625 -114.059570312 c 1,9,10
 89.99609375 -119 89.99609375 -119 116.491210938 -119 c 0,11,12
 157.603515625 -119 157.603515625 -119 173.297851562 -100.336914062 c 128,-1,13
 188.991210938 -81.6748046875 188.991210938 -81.6748046875 188.991210938 -38.5 c 2,14,15
 188.991210938 167.477539062 188.991210938 167.477539062 188.991210938 370.280273438 c 1,16,17
 146.611328125 400.0703125 146.611328125 400.0703125 104.232421875 446.814453125 c 1,18,19
 193.111328125 436.944335938 193.111328125 436.944335938 281.991210938 448.075195312 c 1,0,1
EndSplineSet
EndChar

StartChar: k
Encoding: 107 107 192
Width: 490
GlyphClass: 2
Flags: W
LayerCount: 2
UndoRedoHistory
Layer: 1
Undoes
UndoOperation
Index: 0
Type: 1
WasModified: 1
WasOrder2: 1
Layer: 2
Width: 448
VWidth: 1024
LBearingChange: 0
UnicodeEnc: 0
InstructionsLength: 0
SplineSet
225 239 m 1,0,-1
 420 0 l 1,1,-1
 324 0 l 1,2,-1
 161 208 l 1,3,-1
 132 208 l 1,4,-1
 132 0 l 1,5,-1
 60 0 l 1,6,-1
 60 640 l 1,7,-1
 132 640 l 1,8,-1
 132 272 l 1,9,-1
 166 272 l 1,10,-1
 313 448 l 1,11,-1
 408 448 l 1,12,-1
 225 239 l 1,0,-1
EndSplineSet
EndUndoOperation
EndUndoes
Redoes
EndRedoes
EndUndoRedoHistory
Fore
SplineSet
173.805223662 282.5 m 1,0,-1
 338.306153771 448 l 1,1,2
 401.119140625 437.5 401.119140625 437.5 462.647460938 448 c 1,3,4
 366.446289062 337.719726562 366.446289062 337.719726562 260.702385377 238.099609375 c 1,5,6
 371.930664062 123.749023438 371.930664062 123.749023438 473.616210938 0 c 1,7,8
 412.002929688 10.5 412.002929688 10.5 350.390625 -0 c 1,9,-1
 167.98483175 197.5 l 1,10,-1
 153 197.5 l 1,11,-1
 153 0 l 1,12,-1
 60 0 l 1,13,14
 60 320 60 320 60 640 c 1,15,-1
 153 640 l 1,16,-1
 153 282.5 l 1,17,-1
 173.805223662 282.5 l 1,0,-1
EndSplineSet
EndChar

StartChar: kgreenlandic
Encoding: 312 312 194
Width: 490
Flags: W
LayerCount: 2
UndoRedoHistory
Layer: 1
Undoes
UndoOperation
Index: 0
Type: 1
WasModified: 1
WasOrder2: 1
Layer: 2
Width: 448
VWidth: 1024
LBearingChange: 0
UnicodeEnc: 0
InstructionsLength: 0
SplineSet
225 239 m 1,0,-1
 420 0 l 1,1,-1
 324 0 l 1,2,-1
 161 208 l 1,3,-1
 132 208 l 1,4,-1
 132 0 l 1,5,-1
 60 0 l 1,6,-1
 60 448 l 1,7,-1
 132 448 l 1,8,-1
 132 272 l 1,9,-1
 166 272 l 1,10,-1
 313 448 l 1,11,-1
 408 448 l 1,12,-1
 225 239 l 1,0,-1
EndSplineSet
EndUndoOperation
EndUndoes
Redoes
EndRedoes
EndUndoRedoHistory
Fore
SplineSet
173.94956907 282.5 m 1,0,-1
 339.591796875 448 l 1,1,2
 401.119140625 437.5 401.119140625 437.5 462.647460938 448 c 1,3,4
 366.446289062 337.719726562 366.446289062 337.719726562 261.449618138 238.099609375 c 1,5,6
 371.930664062 123.749023438 371.930664062 123.749023438 473.616210938 0 c 1,7,8
 412.002929688 10.5 412.002929688 10.5 350.390625 -0 c 1,9,-1
 167.98483175 197.5 l 1,10,-1
 153 197.5 l 1,11,-1
 153 0 l 1,12,-1
 60 0 l 1,13,14
 60 224 60 224 60 448 c 1,15,-1
 153 448 l 1,16,-1
 153 282.5 l 1,17,-1
 173.94956907 282.5 l 1,0,-1
EndSplineSet
EndChar

StartChar: l
Encoding: 108 108 195
Width: 469
GlyphClass: 2
Flags: W
LayerCount: 2
UndoRedoHistory
Layer: 1
Undoes
UndoOperation
Index: 0
Type: 1
WasModified: 1
WasOrder2: 1
Layer: 2
Width: 448
VWidth: 1024
LBearingChange: 0
UnicodeEnc: 0
InstructionsLength: 0
SplineSet
132 640 m 1,0,-1
 224 640 l 1,1,-1
 224 119 l 2,2,3
 224 60 224 60 287 60 c 0,4,5
 311 60 311 60 341 63 c 1,6,-1
 346 0 l 1,7,8
 315 -4 315 -4 284 -4 c 0,9,10
 224 -4 224 -4 188 26 c 128,-1,11
 152 56 152 56 152 124 c 2,12,-1
 152 576 l 1,13,-1
 138 581 l 1,14,-1
 132 640 l 1,0,-1
EndSplineSet
EndUndoOperation
EndUndoes
Redoes
EndRedoes
EndUndoRedoHistory
Fore
SplineSet
132 640 m 1,0,-1
 246.123046875 640 l 1,1,2
 246.123046875 383.025390625 246.123046875 383.025390625 246.123046875 127.744140625 c 2,3,4
 246.123046875 101.21484375 246.123046875 101.21484375 261.353515625 90.2158203125 c 0,5,6
 274.1171875 81 274.1171875 81 298.104492188 81 c 128,-1,7
 322.091796875 81 322.091796875 81 362.2421875 85.0146484375 c 1,8,9
 365.561523438 53.689453125 365.561523438 53.689453125 368.880859375 1.3642578125 c 1,10,11
 327.3046875 -4 327.3046875 -4 295.623046875 -4 c 0,12,13
 231.82421875 -4 231.82421875 -4 192.473632812 27.611328125 c 128,-1,14
 153.123046875 59.22265625 153.123046875 59.22265625 153.123046875 129.51171875 c 2,15,16
 153.123046875 341.401367188 153.123046875 341.401367188 153.123046875 558.098632812 c 1,17,18
 149.608398438 548.853515625 149.608398438 548.853515625 146.094726562 560.608398438 c 1,19,20
 142.970703125 551.223632812 142.970703125 551.223632812 139.846679688 562.83984375 c 1,21,22
 135.923828125 590.919921875 135.923828125 590.919921875 132 640 c 1,0,-1
EndSplineSet
EndChar

StartChar: lslash
Encoding: 322 322 200
Width: 490
GlyphClass: 2
Flags: W
LayerCount: 2
UndoRedoHistory
Layer: 1
Undoes
UndoOperation
Index: 0
Type: 1
WasModified: 1
WasOrder2: 1
Layer: 2
Width: 448
VWidth: 1024
LBearingChange: 0
UnicodeEnc: 0
InstructionsLength: 0
SplineSet
341 63 m 1,1,-1
 346 0 l 1,2,3
 315 -4 315 -4 284 -4 c 0,4,5
 224 -4 224 -4 188 26 c 128,-1,6
 152 56 152 56 152 124 c 2,7,-1
 152 313 l 1,8,-1
 95 272 l 1,9,-1
 59 324 l 1,10,-1
 152 390 l 1,11,-1
 152 576 l 1,12,-1
 77 581 l 1,13,-1
 77 640 l 1,14,-1
 224 640 l 1,15,-1
 224 442 l 1,16,-1
 325 514 l 1,17,-1
 361 462 l 1,18,-1
 224 364 l 1,19,-1
 224 119 l 2,20,21
 224 60 224 60 287 60 c 0,22,0
 311 60 311 60 341 63 c 1,1,-1
EndSplineSet
EndUndoOperation
EndUndoes
Redoes
EndRedoes
EndUndoRedoHistory
Fore
SplineSet
392.797851562 1.3642578125 m 1,0,1
 351.221679688 -4 351.221679688 -4 319.5390625 -4 c 0,2,3
 247.754403676 -4 247.754403676 -4 198.715718669 27.6064453125 c 0,4,5
 156.0390625 59.212890625 156.0390625 59.212890625 156.0390625 129.491210938 c 2,6,7
 156.0390625 213.056640625 156.0390625 213.056640625 156.0390625 291.911132812 c 1,8,9
 135.849609375 277.83984375 135.849609375 277.83984375 115.661132812 263.91796875 c 1,10,11
 111.326171875 261.452148438 111.326171875 261.452148438 106.991210938 257.907226562 c 1,12,13
 82.99609375 290.754882812 82.99609375 290.754882812 59 324.721679688 c 1,14,15
 107.51953125 354.94140625 107.51953125 354.94140625 156.0390625 391.09765625 c 1,16,17
 156.0390625 466.243164062 156.0390625 466.243164062 156.0390625 555.676757812 c 1,18,19
 118.5390625 547.676757812 118.5390625 547.676757812 81.0390625 560.676757812 c 1,20,21
 81.0390625 589.837890625 81.0390625 589.837890625 81.0390625 640 c 1,22,-1
 265.573597766 640 l 1,23,24
 265.573597766 535.439453125 265.573597766 535.439453125 265.573597766 451.87890625 c 1,25,26
 316.576171875 474.553710938 316.576171875 474.553710938 363.112304688 518.228515625 c 1,27,28
 387.083984375 473.1015625 387.083984375 473.1015625 411.056640625 448.975585938 c 1,29,30
 340.547851562 393.905273438 340.547851562 393.905273438 265.573597766 353.548828125 c 1,31,32
 265.573597766 241.552734375 265.573597766 241.552734375 265.573597766 126.881835938 c 2,33,34
 265.573597766 100.841796875 265.573597766 100.841796875 284.555019036 90.0458984375 c 0,35,36
 298.034179688 81 298.034179688 81 322.021484375 81 c 128,-1,37
 346.008789062 81 346.008789062 81 386.159179688 85.0146484375 c 1,38,39
 389.478515625 53.689453125 389.478515625 53.689453125 392.797851562 1.3642578125 c 1,0,1
EndSplineSet
EndChar

StartChar: m
Encoding: 109 109 201
Width: 511
GlyphClass: 2
Flags: W
LayerCount: 2
UndoRedoHistory
Layer: 1
Undoes
UndoOperation
Index: 0
Type: 1
WasModified: 1
WasOrder2: 1
Layer: 2
Width: 448
VWidth: 1024
LBearingChange: 0
UnicodeEnc: 0
InstructionsLength: 0
SplineSet
381 421.5 m 128,-1,1
 408 393 408 393 408 335 c 2,2,-1
 408 0 l 1,3,-1
 344 0 l 1,4,-1
 344 331 l 2,5,6
 344 359 344 359 335 372.5 c 128,-1,7
 326 386 326 386 304 386 c 0,8,9
 291 386 291 386 278 382 c 128,-1,10
 265 378 265 378 256 371 c 1,11,-1
 256 0 l 1,12,-1
 192 0 l 1,13,-1
 192 332 l 2,14,15
 192 360 192 360 183 373.5 c 128,-1,16
 174 387 174 387 151 387 c 0,17,18
 140 387 140 387 126.5 382 c 128,-1,19
 113 377 113 377 104 370 c 1,20,-1
 104 0 l 1,21,-1
 40 0 l 1,22,-1
 40 383 l 1,23,-1
 59 394 l 1,24,-1
 93 448 l 1,25,-1
 98 420 l 1,26,27
 109 434 109 434 126.5 442.5 c 128,-1,28
 144 451 144 451 165 451 c 0,29,30
 208 451 208 451 230 416 c 1,31,32
 246 432 246 432 267 441 c 128,-1,33
 288 450 288 450 309 450 c 0,34,0
 354 450 354 450 381 421.5 c 128,-1,1
EndSplineSet
EndUndoOperation
EndUndoes
Redoes
EndRedoes
EndUndoRedoHistory
Fore
SplineSet
113.8359375 439.35546875 m 1,0,1
 114.58984375 424.637695312 114.58984375 424.637695312 115.342773438 430.920898438 c 1,2,3
 146.41639459 451 146.41639459 451 191.328358209 451 c 0,4,5
 238.323242188 451 238.323242188 451 263.119140625 421.146484375 c 1,6,7
 277.251953125 432.819335938 277.251953125 432.819335938 297.295898438 441.409179688 c 0,8,9
 323.40286847 450 323.40286847 450 353.820895522 450 c 0,10,11
 411.013671875 450 411.013671875 450 441.006835938 419.751953125 c 128,-1,12
 471 389.50390625 471 389.50390625 471 330.095703125 c 2,13,14
 471 167.720703125 471 167.720703125 471 0 c 1,15,-1
 386 0 l 1,16,17
 386 162.60546875 386 162.60546875 386 322.920898438 c 2,18,19
 386 346.392578125 386 346.392578125 376.486590485 356.666015625 c 0,20,21
 368.770172575 365 368.770172575 365 343.977845149 365 c 128,-1,22
 319.186800373 365 319.186800373 365 298 355.56640625 c 1,23,24
 298 178.040039062 298 178.040039062 298 0 c 1,25,-1
 213 0 l 1,26,27
 213 163.099609375 213 163.099609375 213 323.915039062 c 2,28,29
 213 347.389648438 213 347.389648438 203.486590485 357.6640625 c 0,30,31
 195.770172575 366 195.770172575 366 172.940298507 366 c 0,32,33
 160.971898321 366 160.971898321 366 147.346315299 362.366210938 c 128,-1,34
 133.720732276 358.732421875 133.720732276 358.732421875 125 354.71484375 c 1,35,36
 125 177.6640625 125 177.6640625 125 0 c 1,37,-1
 40 0 l 1,38,39
 40 192.967773438 40 192.967773438 40 382.326171875 c 1,40,41
 42.625 377.28125 42.625 377.28125 45.25 385.235351562 c 1,42,43
 53.623046875 383.111328125 53.623046875 383.111328125 61.99609375 394.512695312 c 1,44,45
 85.533203125 421.776367188 85.533203125 421.776367188 109.069335938 466.05078125 c 1,46,47
 111.453125 442.203125 111.453125 442.203125 113.8359375 439.35546875 c 1,0,1
EndSplineSet
EndChar

StartChar: n
Encoding: 110 110 202
Width: 490
GlyphClass: 2
Flags: W
LayerCount: 2
UndoRedoHistory
Layer: 1
Undoes
UndoOperation
Index: 0
Type: 1
WasModified: 1
WasOrder2: 1
Layer: 2
Width: 448
VWidth: 1024
LBearingChange: 0
UnicodeEnc: 0
InstructionsLength: 0
SplineSet
353 417 m 0,0,1
 388 382 388 382 388 297 c 2,2,-1
 388 0 l 1,3,-1
 316 0 l 1,4,-1
 316 289 l 2,5,6
 316 342 316 342 301 365 c 128,-1,7
 286 388 286 388 247 388 c 0,8,9
 218 388 218 388 188 372 c 128,-1,10
 158 356 158 356 132 330 c 1,11,-1
 132 0 l 1,12,-1
 60 0 l 1,13,-1
 64 358 l 1,14,-1
 71 371 l 1,15,-1
 83 385 l 1,16,17
 111 409 111 409 162 434.5 c 128,-1,18
 213 460 213 460 261 452 c 0,19,20
 329.52128945 440.47871055 329.52128945 440.47871055 353 417 c 0,0,1
EndSplineSet
EndUndoOperation
EndUndoes
Redoes
EndRedoes
EndUndoRedoHistory
Fore
SplineSet
392.041015625 415.607421875 m 0,0,1
 430.118164062 379.221679688 430.118164062 379.221679688 430.118164062 293.84375 c 2,2,3
 430.118164062 150.430664062 430.118164062 150.430664062 430.118164062 0 c 1,4,-1
 337.118164062 0 l 1,5,6
 337.118164062 143.91015625 337.118164062 143.91015625 337.118164062 283.290039062 c 2,7,8
 337.118164062 330.469726562 337.118164062 330.469726562 322.102682851 349.76171875 c 0,9,10
 308.685648725 367 308.685648725 367 271.081354247 367 c 0,11,12
 241.309450489 367 241.309450489 367 210.515642974 353.23828125 c 128,-1,13
 179.722937836 339.477539062 179.722937836 339.477539062 153.118164062 317.912109375 c 1,14,15
 153.118164062 160.284179688 153.118164062 160.284179688 153.118164062 0 c 1,16,-1
 60 0 l 1,17,18
 62.07421875 179.5859375 62.07421875 179.5859375 64.1474609375 354.7890625 c 1,19,20
 64.7568359375 350.170898438 64.7568359375 350.170898438 65.3662109375 356.953125 c 1,21,22
 68.8662109375 357.142578125 68.8662109375 357.142578125 72.3662109375 369.377929688 c 1,23,24
 72.634765625 363.536132812 72.634765625 363.536132812 72.9033203125 370.331054688 c 1,25,26
 73.2734375 364.385742188 73.2734375 364.385742188 73.6435546875 371.15625 c 1,27,28
 79.6435546875 371.174804688 79.6435546875 371.174804688 85.6435546875 384.537109375 c 1,29,30
 85.908203125 377.8515625 85.908203125 377.8515625 86.1728515625 385.127929688 c 1,31,32
 115.775390625 409.379882812 115.775390625 409.379882812 169.841227713 434.3046875 c 0,33,34
 216.152098112 453.91015625 216.152098112 453.91015625 260.812709691 453.91015625 c 0,35,36
 274.935265289 453.91015625 274.935265289 453.91015625 288.861597728 451.854492188 c 0,37,38
 366.185546875 440.315429688 366.185546875 440.315429688 392.041015625 415.607421875 c 0,0,1
EndSplineSet
EndChar

StartChar: eng
Encoding: 331 331 207
Width: 490
Flags: W
LayerCount: 2
UndoRedoHistory
Layer: 1
Undoes
UndoOperation
Index: 0
Type: 1
WasModified: 1
WasOrder2: 1
Layer: 2
Width: 448
VWidth: 1024
LBearingChange: 0
UnicodeEnc: 0
InstructionsLength: 0
SplineSet
353 417 m 128,-1,1
 388 382 388 382 388 297 c 2,2,-1
 388 -5 l 2,3,4
 388 -77 388 -77 361 -122.5 c 128,-1,5
 334 -168 334 -168 268 -196 c 1,6,-1
 239 -136 l 1,7,8
 284 -117 284 -117 300 -91.5 c 128,-1,9
 316 -66 316 -66 316 -13 c 2,10,-1
 316 289 l 2,11,12
 316 342 316 342 301 365 c 128,-1,13
 286 388 286 388 247 388 c 0,14,15
 218 388 218 388 188 372 c 128,-1,16
 158 356 158 356 132 330 c 1,17,-1
 132 0 l 1,18,-1
 60 0 l 1,19,-1
 60 383 l 1,20,-1
 58 448 l 1,21,-1
 124 448 l 1,22,-1
 130 400 l 1,23,24
 158 424 158 424 192 438 c 128,-1,25
 226 452 226 452 261 452 c 0,26,0
 318 452 318 452 353 417 c 128,-1,1
EndSplineSet
EndUndoOperation
EndUndoes
Redoes
EndRedoes
EndUndoRedoHistory
Fore
SplineSet
392.250976562 415.633789062 m 128,-1,1
 430.328125 379.267578125 430.328125 379.267578125 430.328125 293.934570312 c 2,2,3
 430.328125 153.267578125 430.328125 153.267578125 430.328125 5.5 c 2,4,5
 430.328125 -69.380859375 430.328125 -69.380859375 401.713867188 -117.6015625 c 128,-1,6
 373.098632812 -165.823242188 373.098632812 -165.823242188 303.365600586 -195.170898438 c 2,7,8
 298.041522393 -186.622070312 298.041522393 -186.622070312 292.7174442 -199.072265625 c 1,9,10
 270.628568503 -149.09765625 270.628568503 -149.09765625 248.538562188 -120.123046875 c 1,11,12
 254.434732877 -107.47265625 254.434732877 -107.47265625 260.330903567 -115.822265625 c 2,13,14
 308.6953125 -98.1123046875 308.6953125 -98.1123046875 323.01171875 -75.2958984375 c 128,-1,15
 337.328125 -52.4794921875 337.328125 -52.4794921875 337.328125 -2.5 c 2,16,17
 337.328125 142.630859375 337.328125 142.630859375 337.328125 283.259765625 c 2,18,19
 337.328125 330.45703125 337.328125 330.45703125 324.026367188 349.754882812 c 0,20,21
 312.140625 367 312.140625 367 274.605981382 367 c 0,22,23
 244.341150301 367 244.341150301 367 213.038616641 353.23828125 c 128,-1,24
 181.734962351 339.477539062 181.734962351 339.477539062 154.689698778 317.912109375 c 1,25,26
 153.328125 160.284179688 153.328125 160.284179688 153.328125 0 c 1,27,-1
 60.328125 0 l 1,28,29
 60.328125 207.850585938 60.328125 207.850585938 60.328125 394 c 1,30,31
 59.1640625 421.237304688 59.1640625 421.237304688 58 448 c 1,32,-1
 144.098632812 448 l 1,33,34
 144.757562745 432.90625 144.757562745 432.90625 145.416492677 438.813476562 c 1,35,36
 147.533361115 413.555664062 147.533361115 413.555664062 149.650229553 409.296875 c 1,37,38
 176.270774683 426.21875 176.270774683 426.21875 206.912137153 437.213867188 c 0,39,40
 248.119911748 452 248.119911748 452 290.671320678 452 c 0,41,0
 354.174804688 452 354.174804688 452 392.250976562 415.633789062 c 128,-1,1
EndSplineSet
EndChar

StartChar: o
Encoding: 111 111 209
Width: 490
GlyphClass: 2
Flags: W
LayerCount: 2
UndoRedoHistory
Layer: 1
Undoes
UndoOperation
Index: 0
Type: 1
WasModified: 1
WasOrder2: 1
Layer: 2
Width: 448
VWidth: 1024
LBearingChange: 0
UnicodeEnc: 0
InstructionsLength: 0
SplineSet
91.5 52 m 128,-1,1
 50 117 50 117 50 224 c 256,2,3
 50 331 50 331 91.5 396 c 128,-1,4
 133 461 133 461 224 461 c 256,5,6
 315 461 315 461 356.5 396 c 128,-1,7
 398 331 398 331 398 224 c 0,8,9
 398 118 398 118 355.5 52.5 c 128,-1,10
 313 -13 313 -13 224 -13 c 0,11,0
 133 -13 133 -13 91.5 52 c 128,-1,1
299.5 90 m 128,-1,13
 322 129 322 129 322 224 c 0,14,15
 322 318 322 318 299 357.5 c 128,-1,16
 276 397 276 397 224 397 c 256,17,18
 172 397 172 397 149 357.5 c 128,-1,19
 126 318 126 318 126 224 c 0,20,21
 126 129 126 129 148.5 90 c 128,-1,22
 171 51 171 51 224 51 c 256,23,12
 277 51 277 51 299.5 90 c 128,-1,13
EndSplineSet
EndUndoOperation
EndUndoes
Redoes
EndRedoes
EndUndoRedoHistory
Fore
SplineSet
93.1435546875 53.896484375 m 0,0,1
 50 118.604492188 50 118.604492188 50 224 c 128,-1,2
 50 329.395507812 50 329.395507812 93.1435546875 394.103515625 c 0,3,4
 137.747070312 461 137.747070312 461 245 461 c 128,-1,5
 352.252929688 461 352.252929688 461 396.856445312 394.103515625 c 0,6,7
 440 329.395507812 440 329.395507812 440 224.458984375 c 128,-1,8
 440 119.521484375 440 119.521484375 395.814453125 54.3134765625 c 0,9,10
 350.203125 -13 350.203125 -13 243.799883611 -13 c 0,11,12
 137.747070312 -13 137.747070312 -13 93.1435546875 53.896484375 c 0,0,1
245 72 m 128,-1,14
 299.933327501 72 299.933327501 72 321.8984375 103.555664062 c 0,15,16
 343 137.768554688 343 137.768554688 343 223.521484375 c 128,-1,17
 343 309.274414062 343 309.274414062 321.419921875 343.942382812 c 0,18,19
 298.796074352 376 298.796074352 376 245 376 c 128,-1,20
 191.203925648 376 191.203925648 376 168.580078125 343.942382812 c 0,21,22
 147 309.274414062 147 309.274414062 147 223.521484375 c 128,-1,23
 147 137.768554688 147 137.768554688 168.1015625 103.555664062 c 0,24,13
 190.066672499 72 190.066672499 72 245 72 c 128,-1,14
EndSplineSet
EndChar

StartChar: oslash
Encoding: 248 248 217
Width: 490
GlyphClass: 2
Flags: W
LayerCount: 2
UndoRedoHistory
Layer: 1
Undoes
UndoOperation
Index: 0
Type: 1
WasModified: 1
WasOrder2: 1
Layer: 2
Width: 448
VWidth: 1024
LBearingChange: 0
UnicodeEnc: 0
InstructionsLength: 0
SplineSet
421 418 m 1,0,-1
 375 361 l 1,1,2
 398 305 398 305 398 224 c 0,3,4
 398 118 398 118 355.5 52.5 c 128,-1,5
 313 -13 313 -13 224 -13 c 0,6,7
 154 -13 154 -13 110 29 c 1,8,-1
 79 -10 l 1,9,-1
 28 32 l 1,10,-1
 73 88 l 1,11,12
 50 143 50 143 50 224 c 0,13,14
 50 331 50 331 91.5 396 c 128,-1,15
 133 461 133 461 224 461 c 0,16,17
 294 461 294 461 338 419 c 1,18,-1
 369 458 l 1,19,-1
 421 418 l 1,0,-1
129 159 m 1,21,-1
 295 365 l 1,22,23
 272 397 272 397 224 397 c 0,24,25
 172 397 172 397 149 357.5 c 128,-1,26
 126 318 126 318 126 224 c 0,27,20
 126 186 126 186 129 159 c 1,21,-1
319 290 m 1,29,-1
 153 83 l 1,30,31
 175 51 175 51 224 51 c 0,32,33
 277 51 277 51 299.5 90 c 128,-1,34
 322 129 322 129 322 224 c 0,35,28
 322 262 322 262 319 290 c 1,29,-1
EndSplineSet
EndUndoOperation
EndUndoes
Redoes
EndRedoes
EndUndoRedoHistory
Fore
SplineSet
422.69921875 353.477539062 m 1,0,1
 444.180664062 299.655273438 444.180664062 299.655273438 444.180664062 224.0234375 c 0,2,3
 444.180664062 119.53515625 444.180664062 119.53515625 399.99609375 54.3203125 c 0,4,5
 354.383789062 -13 354.383789062 -13 249.107140076 -13 c 0,6,7
 173.572828918 -13 173.572828918 -13 126.002929688 24.2919921875 c 1,8,9
 113.954101562 19.6328125 113.954101562 19.6328125 101.905273438 -6.0263671875 c 1,10,11
 98.5791015625 0.2900390625 98.5791015625 0.2900390625 95.2529296875 -14.39453125 c 1,12,13
 61.6259765625 21.060546875 61.6259765625 21.060546875 28 38.6474609375 c 1,14,15
 51.8212890625 73.6484375 51.8212890625 73.6484375 75.642578125 95.427734375 c 1,16,17
 54.1806640625 148.377929688 54.1806640625 148.377929688 54.1806640625 223.970703125 c 0,18,19
 54.1806640625 329.379882812 54.1806640625 329.379882812 97.32421875 394.094726562 c 0,20,21
 141.927734375 461 141.927734375 461 249.107140076 461 c 0,22,23
 324.642543764 461 324.642543764 461 372.359375 423.708007812 c 1,24,25
 384.408203125 428.3671875 384.408203125 428.3671875 396.45703125 454.026367188 c 1,26,27
 399.674804688 447.573242188 399.674804688 447.573242188 402.892578125 462.12109375 c 1,28,29
 437.24609375 427.830078125 437.24609375 427.830078125 471.599609375 411.506835938 c 1,30,31
 447.149414062 375.807617188 447.149414062 375.807617188 422.69921875 353.477539062 c 1,0,1
313.451749411 354.49609375 m 1,32,33
 291.451454001 376 291.451454001 376 249.107140076 376 c 0,34,35
 197.686079154 376 197.686079154 376 175.360209526 341.727539062 c 0,36,37
 151.216368424 304.666015625 151.216368424 304.666015625 151.216368424 213.5 c 0,38,39
 151.216368424 192.943359375 151.216368424 192.943359375 152.213849166 175.64453125 c 1,40,41
 232.832799288 254.5703125 232.832799288 254.5703125 313.451749411 354.49609375 c 1,32,33
184.640167276 93.3974609375 m 1,42,43
 205.881153687 72 205.881153687 72 249.107140076 72 c 0,44,45
 301.616361807 72 301.616361807 72 323.390503314 105.735351562 c 0,46,47
 346.997911727 142.311523438 346.997911727 142.311523438 346.997911727 234.5 c 0,48,49
 346.997911727 255.392578125 346.997911727 255.392578125 345.969840119 273.219726562 c 1,50,51
 265.305003697 193.80859375 265.305003697 193.80859375 184.640167276 93.3974609375 c 1,42,43
EndSplineSet
EndChar

StartChar: oe
Encoding: 339 339 220
Width: 469
Flags: W
LayerCount: 2
UndoRedoHistory
Layer: 1
Undoes
UndoOperation
Index: 0
Type: 1
WasModified: 1
WasOrder2: 1
Layer: 2
Width: 448
VWidth: 1024
LBearingChange: 0
UnicodeEnc: 0
InstructionsLength: 0
SplineSet
320 384 m 1,0,-1
 384 384 l 1,1,-1
 384 192 l 1,2,-1
 256 192 l 1,3,-1
 256 64 l 1,4,-1
 384 64 l 1,5,-1
 384 0 l 1,6,-1
 128 0 l 1,7,-1
 128 64 l 1,8,-1
 192 64 l 1,9,-1
 192 384 l 1,10,-1
 128 384 l 1,11,-1
 128 448 l 1,12,-1
 320 448 l 1,13,-1
 320 384 l 1,14,-1
 256 384 l 1,15,-1
 256 256 l 1,16,-1
 320 256 l 1,17,-1
 320 384 l 1,0,-1
128 64 m 1,18,-1
 64 64 l 1,19,-1
 64 384 l 1,20,-1
 128 384 l 1,21,-1
 128 64 l 1,18,-1
EndSplineSet
EndUndoOperation
EndUndoes
Redoes
EndRedoes
EndUndoRedoHistory
Fore
SplineSet
277 266.5 m 1,0,-1
 320 266.5 l 1,1,-1
 320 363 l 1,2,-1
 277 363 l 1,3,-1
 277 266.5 l 1,0,-1
149 363 m 1,4,5
 149 224 149 224 149 85 c 1,6,-1
 192 85 l 1,7,8
 192 224 192 224 192 363 c 1,9,-1
 149 363 l 1,4,5
128 0 m 1,10,11
 128 42.5 128 42.5 128 64 c 1,12,-1
 64 64 l 1,13,14
 64 224 64 224 64 384 c 1,15,-1
 128 384 l 1,16,17
 128 405.5 128 405.5 128 448 c 1,18,-1
 341 448 l 1,19,20
 341 405.5 341 405.5 341 384 c 1,21,-1
 405 384 l 1,22,-1
 405 181.5 l 1,23,-1
 277 181.5 l 1,24,-1
 277 85 l 1,25,-1
 405 85 l 1,26,27
 405 53 405 53 405 0 c 1,28,-1
 128 0 l 1,10,11
EndSplineSet
EndChar

StartChar: p
Encoding: 112 112 221
Width: 490
GlyphClass: 2
Flags: W
LayerCount: 2
UndoRedoHistory
Layer: 1
Undoes
UndoOperation
Index: 0
Type: 1
WasModified: 1
WasOrder2: 1
Layer: 2
Width: 448
VWidth: 1024
LBearingChange: 0
UnicodeEnc: 0
InstructionsLength: 0
SplineSet
355.5 392 m 128,-1,1
 397 328 397 328 397 224 c 256,2,3
 397 120 397 120 356 56 c 128,-1,4
 315 -8 315 -8 233 -8 c 0,5,6
 170 -8 170 -8 132 28 c 1,7,-1
 132 -192 l 1,8,-1
 60 -192 l 1,9,-1
 62 361 l 1,10,-1
 62 333 l 1,11,-1
 78 373 l 1,12,-1
 92 401 l 1,13,14
 141 456 141 456 232 456 c 0,15,0
 314 456 314 456 355.5 392 c 128,-1,1
279.5 71.5 m 128,-1,17
 300 87 300 87 309.5 123.5 c 128,-1,18
 319 160 319 160 319 224 c 0,19,20
 319 289 319 289 309.5 325 c 128,-1,21
 300 361 300 361 279.5 376.5 c 128,-1,22
 259 392 259 392 224 392 c 0,23,24
 160 392 160 392 132 350 c 1,25,-1
 132 99 l 1,26,27
 161 56 161 56 224 56 c 0,28,16
 259 56 259 56 279.5 71.5 c 128,-1,17
EndSplineSet
EndUndoOperation
EndUndoes
Redoes
EndRedoes
EndUndoRedoHistory
Fore
SplineSet
395.140625 391.234375 m 128,-1,1
 439.038085938 326.467773438 439.038085938 326.467773438 439.038085938 224 c 128,-1,2
 439.038085938 121.5625 439.038085938 121.5625 396.385742188 57.8662109375 c 0,3,4
 352.28125 -8 352.28125 -8 254.883307884 -8 c 0,5,6
 191.476595332 -8 191.476595332 -8 153.038085938 16.734375 c 1,7,8
 153.038085938 -77.1328125 153.038085938 -77.1328125 153.038085938 -192 c 1,9,-1
 60 -192 l 1,10,11
 61.01953125 82.5283203125 61.01953125 82.5283203125 62.0380859375 353.849609375 c 1,12,13
 67.236328125 346.875976562 67.236328125 346.875976562 72.435546875 353.831054688 c 1,14,15
 75.6103515625 354.313476562 75.6103515625 354.313476562 78.78515625 369.206054688 c 1,16,17
 78.962890625 362.131835938 78.962890625 362.131835938 79.140625 369.973632812 c 1,18,19
 86.140625 375.638671875 86.140625 375.638671875 93.140625 397.094726562 c 1,20,21
 93.4521484375 389.358398438 93.4521484375 389.358398438 93.7646484375 398.303710938 c 1,22,23
 146.833007812 456 146.833007812 456 253.696272277 456 c 0,24,0
 351.243164062 456 351.243164062 456 395.140625 391.234375 c 128,-1,1
244.199987417 77 m 0,25,26
 281.567265547 77 281.567265547 77 302.573390782 89.48828125 c 0,27,28
 322.291992188 101.893554688 322.291992188 101.893554688 331.165039062 133.7109375 c 128,-1,29
 340.038085938 165.528320312 340.038085938 165.528320312 340.038085938 224.458007812 c 128,-1,30
 340.038085938 283.387695312 340.038085938 283.387695312 331.172851562 314.7421875 c 128,-1,31
 322.30859375 346.095703125 322.30859375 346.095703125 302.573390782 358.51171875 c 0,32,33
 281.567265547 371 281.567265547 371 244.199987417 371 c 0,34,35
 178.08984375 371 178.08984375 371 153.038085938 338.540039062 c 1,36,37
 153.038085938 224.446289062 153.038085938 224.446289062 153.038085938 110.415039062 c 1,38,39
 178.978515625 77 178.978515625 77 244.199987417 77 c 0,25,26
EndSplineSet
EndChar

StartChar: thorn
Encoding: 254 254 222
Width: 490
Flags: W
LayerCount: 2
UndoRedoHistory
Layer: 1
Undoes
UndoOperation
Index: 0
Type: 1
WasModified: 1
WasOrder2: 1
Layer: 2
Width: 448
VWidth: 1024
LBearingChange: 0
UnicodeEnc: 0
InstructionsLength: 0
SplineSet
355.5 392 m 128,-1,1
 397 328 397 328 397 224 c 256,2,3
 397 120 397 120 356 56 c 128,-1,4
 315 -8 315 -8 233 -8 c 0,5,6
 170 -8 170 -8 132 28 c 1,7,-1
 132 -192 l 1,8,-1
 60 -192 l 1,9,-1
 60 640 l 1,10,-1
 132 640 l 1,11,-1
 132 421 l 1,12,13
 169 456 169 456 232 456 c 0,14,0
 314 456 314 456 355.5 392 c 128,-1,1
279.5 71.5 m 128,-1,16
 300 87 300 87 309.5 123.5 c 128,-1,17
 319 160 319 160 319 224 c 0,18,19
 319 289 319 289 309.5 325 c 128,-1,20
 300 361 300 361 279.5 376.5 c 128,-1,21
 259 392 259 392 224 392 c 0,22,23
 160 392 160 392 132 350 c 1,24,-1
 132 99 l 1,25,26
 161 56 161 56 224 56 c 0,27,15
 259 56 259 56 279.5 71.5 c 128,-1,16
EndSplineSet
EndUndoOperation
EndUndoes
Redoes
EndRedoes
EndUndoRedoHistory
Fore
SplineSet
395.102539062 391.234375 m 128,-1,1
 439 326.467773438 439 326.467773438 439 224 c 128,-1,2
 439 121.5625 439 121.5625 396.34765625 57.8662109375 c 0,3,4
 352.243164062 -8 352.243164062 -8 254.84194583 -8 c 0,5,6
 191.431843176 -8 191.431843176 -8 153 16.734375 c 1,7,8
 153 -77.1328125 153 -77.1328125 153 -192 c 1,9,-1
 60 -192 l 1,10,11
 60 224 60 224 60 640 c 1,12,-1
 153 640 l 1,13,14
 153 525.572265625 153 525.572265625 153 432.14453125 c 1,15,16
 190.544996701 456 190.544996701 456 253.654846757 456 c 0,17,0
 351.205078125 456 351.205078125 456 395.102539062 391.234375 c 128,-1,1
244.15805417 77 m 0,18,19
 281.527330177 77 281.527330177 77 302.534578526 89.48828125 c 0,20,21
 322.25390625 101.893554688 322.25390625 101.893554688 331.126953125 133.7109375 c 128,-1,22
 340 165.528320312 340 165.528320312 340 224.458007812 c 128,-1,23
 340 283.387695312 340 283.387695312 331.134765625 314.7421875 c 128,-1,24
 322.270507812 346.095703125 322.270507812 346.095703125 302.534578526 358.51171875 c 0,25,26
 281.527330177 371 281.527330177 371 244.15805417 371 c 0,27,28
 178.051757812 371 178.051757812 371 153 338.540039062 c 1,29,30
 153 224.446289062 153 224.446289062 153 110.415039062 c 1,31,32
 178.940429688 77 178.940429688 77 244.15805417 77 c 0,18,19
EndSplineSet
EndChar

